<?xml version="1.0" standalone="no"?>
<!DOCTYPE svg PUBLIC "-//W3C//DTD SVG 1.1//EN" "http://www.w3.org/Graphics/SVG/1.1/DTD/svg11.dtd" >
<svg xmlns="http://www.w3.org/2000/svg" xmlns:xlink="http://www.w3.org/1999/xlink" version="1.1">
<metadata></metadata>
<defs>
<font id="arialbold" horiz-adv-x="1139" >
<font-face units-per-em="2048" ascent="1638" descent="-410" />
<missing-glyph horiz-adv-x="569" />
<glyph horiz-adv-x="0" />
<glyph unicode="&#xd;" horiz-adv-x="569" />
<glyph unicode=" "  horiz-adv-x="569" />
<glyph unicode="&#x09;" horiz-adv-x="569" />
<glyph unicode="&#xa0;" horiz-adv-x="569" />
<glyph unicode="!" horiz-adv-x="682" d="M184 1122v344h304v-344l-72 -744h-159zM196 0v281h281v-281h-281z" />
<glyph unicode="&#x22;" horiz-adv-x="971" d="M112 1218v248h306v-248l-46 -273h-207zM563 1218v248h306v-248l-46 -273h-207z" />
<glyph unicode="#" d="M18 365v220h180l60 295h-240v221h285l79 390h224l-79 -390h221l77 390h232l-80 -390h138v-221h-183l-60 -295h243v-220h-288l-79 -390h-223l77 390h-222l-79 -390h-226l79 390h-136zM424 585h222l58 295h-221z" />
<glyph unicode="$" d="M70 411l261 28q16 -80 60 -138t98 -84v419q-196 56 -287.5 169.5t-91.5 275.5q0 164 103.5 275.5t275.5 128.5v99h145v-99q159 -19 253 -108.5t120 -239.5l-253 -33q-23 118 -120 160v-391q240 -65 327 -168.5t87 -265.5q0 -181 -109.5 -305t-304.5 -152v-187h-145v182 q-173 21 -281 129t-138 305zM360 1093q0 -53 32 -98.5t97 -73.5v346q-59 -20 -94 -68t-35 -106zM634 203q75 14 122 69.5t47 130.5q0 67 -39.5 115.5t-129.5 74.5v-390z" />
<glyph unicode="%" horiz-adv-x="1821" d="M89 1104q0 197 86.5 292t234.5 95q153 0 239.5 -94.5t86.5 -292.5q0 -197 -86.5 -292t-234.5 -95q-153 0 -239.5 94.5t-86.5 292.5zM308 1106q0 -143 33 -192q25 -36 69 -36q45 0 70 36q32 49 32 192t-32 191q-25 37 -70 37q-44 0 -69 -36q-33 -49 -33 -192zM416 -56 l781 1547h202l-775 -1547h-208zM1078 329q0 197 86.5 292t236.5 95q151 0 237.5 -95t86.5 -292q0 -198 -86.5 -293t-234.5 -95q-153 0 -239.5 95t-86.5 293zM1297 330q0 -143 33 -191q25 -37 69 -37q45 0 69 36q33 49 33 192t-32 192q-25 36 -70 36t-69 -36 q-33 -49 -33 -192z" />
<glyph unicode="&#x26;" horiz-adv-x="1479" d="M90 402q0 141 84 253.5t251 195.5q-75 89 -113 169.5t-38 152.5q0 133 106.5 225.5t303.5 92.5q190 0 297 -97t107 -237q0 -89 -53 -169t-214 -181l204 -269q36 64 62 167l254 -58q-38 -135 -66 -197.5t-60 -104.5q47 -44 121.5 -96.5t109.5 -69.5l-170 -217 q-125 61 -240 168q-89 -80 -189 -118t-238 -38q-274 0 -412 154q-107 119 -107 274zM378 412q0 -91 59.5 -148.5t159.5 -57.5q66 0 127 26t133 86l-286 353q-97 -49 -145 -118t-48 -141zM548 1182q0 -52 64 -126l69 -80l76 58q84 65 84 129q0 54 -40.5 92t-109.5 38 q-67 0 -105 -33.5t-38 -77.5z" />
<glyph unicode="'" horiz-adv-x="487" d="M92 1218v248h306v-248l-46 -273h-207z" />
<glyph unicode="(" horiz-adv-x="682" d="M107 531q0 289 99 547q86 224 218 413h192q-137 -303 -188.5 -515.5t-51.5 -450.5q0 -164 30.5 -336t83.5 -327q35 -102 123 -293h-193q-153 231 -233 480t-80 482z" />
<glyph unicode=")" horiz-adv-x="682" d="M67 1491h191q151 -215 234.5 -456t83.5 -489q0 -209 -66 -448q-75 -268 -247 -529h-194q83 178 117 273t63 219t43 235.5t14 228.5q0 238 -51 450.5t-188 515.5z" />
<glyph unicode="*" horiz-adv-x="797" d="M28 1166l59 176q131 -53 234 -117q-24 163 -24 266h178q0 -73 -27 -268q20 8 86 39q90 41 166 70l53 -181q-111 -25 -257 -49l120 -135q36 -41 57 -67l-153 -101l-135 223q-61 -108 -140 -230l-151 117q72 81 150 155q31 30 39 38q-25 4 -143 33q-85 21 -112 31z" />
<glyph unicode="+" horiz-adv-x="1196" d="M85 592v263h384v381h256v-381h385v-263h-385v-381h-256v381h-384z" />
<glyph unicode="," horiz-adv-x="569" d="M117 -211q85 28 121 77t38 134h-136v281h281v-201q0 -122 -21 -192.5t-79.5 -126.5t-148.5 -88z" />
<glyph unicode="-" horiz-adv-x="682" d="M115 391v281h552v-281h-552z" />
<glyph unicode="." horiz-adv-x="569" d="M147 0v281h281v-281h-281z" />
<glyph unicode="/" horiz-adv-x="569" d="M-3 -25l363 1516h211l-367 -1516h-207z" />
<glyph unicode="0" d="M86 726q0 414 144 596q119 150 332 150t333 -152q143 -180 143 -597q0 -416 -144 -598q-119 -150 -332 -150q-214 0 -345 164.5t-131 586.5zM380 723q0 -258 26 -354.5t65.5 -128.5t90.5 -32t91 32.5t62 116.5q29 108 29 366t-26 354.5t-65.5 129t-90.5 32.5t-91 -32.5 t-62 -116.5q-29 -109 -29 -367z" />
<glyph unicode="1" d="M162 846v255q110 36 239 136.5t177 234.5h228v-1472h-281v1059q-154 -144 -363 -213z" />
<glyph unicode="2" d="M51 0q16 148 96 280.5t316 351.5q190 177 233 240q58 87 58 172q0 94 -50.5 144.5t-139.5 50.5q-88 0 -140 -53t-60 -176l-280 28q25 232 157 333t330 101q217 0 341 -117t124 -291q0 -99 -35.5 -188.5t-112.5 -187.5q-51 -65 -184 -187t-168.5 -162t-57.5 -78h558v-261 h-985z" />
<glyph unicode="3" d="M77 389l272 33q13 -104 70 -159t138 -55q87 0 146.5 66t59.5 178q0 106 -57 168t-139 62q-54 0 -129 -21l31 229q114 -3 174 49.5t60 139.5q0 74 -44 118t-117 44q-72 0 -123 -50t-62 -146l-259 44q27 133 81.5 212.5t152 125t218.5 45.5q207 0 332 -132 q103 -108 103 -244q0 -193 -211 -308q126 -27 201.5 -121t75.5 -227q0 -193 -141 -329t-351 -136q-199 0 -330 114.5t-152 299.5z" />
<glyph unicode="4" d="M38 295v246l636 931h236v-930h182v-247h-182v-295h-272v295h-600zM301 542h337v501z" />
<glyph unicode="5" d="M91 377l280 29q12 -95 71 -150.5t136 -55.5q88 0 149 71.5t61 215.5q0 135 -60.5 202.5t-157.5 67.5q-121 0 -217 -107l-228 33l144 763h743v-263h-530l-44 -249q94 47 192 47q187 0 317 -136t130 -353q0 -181 -105 -323q-143 -194 -397 -194q-203 0 -331 109t-153 293z " />
<glyph unicode="6" d="M87 713q0 403 149 581t387 178q167 0 276.5 -93.5t139.5 -271.5l-272 -30q-10 84 -52 124t-109 40q-89 0 -150.5 -80t-77.5 -333q105 124 261 124q176 0 301.5 -134t125.5 -346q0 -225 -132 -361t-339 -136q-222 0 -365 172.5t-143 565.5zM402 494q0 -137 63 -211.5 t144 -74.5q78 0 130 61t52 200q0 143 -56 209.5t-140 66.5q-81 0 -137 -63.5t-56 -187.5z" />
<glyph unicode="7" d="M87 1185v261h961v-204q-119 -117 -242 -336t-187.5 -465.5t-63.5 -440.5h-271q7 304 125.5 620t316.5 565h-639z" />
<glyph unicode="8" d="M83 419q0 119 59 218.5t186 153.5q-109 46 -158.5 126.5t-49.5 176.5q0 164 114.5 271t325.5 107q209 0 324.5 -107t115.5 -271q0 -102 -53 -181.5t-149 -121.5q122 -49 185.5 -143t63.5 -217q0 -203 -129.5 -330t-344.5 -127q-200 0 -333 105q-157 124 -157 340z M360 446q0 -116 59.5 -181t148.5 -65q87 0 144 62.5t57 180.5q0 103 -58 165.5t-147 62.5q-103 0 -153.5 -71t-50.5 -154zM386 1074q0 -84 47.5 -131t126.5 -47q80 0 128 47.5t48 131.5q0 79 -47.5 126.5t-125.5 47.5q-81 0 -129 -48t-48 -127z" />
<glyph unicode="9" d="M65 976q0 223 132.5 359.5t337.5 136.5q223 0 366 -172.5t143 -567.5q0 -402 -149 -580t-388 -178q-172 0 -278 91.5t-136 273.5l272 30q10 -83 52 -123t111 -40q87 0 148 80t78 332q-106 -123 -265 -123q-173 0 -298.5 133.5t-125.5 347.5zM341 976q0 -142 56 -208.5 t140 -66.5q81 0 136.5 64t55.5 188q0 136 -62.5 211t-144.5 75q-78 0 -129.5 -61.5t-51.5 -201.5z" />
<glyph unicode=":" horiz-adv-x="682" d="M201 0v281h281v-281h-281zM201 781v281h281v-281h-281z" />
<glyph unicode=";" horiz-adv-x="682" d="M170 -211q85 28 121 78t38 133h-136v281h281v-201q0 -122 -21 -192.5t-79.5 -126.5t-148.5 -88zM193 781v281h281v-281h-281z" />
<glyph unicode="&#x3c;" horiz-adv-x="1196" d="M95 604v242l1005 435v-285l-701 -268l701 -278v-283z" />
<glyph unicode="=" horiz-adv-x="1196" d="M85 372v259h1025v-259h-1025zM85 816v258h1025v-258h-1025z" />
<glyph unicode="&#x3e;" horiz-adv-x="1196" d="M95 166v283l702 276l-702 273v281l1006 -435v-240z" />
<glyph unicode="?" horiz-adv-x="1251" d="M106 1052q11 179 152.5 304t371.5 125q242 0 385 -126.5t143 -294.5q0 -93 -52.5 -176t-224.5 -226q-89 -74 -110.5 -119t-19.5 -161h-255q-1 55 -1 67q0 124 41 204t164 180t147 131q37 49 37 108q0 82 -65.5 140.5t-176.5 58.5q-107 0 -179 -61t-99 -186zM496 0v281 h281v-281h-281z" />
<glyph unicode="@" horiz-adv-x="1997" d="M61 483q0 281 133 523.5t364 364t528 121.5q252 0 448 -98t299.5 -278.5t103.5 -394.5q0 -255 -157 -461q-197 -260 -505 -260q-83 0 -125 29t-56 85q-118 -114 -272 -114q-166 0 -275.5 114.5t-109.5 304.5q0 235 132 429q160 236 410 236q178 0 263 -136l25 111h264 l-151 -717q-14 -68 -14 -88q0 -25 11.5 -37.5t27.5 -12.5q48 0 124 58q102 76 165 204t63 265q0 246 -178 411.5t-497 165.5q-271 0 -459.5 -110.5t-284 -311t-95.5 -417.5q0 -211 106.5 -384t299 -252.5t440.5 -79.5q239 0 411 66.5t277 199.5h213q-100 -203 -307 -318 q-237 -132 -578 -132q-330 0 -570 111.5t-357 329t-117 473.5zM696 430q0 -127 51.5 -187t127.5 -60q57 0 107 28q38 20 75 63q53 61 91.5 178t38.5 218q0 113 -52.5 173.5t-132.5 60.5q-86 0 -159 -66.5t-110 -189.5t-37 -218z" />
<glyph unicode="A" horiz-adv-x="1479" d="M0 0l571 1466h313l587 -1466h-322l-128 333h-586l-121 -333h-314zM526 580h400l-202 544z" />
<glyph unicode="B" horiz-adv-x="1479" d="M150 0v1466h586q174 0 259.5 -14.5t153 -60.5t112.5 -122.5t45 -171.5q0 -103 -55.5 -189t-150.5 -129q134 -39 206 -133t72 -221q0 -100 -46.5 -194.5t-127 -151t-198.5 -69.5q-74 -8 -357 -10h-499zM446 247h274q160 0 203 9q66 12 107.5 58.5t41.5 124.5q0 66 -32 112 t-92.5 67t-262.5 21h-239v-392zM446 883h194q173 0 215 5q76 9 119.5 52.5t43.5 114.5q0 68 -37.5 110.5t-111.5 51.5q-44 5 -253 5h-170v-339z" />
<glyph unicode="C" horiz-adv-x="1479" d="M97 720q0 366 189 568.5t497 202.5q269 0 437 -159q100 -94 150 -270l-293 -70q-26 114 -108.5 180t-200.5 66q-163 0 -264.5 -117t-101.5 -379q0 -278 100 -396t260 -118q118 0 203 75t122 236l287 -91q-66 -240 -219.5 -356.5t-389.5 -116.5q-292 0 -480 199.5 t-188 545.5z" />
<glyph unicode="D" horiz-adv-x="1479" d="M148 0v1466h541q183 0 279 -28q129 -38 221 -135t140 -237.5t48 -346.5q0 -181 -45 -312q-55 -160 -157 -259q-77 -75 -208 -117q-98 -31 -262 -31h-557zM444 247h221q124 0 179 14q72 18 119.5 61t77.5 141.5t30 268.5t-30 261t-84 142t-137 69q-62 14 -243 14h-133 v-971z" />
<glyph unicode="E" horiz-adv-x="1366" d="M149 0v1466h1087v-248h-791v-325h736v-247h-736v-399h819v-247h-1115z" />
<glyph unicode="F" horiz-adv-x="1251" d="M151 0v1466h1005v-248h-709v-347h612v-248h-612v-623h-296z" />
<glyph unicode="G" horiz-adv-x="1593" d="M98 738q0 229 96 407t281 273q141 73 351 73q273 0 426.5 -114.5t197.5 -316.5l-294 -55q-31 108 -116.5 170.5t-213.5 62.5q-194 0 -308.5 -123t-114.5 -365q0 -261 116 -391.5t304 -130.5q93 0 186.5 36.5t160.5 88.5v186h-339v247h638v-584q-93 -90 -269.5 -158.5 t-357.5 -68.5q-230 0 -401 96.5t-257 276t-86 390.5z" />
<glyph unicode="H" horiz-adv-x="1479" d="M150 0v1466h296v-577h580v577h296v-1466h-296v641h-580v-641h-296z" />
<glyph unicode="I" horiz-adv-x="569" d="M140 0v1466h296v-1466h-296z" />
<glyph unicode="J" d="M35 453l279 32q5 -126 37 -178q48 -79 146 -79q99 0 140 56.5t41 234.5v947h295v-928q0 -182 -32 -280q-43 -128 -156 -205.5t-298 -77.5q-217 0 -334 121.5t-118 356.5z" />
<glyph unicode="K" horiz-adv-x="1479" d="M153 0v1466h296v-651l598 651h398l-552 -571l582 -895h-383l-403 688l-240 -245v-443h-296z" />
<glyph unicode="L" horiz-adv-x="1251" d="M157 0v1454h296v-1207h736v-247h-1032z" />
<glyph unicode="M" horiz-adv-x="1706" d="M145 0v1466h443l266 -1000l263 1000h444v-1466h-275v1154l-291 -1154h-285l-290 1154v-1154h-275z" />
<glyph unicode="N" horiz-adv-x="1479" d="M152 0v1466h288l600 -979v979h275v-1466h-297l-591 956v-956h-275z" />
<glyph unicode="O" horiz-adv-x="1593" d="M89 724q0 224 67 376q50 112 136.5 201t189.5 132q137 58 316 58q324 0 518.5 -201t194.5 -559q0 -355 -193 -555.5t-516 -200.5q-327 0 -520 199.5t-193 549.5zM394 734q0 -249 115 -377.5t292 -128.5t290.5 127.5t113.5 382.5q0 252 -110.5 376t-293.5 124t-295 -125.5 t-112 -378.5z" />
<glyph unicode="P" horiz-adv-x="1366" d="M149 0v1466h475q270 0 352 -22q126 -33 211 -143.5t85 -285.5q0 -135 -49 -227t-124.5 -144.5t-153.5 -69.5q-106 -21 -307 -21h-193v-553h-296zM445 802h162q175 0 234 23t92.5 72t33.5 114q0 80 -47 132t-119 65q-53 10 -213 10h-143v-416z" />
<glyph unicode="Q" horiz-adv-x="1593" d="M89 733q0 359 192 558.5t521 199.5q326 0 517 -199.5t191 -558.5q0 -190 -53 -334q-40 -110 -128 -213q109 -78 237 -124l-109 -209q-67 20 -131 55q-14 7 -197 130q-144 -63 -319 -63q-338 0 -529.5 199t-191.5 559zM394 733q0 -257 112.5 -384.5t284.5 -127.5 q64 0 121 21q-90 59 -183 92l83 169q146 -50 279 -150q57 67 85.5 162t28.5 218q0 254 -112 379.5t-293 125.5t-293.5 -126t-112.5 -379z" />
<glyph unicode="R" horiz-adv-x="1479" d="M150 0v1466h623q235 0 341.5 -39.5t170.5 -140.5t64 -231q0 -165 -97 -272.5t-290 -135.5q96 -56 158.5 -123t168.5 -238l179 -286h-354l-214 319q-114 171 -156 215.5t-89 61t-149 16.5h-60v-612h-296zM446 846h219q213 0 266 18t83 62t30 110q0 74 -39.5 119.5 t-111.5 57.5q-36 5 -216 5h-231v-372z" />
<glyph unicode="S" horiz-adv-x="1366" d="M74 477l288 28q26 -145 105.5 -213t214.5 -68q143 0 215.5 60.5t72.5 141.5q0 52 -30.5 88.5t-106.5 63.5q-52 18 -237 64q-238 59 -334 145q-135 121 -135 295q0 112 63.5 209.5t183 148.5t288.5 51q276 0 415.5 -121t146.5 -323l-296 -13q-19 113 -81.5 162.5 t-187.5 49.5q-129 0 -202 -53q-47 -34 -47 -91q0 -52 44 -89q56 -47 272 -98t319.5 -105.5t162 -149t58.5 -233.5q0 -126 -70 -236t-198 -163.5t-319 -53.5q-278 0 -427 128.5t-178 374.5z" />
<glyph unicode="T" horiz-adv-x="1251" d="M44 1218v248h1165v-248h-434v-1218h-296v1218h-435z" />
<glyph unicode="U" horiz-adv-x="1479" d="M147 684v782h296v-794q0 -189 11 -245q19 -90 90.5 -144.5t195.5 -54.5q126 0 190 51.5t77 126.5t13 249v811h296v-770q0 -264 -24 -373t-88.5 -184t-172.5 -119.5t-282 -44.5q-210 0 -318.5 48.5t-171.5 126t-83 162.5q-29 126 -29 372z" />
<glyph unicode="V" horiz-adv-x="1366" d="M-1 1466h321l371 -1085l359 1085h314l-525 -1466h-316z" />
<glyph unicode="W" horiz-adv-x="1933" d="M7 1466h303l221 -1007l268 1007h352l257 -1024l225 1024h298l-356 -1466h-314l-292 1096l-291 -1096h-321z" />
<glyph unicode="X" horiz-adv-x="1366" d="M0 0l501 765l-454 701h346l294 -471l288 471h343l-456 -712l501 -754h-357l-325 507l-326 -507h-355z" />
<glyph unicode="Y" horiz-adv-x="1366" d="M-3 1466h347l345 -580l338 580h341l-539 -851v-615h-295v617z" />
<glyph unicode="Z" horiz-adv-x="1251" d="M22 0v267l770 951h-683v248h1073v-230l-803 -989h834v-247h-1191z" />
<glyph unicode="[" horiz-adv-x="682" d="M146 -413v1879h498v-221h-231v-1437h231v-221h-498z" />
<glyph unicode="\" horiz-adv-x="569" d="M-3 1491h207l367 -1516h-211z" />
<glyph unicode="]" horiz-adv-x="682" d="M38 -192h231v1439h-231v219h498v-1879h-498v221z" />
<glyph unicode="^" horiz-adv-x="1196" d="M115 692l376 799h223l366 -799h-284l-198 489l-197 -489h-286z" />
<glyph unicode="_" d="M-19 -223h1168v-182h-1168v182z" />
<glyph unicode="`" horiz-adv-x="682" d="M42 1491h315l138 -299h-177z" />
<glyph unicode="a" d="M73 290q0 90 43 160.5t120.5 108t223.5 65.5q197 37 273 69v28q0 81 -40 115.5t-151 34.5q-75 0 -117 -29.5t-68 -103.5l-255 46q43 154 148 228t312 74q188 0 280 -44.5t129.5 -113t37.5 -251.5l-3 -328q0 -140 13.5 -206.5t50.5 -142.5h-278q-11 28 -27 83 q-7 25 -10 33q-72 -70 -154 -105t-175 -35q-164 0 -258.5 89t-94.5 225zM354 319q0 -59 44 -102t112 -43q76 0 145 50q51 38 67 93q11 36 11 137v56q-54 -18 -171 -43t-153 -49q-55 -39 -55 -99z" />
<glyph unicode="b" horiz-adv-x="1251" d="M135 0v1466h281v-528q130 148 308 148q194 0 321 -140.5t127 -403.5q0 -272 -129.5 -419t-314.5 -147q-91 0 -179.5 45.5t-152.5 134.5v-156h-261zM414 554q0 -165 52 -244q73 -112 194 -112q93 0 158.5 79.5t65.5 250.5q0 182 -66 262.5t-169 80.5q-101 0 -168 -78.5 t-67 -238.5z" />
<glyph unicode="c" d="M85 530q0 263 139 409.5t376 146.5q194 0 308.5 -83.5t164.5 -254.5l-277 -50q-14 83 -63.5 125t-128.5 42q-105 0 -167.5 -72.5t-62.5 -242.5q0 -189 63.5 -267t170.5 -78q80 0 131 45.5t72 156.5l276 -47q-43 -190 -165 -287t-327 -97q-233 0 -371.5 147t-138.5 407z " />
<glyph unicode="d" horiz-adv-x="1251" d="M84 535q0 270 127 410.5t321 140.5q178 0 308 -148v528h281v-1466h-261v156q-65 -91 -153.5 -135.5t-178.5 -44.5q-183 0 -313.5 147.5t-130.5 411.5zM371 554q0 -170 47 -246q68 -110 190 -110q97 0 165 82.5t68 246.5q0 183 -66 263.5t-169 80.5q-100 0 -167.5 -79.5 t-67.5 -237.5z" />
<glyph unicode="e" d="M65 523q0 264 138 413.5t349 149.5q237 0 374 -156q131 -150 131 -453v-27h-704q3 -125 68 -194.5t162 -69.5q66 0 111 36t68 116l280 -47q-54 -154 -170.5 -234.5t-291.5 -80.5q-277 0 -410 181q-105 145 -105 366zM358 622h420q-3 122 -63 185.5t-146 63.5 q-92 0 -152 -67t-59 -182z" />
<glyph unicode="f" horiz-adv-x="682" d="M24 841v221h156v80q0 134 28.5 200t105 107.5t193.5 41.5q120 0 235 -36l-38 -196q-67 16 -129 16q-61 0 -87.5 -28.5t-26.5 -109.5v-75h210v-221h-210v-841h-281v841h-156z" />
<glyph unicode="g" horiz-adv-x="1251" d="M84 537q0 267 128.5 408t319.5 141q197 0 325 -173v149h263v-953q0 -188 -31 -281t-87 -146t-149.5 -83t-236.5 -30q-270 0 -383 92.5t-113 234.5q0 14 1 34l321 -39q8 -56 37 -77q40 -30 126 -30q110 0 165 33q37 22 56 71q13 35 13 129v155q-126 -172 -318 -172 q-214 0 -339 181q-98 143 -98 356zM372 553q0 -169 65.5 -247.5t161.5 -78.5q103 0 174 80.5t71 238.5q0 165 -68 245t-172 80q-101 0 -166.5 -78.5t-65.5 -239.5z" />
<glyph unicode="h" horiz-adv-x="1251" d="M146 0v1466h281v-539q136 159 325 159q97 0 175 -36t117.5 -92t54 -124t14.5 -211v-623h-281v561q0 167 -16 212t-56.5 71.5t-101.5 26.5q-70 0 -125 -34t-80.5 -102.5t-25.5 -202.5v-532h-281z" />
<glyph unicode="i" horiz-adv-x="569" d="M147 0v1062h281v-1062h-281zM147 1206v260h281v-260h-281z" />
<glyph unicode="j" horiz-adv-x="569" d="M-94 -401l49 240q20 -4 37.5 -6.5t32.5 -2.5q43 0 70.5 18.5t36.5 44.5t9 156v1013h281v-1029q0 -203 -26.5 -286.5t-102 -130.5t-192.5 -47q-42 0 -90.5 7.5t-104.5 22.5zM141 1206v260h281v-260h-281z" />
<glyph unicode="k" d="M137 0v1466h281v-778l329 374h346l-363 -388l389 -674h-303l-267 477l-131 -137v-340h-281z" />
<glyph unicode="l" horiz-adv-x="569" d="M147 0v1466h281v-1466h-281z" />
<glyph unicode="m" horiz-adv-x="1821" d="M126 0v1062h259v-145q139 169 331 169q102 0 177 -42t123 -127q70 85 151 127t173 42q117 0 198 -47.5t121 -139.5q29 -68 29 -220v-679h-281v607q0 158 -29 204q-39 60 -120 60q-59 0 -111 -36t-75 -105.5t-23 -219.5v-510h-281v582q0 155 -15 200t-46.5 67t-85.5 22 q-65 0 -117 -35t-74.5 -101t-22.5 -219v-516h-281z" />
<glyph unicode="n" horiz-adv-x="1251" d="M145 0v1062h261v-156q139 180 350 180q93 0 170 -33.5t116.5 -85.5t55 -118t15.5 -189v-660h-281v542q0 172 -18 222.5t-58.5 78.5t-97.5 28q-73 0 -131 -40t-79.5 -106t-21.5 -244v-481h-281z" />
<glyph unicode="o" horiz-adv-x="1251" d="M82 546q0 140 69 271t195.5 200t282.5 69q241 0 395 -156.5t154 -395.5q0 -241 -155.5 -399.5t-391.5 -158.5q-146 0 -278.5 66t-201.5 193.5t-69 310.5zM370 531q0 -158 75 -242t185 -84t184.5 84t74.5 244q0 156 -74.5 240t-184.5 84t-185 -84t-75 -242z" />
<glyph unicode="p" horiz-adv-x="1251" d="M139 -404v1466h262v-156q51 80 138 130t193 50q185 0 314 -145t129 -404q0 -266 -130 -413.5t-315 -147.5q-88 0 -159.5 35t-150.5 120v-535h-281zM417 549q0 -179 71 -264.5t173 -85.5q98 0 163 78.5t65 257.5q0 167 -67 248t-166 81q-103 0 -171 -79.5t-68 -235.5z" />
<glyph unicode="q" horiz-adv-x="1251" d="M91 543q0 256 129.5 399.5t321.5 143.5q106 0 183.5 -45t137.5 -136v157h259v-1466h-281v534q-55 -71 -137 -112.5t-177 -41.5q-181 0 -298 136q-138 159 -138 431zM378 528q0 -175 66 -252.5t163 -77.5t170 87t73 259q0 163 -66.5 242.5t-166.5 79.5q-102 0 -170.5 -81 t-68.5 -257z" />
<glyph unicode="r" horiz-adv-x="797" d="M135 0v1062h261v-151q67 107 120.5 141t121.5 34q96 0 185 -53l-87 -245q-71 46 -132 46q-59 0 -100 -32.5t-64.5 -117.5t-23.5 -356v-328h-281z" />
<glyph unicode="s" d="M48 303l282 43q18 -82 73 -124.5t154 -42.5q109 0 164 40q37 28 37 75q0 32 -20 53q-21 20 -94 37q-340 75 -431 137q-126 86 -126 239q0 138 109 232t338 94q218 0 324 -71t146 -210l-265 -49q-17 62 -64.5 95t-135.5 33q-111 0 -159 -31q-32 -22 -32 -57q0 -30 28 -51 q38 -28 262.5 -79t313.5 -125q88 -75 88 -209q0 -146 -122 -251t-361 -105q-217 0 -343.5 88t-165.5 239z" />
<glyph unicode="t" horiz-adv-x="682" d="M31 838v224h129v211l282 164v-375h192v-224h-192v-428q0 -130 5.5 -151.5t25 -35.5t47.5 -14q39 0 113 27l24 -218q-98 -42 -222 -42q-76 0 -137 25.5t-89.5 66t-39.5 109.5q-9 49 -9 198v463h-129z" />
<glyph unicode="u" horiz-adv-x="1251" d="M141 390v672h281v-488q0 -224 15.5 -274.5t56.5 -80t104 -29.5q72 0 129 39.5t78 98t21 286.5v448h281v-1062h-261v159q-58 -85 -152.5 -134t-199.5 -49q-107 0 -192 47t-123 132t-38 235z" />
<glyph unicode="v" d="M11 1062h295l200 -542l58 -181q23 69 29 91q14 45 30 90l202 542h289l-422 -1062h-253z" />
<glyph unicode="w" horiz-adv-x="1593" d="M9 1062h273l199 -696l183 696h271l177 -696l203 696h277l-341 -1062h-270l-183 683l-180 -683h-273z" />
<glyph unicode="x" d="M12 0l383 547l-367 515h343l188 -292l198 292h330l-360 -503l393 -559h-345l-216 329l-218 -329h-329z" />
<glyph unicode="y" d="M14 1062h299l254 -754l248 754h291l-375 -1022l-67 -185q-37 -93 -70.5 -142t-77 -79.5t-107 -47.5t-143.5 -17q-81 0 -159 17l-25 220q66 -13 119 -13q98 0 145 57.5t72 146.5z" />
<glyph unicode="z" horiz-adv-x="1024" d="M34 0v219l398 457q98 112 145 159q-49 -3 -129 -4l-375 -2v233h878v-199l-406 -468l-143 -155q117 7 145 7h435v-247h-948z" />
<glyph unicode="{" horiz-adv-x="797" d="M60 410v240q73 4 110 22t64 60.5t37 106.5q8 48 8 167q0 194 18 270.5t65 123t137 73.5q61 18 192 18h53v-239q-111 0 -142.5 -12.5t-46.5 -38t-15 -87.5q0 -63 -9 -239q-5 -99 -26 -160.5t-53.5 -101.5t-99.5 -83q59 -34 96.5 -79.5t57.5 -110.5t26 -174q7 -166 7 -212 q0 -66 16 -92t48.5 -39.5t140.5 -13.5v-240h-53q-135 0 -207 21.5t-121.5 71.5t-66.5 123.5t-17 231.5q0 184 -16 239q-22 80 -66.5 114.5t-136.5 39.5z" />
<glyph unicode="|" horiz-adv-x="573" d="M176 -431v1922h223v-1922h-223z" />
<glyph unicode="}" horiz-adv-x="797" d="M45 -191q107 0 140 13.5t48.5 39t16 86.5t8.5 233q5 104 27 166.5t58.5 106t93.5 76.5q-74 48 -108 94q-47 66 -64 168q-11 70 -16 308q-1 75 -13.5 100t-45 38.5t-145.5 13.5v239h53q135 0 207 -21t121 -71.5t66.5 -124t17.5 -231.5q0 -183 15 -239q22 -80 67 -114.5 t137 -39.5v-240q-73 -4 -110 -22t-63.5 -60.5t-37.5 -106.5q-8 -48 -8 -166q0 -194 -17.5 -271t-64.5 -123.5t-138 -73.5q-61 -18 -192 -18h-53v240z" />
<glyph unicode="~" horiz-adv-x="1196" d="M67 519v259q127 138 296 138q63 0 116 -12.5t190.5 -68t186.5 -55.5q56 0 129.5 34.5t143.5 109.5v-270q-46 -48 -128.5 -90t-170.5 -42q-50 0 -97.5 12t-150.5 57q-154 67 -242 67q-140 0 -273 -139z" />
<glyph unicode="&#xa1;" horiz-adv-x="682" d="M195 -63l73 741h158l73 -741v-344h-304v344zM206 781v281h282v-281h-282z" />
<glyph unicode="&#xa2;" d="M84 535q0 259 139 405t375 146q45 0 94 -6l113 376l123 -35l-112 -371q189 -72 256 -302l-277 -50q-12 72 -51 113l-182 -602q22 -4 45 -4q79 0 130.5 45.5t72.5 156.5l276 -47q-43 -190 -165 -287t-326 -97q-50 0 -101 7l-117 -386l-122 34l116 385 q-138 60 -212.5 196.5t-74.5 322.5zM372 549q0 -194 76 -280l179 595q-13 1 -24 1q-106 0 -168.5 -73t-62.5 -243z" />
<glyph unicode="&#xa3;" d="M13 217q113 81 162.5 172.5t49.5 174.5q0 27 -4 57h-208v221h157q-41 118 -41 239q0 109 59.5 208t168.5 150.5t238 51.5q197 0 314 -99.5t143 -285.5l-271 -40q-19 107 -69 154t-125 47q-80 0 -133 -53.5t-53 -134.5q0 -42 14.5 -111t35.5 -126h312v-221h-266 q3 -22 3 -44q0 -79 -30 -146t-123 -176q55 28 138 28q35 0 63 -4q14 -2 82 -19q121 -31 165 -31q78 0 204 56l108 -238q-57 -31 -131.5 -50.5t-144.5 -19.5q-90 0 -240 42.5t-222 42.5q-122 0 -249 -87z" />
<glyph unicode="&#xa4;" d="M45 1072l166 178l136 -136q53 29 107.5 43t110.5 14q57 0 112 -14t107 -43l134 134l167 -169l-132 -133q28 -51 42 -105.5t14 -112.5q0 -57 -14 -111.5t-42 -106.5l134 -133l-167 -171l-136 136q-50 -28 -104.5 -42.5t-113.5 -14.5q-56 0 -110 14t-106 42l-130 -131 l-170 168l130 132q-28 52 -42.5 106.5t-14.5 111.5t13.5 110.5t40.5 102.5zM364 728q0 -84 59.5 -143t142.5 -59q84 0 143 59t59 143t-59 143t-143 59t-143 -59t-59 -143z" />
<glyph unicode="&#xa5;" d="M1 1466h308l200 -426q38 -80 54 -141q19 66 54 141l204 426h308l-315 -631h265v-221h-376v-120h376v-221h-376v-273h-281v273h-371v221h371v120h-371v221h261z" />
<glyph unicode="&#xa6;" horiz-adv-x="573" d="M176 360h223v-791h-223v791zM176 701v790h223v-790h-223z" />
<glyph unicode="&#xa7;" d="M59 625q0 98 45 182t140 138q-50 54 -75.5 110t-25.5 114q0 135 105.5 228.5t296.5 93.5q196 0 308.5 -93.5t132.5 -243.5l-275 -29q-4 74 -43.5 113t-109.5 39q-65 0 -99 -28.5t-34 -64.5q0 -49 46 -94q31 -30 205 -142t230 -160q87 -73 124.5 -144.5t37.5 -158.5 q0 -93 -45.5 -171.5t-136.5 -142.5q61 -56 91 -119.5t30 -134.5q0 -148 -111 -248t-319 -100q-200 0 -320 99t-142 264l274 33q18 -90 68.5 -135.5t127.5 -45.5q66 0 105 34.5t39 83.5q0 47 -37 84q-38 37 -266.5 182.5t-297.5 241.5t-69 215zM314 680q0 -101 135 -192 l286 -195q44 40 65.5 76.5t21.5 70.5q0 33 -23 68t-126 110l-273 198q-34 -20 -60 -57t-26 -79z" />
<glyph unicode="&#xa8;" horiz-adv-x="682" d="M5 1250v241h241v-241h-241zM435 1250v241h242v-241h-242z" />
<glyph unicode="&#xa9;" horiz-adv-x="1509" d="M-9 730q0 201 103.5 384.5t284.5 282.5t378 99t378 -99t284.5 -282.5t103.5 -384.5q0 -200 -101.5 -381.5t-283 -283t-381.5 -101.5t-381.5 101.5t-283 283t-101.5 381.5zM142 730q0 -160 81.5 -306t227.5 -227.5t306 -81.5t306 81.5t227.5 227.5t81.5 306q0 161 -83 309 t-228.5 227t-303.5 79t-303.5 -79t-228.5 -226.5t-83 -309.5zM381 723q0 129 48 230t138.5 151t202.5 50q123 0 205.5 -58.5t128.5 -184.5l-162 -38q-28 73 -72.5 106t-105.5 33q-91 0 -149 -68.5t-58 -214.5t57 -215t137 -69q67 0 116 39.5t76 131.5l161 -54 q-38 -126 -126 -193t-210 -67q-171 0 -279 112t-108 309z" />
<glyph unicode="&#xaa;" horiz-adv-x="758" d="M37 959q0 68 31.5 115t92.5 74q45 19 188 47q79 16 125 33q0 14 -1 21q-1 49 -18 64q-24 21 -83 21q-52 0 -78 -17q-19 -13 -40 -65l-189 38q23 99 92.5 150t210.5 51q147 0 222 -39q49 -25 73 -89q15 -40 15 -154v-239q0 -104 6.5 -139.5t23.5 -69.5h-190q-13 26 -23 71 q-88 -89 -216 -89q-114 0 -178 60.5t-64 155.5zM244 974q0 -31 27 -56t70 -25q58 0 95.5 41.5t37.5 120.5v40q-22 -13 -62 -21q-108 -23 -128 -35q-40 -25 -40 -65z" />
<glyph unicode="&#xab;" d="M96 532l316 451h221l-260 -451l260 -462h-221zM488 532l316 451h221l-259 -451l259 -462h-221z" />
<glyph unicode="&#xac;" horiz-adv-x="1196" d="M85 817v257h1025v-698h-257v441h-768z" />
<glyph unicode="&#xad;" horiz-adv-x="682" d="M115 391v281h552v-281h-552z" />
<glyph unicode="&#xae;" horiz-adv-x="1509" d="M-9 730q0 201 103.5 385t284.5 282.5t378 98.5t378 -98.5t284.5 -282.5t103.5 -385q0 -200 -101.5 -381.5t-283 -283t-381.5 -101.5t-381.5 101.5t-283 283t-101.5 381.5zM143 730q0 -161 81.5 -307t227.5 -228t306 -82q161 0 306.5 82t227.5 228t82 307q0 162 -83.5 310 t-229 227t-303.5 79t-303 -79t-228.5 -227t-83.5 -310zM411 320v813h165q232 0 260 -2q82 -7 127.5 -32.5t76 -78t30.5 -116.5q0 -88 -57.5 -150.5t-161.5 -77.5q37 -14 57 -30.5t55 -62.5q9 -12 60 -99l96 -164h-204l-68 132q-69 133 -114 167.5t-114 34.5h-43v-334h-165z M576 782h67q143 0 177.5 11t54.5 38.5t20 62.5q0 34 -19.5 60.5t-55.5 38t-177 11.5h-67v-222z" />
<glyph unicode="&#xaf;" horiz-adv-x="1131" d="M-19 1552v183h1168v-183h-1168z" />
<glyph unicode="&#xb0;" horiz-adv-x="819" d="M86 1172q0 133 93.5 226t225.5 93t225.5 -93.5t93.5 -225.5t-93.5 -225.5t-225.5 -93.5t-225.5 93.5t-93.5 225.5zM252 1172q0 -63 45 -108t108 -45t108 45t45 108t-45 108t-108 45t-108 -45t-45 -108z" />
<glyph unicode="&#xb1;" horiz-adv-x="1124" d="M50 0v263h1025v-263h-1025zM50 737v263h384v381h256v-381h385v-263h-385v-381h-256v381h-384z" />
<glyph unicode="&#xb2;" horiz-adv-x="682" d="M25 727q11 85 54.5 152t194.5 186q114 89 137 118q31 38 31 77q0 37 -25 59t-76 22t-76 -24.5t-31 -90.5l-189 16q15 117 75 171q80 71 226 71q139 0 212.5 -64t73.5 -151q0 -54 -23 -102.5t-73 -100.5q-26 -26 -135 -112q-58 -45 -83 -69h314v-158h-607z" />
<glyph unicode="&#xb3;" horiz-adv-x="682" d="M40 946l184 20q8 -55 37 -81.5t76 -26.5q49 0 79 30t30 78q0 43 -28.5 71t-74.5 28q-30 0 -91 -15l23 146q52 -1 81.5 10.5t42 29t12.5 39.5q0 29 -21 47.5t-62 18.5t-66 -22.5t-33 -75.5l-178 26q25 103 74 147q76 68 208 68q124 0 196.5 -62t72.5 -142q0 -38 -21 -70 q-28 -45 -76 -74q67 -24 101.5 -70.5t34.5 -108.5q0 -95 -84 -168.5t-221 -73.5q-128 0 -205 63t-91 168z" />
<glyph unicode="&#xb4;" horiz-adv-x="682" d="M187 1192l138 299h315l-275 -299h-178z" />
<glyph unicode="&#xb5;" horiz-adv-x="1180" d="M111 -407v1469h279v-481q0 -208 42 -283q53 -97 157 -97q56 0 106 36t74 100t24 241v484h284v-1062h-262v128q-30 -56 -57 -84t-72.5 -49t-83.5 -21q-71 0 -126 39q-39 29 -86 115v-535h-279z" />
<glyph unicode="&#xb6;" d="M-2 1052q0 105 41 192.5t110.5 138.5t163.5 71q56 12 219 12h597v-261h-113v-1608h-237v1608h-144v-1608h-243v1047q-190 14 -292 122t-102 286z" />
<glyph unicode="&#xb7;" horiz-adv-x="682" d="M490 573v281h281v-281h-281z" />
<glyph unicode="&#xb8;" horiz-adv-x="682" d="M38 -285q103 -11 189 -11q89 0 132 32q33 24 33 62q0 34 -31 59t-96 25q-64 0 -131 -20l26 99q78 27 168 27q125 0 190 -55t65 -134q0 -88 -72 -143q-97 -75 -278 -75q-129 0 -195 16v118z" />
<glyph unicode="&#xb9;" horiz-adv-x="682" d="M91 1142v155q95 27 172 87q54 42 78 100h154v-757h-190v513q-94 -65 -214 -98z" />
<glyph unicode="&#xba;" horiz-adv-x="748" d="M26 1115q0 178 94.5 277t252.5 99q157 0 252 -99.5t95 -276.5t-94.5 -276t-252.5 -99t-252.5 98.5t-94.5 276.5zM237 1113q0 -110 37 -156.5t96 -46.5t96.5 46.5t37.5 156.5t-37.5 156.5t-96.5 46.5t-96 -46t-37 -157z" />
<glyph unicode="&#xbb;" d="M106 70l260 452l-260 461h221l316 -461l-316 -452h-221zM498 70l260 452l-260 461h221l316 -461l-316 -452h-221z" />
<glyph unicode="&#xbc;" horiz-adv-x="1708" d="M92 1142v155q95 27 172 87q54 42 78 100h154v-757h-190v513q-94 -65 -214 -98zM340 -54l869 1538h159l-869 -1538h-159zM1043 104v141l382 470h156v-466h107v-145h-107v-146h-178v146h-360zM1220 249h183v225z" />
<glyph unicode="&#xbd;" horiz-adv-x="1708" d="M92 1142v155q95 27 172 87q54 42 78 100h154v-757h-190v513q-94 -65 -214 -98zM340 -54l869 1538h159l-869 -1538h-159zM1049 -42q11 85 55 152t194 186q114 89 137 118q31 38 31 77q0 37 -25 59t-76 22q-50 0 -75.5 -24.5t-30.5 -90.5l-190 16q15 116 76 171 q79 71 225 71q139 0 212.5 -64t73.5 -151q0 -54 -22.5 -102.5t-73.5 -100.5q-26 -26 -135 -112q-57 -45 -82 -70h313v-157h-607z" />
<glyph unicode="&#xbe;" horiz-adv-x="1708" d="M40 946l184 20q8 -55 37 -81.5t76 -26.5q49 0 79 30t30 78q0 43 -28.5 71t-74.5 28q-30 0 -91 -15l23 146q52 -1 81.5 10.5t42 29t12.5 39.5q0 29 -21 47.5t-62 18.5t-66 -22.5t-33 -75.5l-178 26q25 103 74 147q76 68 208 68q124 0 196.5 -62t72.5 -142q0 -38 -21 -70 q-28 -45 -76 -74q67 -24 101.5 -70.5t34.5 -108.5q0 -95 -84 -168.5t-221 -73.5q-128 0 -205 63t-91 168zM364 -54l869 1538h158l-868 -1538h-159zM1042 104v141l382 470h156v-466h108v-145h-108v-146h-178v146h-360zM1220 249h182v225z" />
<glyph unicode="&#xbf;" horiz-adv-x="1251" d="M101 -1q0 64 25.5 124.5t80 121.5t173.5 159q87 70 108.5 116.5t20.5 163.5h254q2 -66 2 -76q0 -114 -43.5 -196.5t-170 -185.5t-151.5 -144t-25 -93q0 -77 66 -135.5t177 -58.5q107 0 178 59.5t100 187.5l258 -33q-17 -125 -71 -208q-74 -113 -192.5 -167t-261.5 -54 q-241 0 -384.5 126.5t-143.5 292.5zM482 781v281h281v-281h-281z" />
<glyph unicode="&#xc0;" horiz-adv-x="1479" d="M0 0l571 1466h313l587 -1466h-322l-128 333h-586l-121 -333h-314zM438 1849h315l138 -299h-177zM526 580h400l-202 544z" />
<glyph unicode="&#xc1;" horiz-adv-x="1479" d="M0 0l571 1466h313l587 -1466h-322l-128 333h-586l-121 -333h-314zM526 580h400l-202 544zM554 1550l138 299h315l-275 -299h-178z" />
<glyph unicode="&#xc2;" horiz-adv-x="1479" d="M0 0l571 1466h313l587 -1466h-322l-128 333h-586l-121 -333h-314zM386 1550l210 295h260l207 -295h-226l-116 149l-108 -149h-227zM526 580h400l-202 544z" />
<glyph unicode="&#xc3;" horiz-adv-x="1479" d="M0 0l571 1466h313l587 -1466h-322l-128 333h-586l-121 -333h-314zM366 1583q0 105 51 161.5t131 56.5q35 0 65 -7.5t109.5 -43t124.5 -35.5q32 0 53.5 20t27.5 67h130q-1 -135 -50.5 -193t-127.5 -58q-34 0 -67 7q-23 6 -115 41t-134 35q-32 0 -50 -19.5t-19 -67.5h-128 q-1 23 -1 36zM526 580h400l-202 544z" />
<glyph unicode="&#xc4;" horiz-adv-x="1479" d="M0 0l571 1466h313l587 -1466h-322l-128 333h-586l-121 -333h-314zM383 1550v241h241v-241h-241zM526 580h400l-202 544zM813 1550v241h242v-241h-242z" />
<glyph unicode="&#xc5;" horiz-adv-x="1479" d="M0 0l571 1466h313l587 -1466h-322l-128 333h-586l-121 -333h-314zM526 580h400l-202 544zM529 1562q0 81 57.5 138.5t138.5 57.5t138.5 -57t57.5 -139q0 -81 -57.5 -138.5t-138.5 -57.5t-138.5 57.5t-57.5 138.5zM636 1562q0 -37 26 -63t63 -26t63 26t26 63t-26 63 t-63 26t-63 -26t-26 -63z" />
<glyph unicode="&#xc6;" horiz-adv-x="2048" d="M-86 0l684 1466h1324v-248h-726v-326h669v-248h-669v-397h753v-247h-1049v345h-508l-150 -345h-328zM501 601h402v643h-115z" />
<glyph unicode="&#xc7;" horiz-adv-x="1479" d="M97 720q0 366 189 568.5t497 202.5q269 0 437 -159q100 -94 150 -270l-293 -70q-26 114 -108.5 180t-200.5 66q-163 0 -264.5 -117t-101.5 -379q0 -278 100 -396t260 -118q118 0 203 75t122 236l287 -91q-66 -240 -219.5 -356.5t-389.5 -116.5q-292 0 -480 199.5 t-188 545.5zM465 -285q103 -11 189 -11q89 0 132 32q33 24 33 62q0 34 -31 59t-96 25q-64 0 -131 -20l26 99q78 27 168 27q125 0 190 -55t65 -134q0 -88 -72 -143q-97 -75 -278 -75q-129 0 -195 16v118z" />
<glyph unicode="&#xc8;" horiz-adv-x="1366" d="M149 0v1466h1087v-248h-791v-325h736v-247h-736v-399h819v-247h-1115zM409 1849h315l138 -299h-177z" />
<glyph unicode="&#xc9;" horiz-adv-x="1366" d="M149 0v1466h1087v-248h-791v-325h736v-247h-736v-399h819v-247h-1115zM525 1550l138 299h315l-275 -299h-178z" />
<glyph unicode="&#xca;" horiz-adv-x="1366" d="M149 0v1466h1087v-248h-791v-325h736v-247h-736v-399h819v-247h-1115zM337 1550l210 295h260l207 -295h-226l-116 149l-108 -149h-227z" />
<glyph unicode="&#xcb;" horiz-adv-x="1366" d="M149 0v1466h1087v-248h-791v-325h736v-247h-736v-399h819v-247h-1115zM354 1550v241h241v-241h-241zM784 1550v241h242v-241h-242z" />
<glyph unicode="&#xcc;" horiz-adv-x="569" d="M-10 1849h315l138 -299h-177zM140 0v1466h296v-1466h-296z" />
<glyph unicode="&#xcd;" horiz-adv-x="569" d="M106 1550l138 299h315l-275 -299h-178zM140 0v1466h296v-1466h-296z" />
<glyph unicode="&#xce;" horiz-adv-x="569" d="M-42 1550l210 295h260l207 -295h-226l-116 149l-108 -149h-227zM140 0v1466h296v-1466h-296z" />
<glyph unicode="&#xcf;" horiz-adv-x="569" d="M-45 1550v241h241v-241h-241zM140 0v1466h296v-1466h-296zM385 1550v241h242v-241h-242z" />
<glyph unicode="&#xd0;" horiz-adv-x="1479" d="M-3 640v186h152v640h540q186 0 282 -29q130 -39 222 -137.5t138.5 -238.5t46.5 -346q0 -181 -51.5 -326.5t-151.5 -242.5q-77 -73 -207 -115q-98 -31 -263 -31h-556v640h-152zM444 247h222q147 0 212 24q86 30 131 110q63 113 63 345q0 165 -26.5 254.5t-78 144.5 t-134.5 77q-64 16 -255 16h-134v-392h314v-186h-314v-393z" />
<glyph unicode="&#xd1;" horiz-adv-x="1479" d="M152 0v1466h288l600 -979v979h275v-1466h-297l-591 956v-956h-275zM391 1583q0 105 51 161.5t131 56.5q35 0 65 -7.5t109.5 -43t124.5 -35.5q32 0 53.5 20t27.5 67h130q-1 -135 -50.5 -193t-127.5 -58q-34 0 -67 7q-23 6 -115 41t-134 35q-32 0 -50 -19.5t-19 -67.5h-128 q-1 23 -1 36z" />
<glyph unicode="&#xd2;" horiz-adv-x="1593" d="M89 724q0 224 67 376q50 112 136.5 201t189.5 132q137 58 316 58q324 0 518.5 -201t194.5 -559q0 -355 -193 -555.5t-516 -200.5q-327 0 -520 199.5t-193 549.5zM394 734q0 -249 115 -377.5t292 -128.5t290.5 127.5t113.5 382.5q0 252 -110.5 376t-293.5 124t-295 -125.5 t-112 -378.5zM502 1849h315l138 -299h-177z" />
<glyph unicode="&#xd3;" horiz-adv-x="1593" d="M89 724q0 224 67 376q50 112 136.5 201t189.5 132q137 58 316 58q324 0 518.5 -201t194.5 -559q0 -355 -193 -555.5t-516 -200.5q-327 0 -520 199.5t-193 549.5zM394 734q0 -249 115 -377.5t292 -128.5t290.5 127.5t113.5 382.5q0 252 -110.5 376t-293.5 124t-295 -125.5 t-112 -378.5zM618 1550l138 299h315l-275 -299h-178z" />
<glyph unicode="&#xd4;" horiz-adv-x="1593" d="M89 724q0 224 67 376q50 112 136.5 201t189.5 132q137 58 316 58q324 0 518.5 -201t194.5 -559q0 -355 -193 -555.5t-516 -200.5q-327 0 -520 199.5t-193 549.5zM394 734q0 -249 115 -377.5t292 -128.5t290.5 127.5t113.5 382.5q0 252 -110.5 376t-293.5 124t-295 -125.5 t-112 -378.5zM450 1550l210 295h260l207 -295h-226l-116 149l-108 -149h-227z" />
<glyph unicode="&#xd5;" horiz-adv-x="1593" d="M89 724q0 224 67 376q50 112 136.5 201t189.5 132q137 58 316 58q324 0 518.5 -201t194.5 -559q0 -355 -193 -555.5t-516 -200.5q-327 0 -520 199.5t-193 549.5zM394 734q0 -249 115 -377.5t292 -128.5t290.5 127.5t113.5 382.5q0 252 -110.5 376t-293.5 124t-295 -125.5 t-112 -378.5zM430 1583q0 105 51 161.5t131 56.5q35 0 65 -7.5t109.5 -43t124.5 -35.5q32 0 53.5 20t27.5 67h130q-1 -135 -50.5 -193t-127.5 -58q-34 0 -67 7q-23 6 -115 41t-134 35q-32 0 -50 -19.5t-19 -67.5h-128q-1 23 -1 36z" />
<glyph unicode="&#xd6;" horiz-adv-x="1593" d="M89 724q0 224 67 376q50 112 136.5 201t189.5 132q137 58 316 58q324 0 518.5 -201t194.5 -559q0 -355 -193 -555.5t-516 -200.5q-327 0 -520 199.5t-193 549.5zM394 734q0 -249 115 -377.5t292 -128.5t290.5 127.5t113.5 382.5q0 252 -110.5 376t-293.5 124t-295 -125.5 t-112 -378.5zM447 1550v241h241v-241h-241zM877 1550v241h242v-241h-242z" />
<glyph unicode="&#xd7;" horiz-adv-x="1196" d="M109 1025l186 186l304 -303l302 302l181 -182l-302 -302l305 -305l-186 -186l-305 305l-302 -302l-181 182l302 302z" />
<glyph unicode="&#xd8;" horiz-adv-x="1593" d="M63 42l171 192q-146 195 -146 508q0 347 193 548t515 201q267 0 443 -132l158 177l139 -122l-167 -188q67 -90 104 -221.5t37 -279.5q0 -349 -193 -549.5t-510 -200.5q-275 0 -440 125l-162 -182zM393 735q0 -159 46 -272l616 690q-101 86 -256 86q-182 0 -294 -125.5 t-112 -378.5zM549 305q103 -90 248 -90q178 0 292.5 129t114.5 385q0 162 -40 267z" />
<glyph unicode="&#xd9;" horiz-adv-x="1479" d="M147 684v782h296v-794q0 -189 11 -245q19 -90 90.5 -144.5t195.5 -54.5q126 0 190 51.5t77 126.5t13 249v811h296v-770q0 -264 -24 -373t-88.5 -184t-172.5 -119.5t-282 -44.5q-210 0 -318.5 48.5t-171.5 126t-83 162.5q-29 126 -29 372zM434 1849h315l138 -299h-177z " />
<glyph unicode="&#xda;" horiz-adv-x="1479" d="M147 684v782h296v-794q0 -189 11 -245q19 -90 90.5 -144.5t195.5 -54.5q126 0 190 51.5t77 126.5t13 249v811h296v-770q0 -264 -24 -373t-88.5 -184t-172.5 -119.5t-282 -44.5q-210 0 -318.5 48.5t-171.5 126t-83 162.5q-29 126 -29 372zM550 1550l138 299h315l-275 -299 h-178z" />
<glyph unicode="&#xdb;" horiz-adv-x="1479" d="M147 684v782h296v-794q0 -189 11 -245q19 -90 90.5 -144.5t195.5 -54.5q126 0 190 51.5t77 126.5t13 249v811h296v-770q0 -264 -24 -373t-88.5 -184t-172.5 -119.5t-282 -44.5q-210 0 -318.5 48.5t-171.5 126t-83 162.5q-29 126 -29 372zM402 1550l210 295h260l207 -295 h-226l-116 149l-108 -149h-227z" />
<glyph unicode="&#xdc;" horiz-adv-x="1479" d="M147 684v782h296v-794q0 -189 11 -245q19 -90 90.5 -144.5t195.5 -54.5q126 0 190 51.5t77 126.5t13 249v811h296v-770q0 -264 -24 -373t-88.5 -184t-172.5 -119.5t-282 -44.5q-210 0 -318.5 48.5t-171.5 126t-83 162.5q-29 126 -29 372zM399 1550v241h241v-241h-241z M829 1550v241h242v-241h-242z" />
<glyph unicode="&#xdd;" horiz-adv-x="1366" d="M-3 1466h347l345 -580l338 580h341l-539 -851v-615h-295v617zM495 1550l138 299h315l-275 -299h-178z" />
<glyph unicode="&#xde;" horiz-adv-x="1366" d="M149 0v1466h296v-276h179q270 0 353 -22q126 -34 210.5 -144.5t84.5 -285.5q0 -134 -49 -226t-124.5 -145t-153.5 -69q-106 -22 -307 -22h-193v-276h-296zM445 525h162q166 0 211 11q62 15 105.5 66t43.5 135q0 68 -34.5 118.5t-84 68.5t-260.5 18h-143v-417z" />
<glyph unicode="&#xdf;" horiz-adv-x="1251" d="M139 0v952q0 200 35.5 304t137.5 169.5t265 65.5q204 0 305 -87t101 -216q0 -87 -54.5 -186.5t-62.5 -121.5t-8 -38q0 -33 25 -69q16 -23 120 -128t140 -178t36 -151q0 -145 -100.5 -242.5t-254.5 -97.5q-106 0 -193 54.5t-131 134.5l196 115q21 -39 47 -59t57 -20 q41 0 69.5 29.5t28.5 73.5q0 41 -30 83q-17 25 -138 139q-169 162 -169 255q0 59 65 194q51 104 60 132t9 58q0 44 -33 75t-88 31q-50 0 -86.5 -26t-49.5 -67q-18 -55 -18 -226v-952h-281z" />
<glyph unicode="&#xe0;" d="M73 290q0 90 43 160.5t120.5 108t223.5 65.5q197 37 273 69v28q0 81 -40 115.5t-151 34.5q-75 0 -117 -29.5t-68 -103.5l-255 46q43 154 148 228t312 74q188 0 280 -44.5t129.5 -113t37.5 -251.5l-3 -328q0 -140 13.5 -206.5t50.5 -142.5h-278q-11 28 -27 83 q-7 25 -10 33q-72 -70 -154 -105t-175 -35q-164 0 -258.5 89t-94.5 225zM260 1491h315l138 -299h-177zM354 319q0 -59 44 -102t112 -43q76 0 145 50q51 38 67 93q11 36 11 137v56q-54 -18 -171 -43t-153 -49q-55 -39 -55 -99z" />
<glyph unicode="&#xe1;" d="M73 290q0 90 43 160.5t120.5 108t223.5 65.5q197 37 273 69v28q0 81 -40 115.5t-151 34.5q-75 0 -117 -29.5t-68 -103.5l-255 46q43 154 148 228t312 74q188 0 280 -44.5t129.5 -113t37.5 -251.5l-3 -328q0 -140 13.5 -206.5t50.5 -142.5h-278q-11 28 -27 83 q-7 25 -10 33q-72 -70 -154 -105t-175 -35q-164 0 -258.5 89t-94.5 225zM354 319q0 -59 44 -102t112 -43q76 0 145 50q51 38 67 93q11 36 11 137v56q-54 -18 -171 -43t-153 -49q-55 -39 -55 -99zM429 1192l138 299h315l-275 -299h-178z" />
<glyph unicode="&#xe2;" d="M73 290q0 90 43 160.5t120.5 108t223.5 65.5q197 37 273 69v28q0 81 -40 115.5t-151 34.5q-75 0 -117 -29.5t-68 -103.5l-255 46q43 154 148 228t312 74q188 0 280 -44.5t129.5 -113t37.5 -251.5l-3 -328q0 -140 13.5 -206.5t50.5 -142.5h-278q-11 28 -27 83 q-7 25 -10 33q-72 -70 -154 -105t-175 -35q-164 0 -258.5 89t-94.5 225zM233 1196l210 295h260l207 -295h-226l-116 149l-108 -149h-227zM354 319q0 -59 44 -102t112 -43q76 0 145 50q51 38 67 93q11 36 11 137v56q-54 -18 -171 -43t-153 -49q-55 -39 -55 -99z" />
<glyph unicode="&#xe3;" d="M73 290q0 90 43 160.5t120.5 108t223.5 65.5q197 37 273 69v28q0 81 -40 115.5t-151 34.5q-75 0 -117 -29.5t-68 -103.5l-255 46q43 154 148 228t312 74q188 0 280 -44.5t129.5 -113t37.5 -251.5l-3 -328q0 -140 13.5 -206.5t50.5 -142.5h-278q-11 28 -27 83 q-7 25 -10 33q-72 -70 -154 -105t-175 -35q-164 0 -258.5 89t-94.5 225zM226 1241q0 105 51 161.5t131 56.5q35 0 65 -7.5t109.5 -43t124.5 -35.5q32 0 53.5 20t27.5 67h130q-1 -135 -50.5 -193t-127.5 -58q-34 0 -67 7q-23 6 -115 41t-134 35q-32 0 -50 -19.5t-19 -67.5 h-128q-1 23 -1 36zM354 319q0 -59 44 -102t112 -43q76 0 145 50q51 38 67 93q11 36 11 137v56q-54 -18 -171 -43t-153 -49q-55 -39 -55 -99z" />
<glyph unicode="&#xe4;" d="M73 290q0 90 43 160.5t120.5 108t223.5 65.5q197 37 273 69v28q0 81 -40 115.5t-151 34.5q-75 0 -117 -29.5t-68 -103.5l-255 46q43 154 148 228t312 74q188 0 280 -44.5t129.5 -113t37.5 -251.5l-3 -328q0 -140 13.5 -206.5t50.5 -142.5h-278q-11 28 -27 83 q-7 25 -10 33q-72 -70 -154 -105t-175 -35q-164 0 -258.5 89t-94.5 225zM236 1250v241h241v-241h-241zM354 319q0 -59 44 -102t112 -43q76 0 145 50q51 38 67 93q11 36 11 137v56q-54 -18 -171 -43t-153 -49q-55 -39 -55 -99zM666 1250v241h242v-241h-242z" />
<glyph unicode="&#xe5;" d="M73 290q0 90 43 160.5t120.5 108t223.5 65.5q197 37 273 69v28q0 81 -40 115.5t-151 34.5q-75 0 -117 -29.5t-68 -103.5l-255 46q43 154 148 228t312 74q188 0 280 -44.5t129.5 -113t37.5 -251.5l-3 -328q0 -140 13.5 -206.5t50.5 -142.5h-278q-11 28 -27 83 q-7 25 -10 33q-72 -70 -154 -105t-175 -35q-164 0 -258.5 89t-94.5 225zM354 319q0 -59 44 -102t112 -43q76 0 145 50q51 38 67 93q11 36 11 137v56q-54 -18 -171 -43t-153 -49q-55 -39 -55 -99zM375 1342q0 81 57.5 138.5t138.5 57.5t138.5 -57t57.5 -139 q0 -81 -57.5 -138.5t-138.5 -57.5t-138.5 57.5t-57.5 138.5zM482 1342q0 -37 26 -63t63 -26t63 26t26 63t-26 63t-63 26t-63 -26t-26 -63z" />
<glyph unicode="&#xe6;" horiz-adv-x="1821" d="M88 288q0 81 33.5 144t81 98.5t132.5 61.5q40 13 238 54q99 21 169 44v28q0 77 -42 115t-133 38q-80 0 -127 -32.5t-67 -100.5l-255 49q50 154 157.5 226.5t327.5 72.5q104 0 185.5 -24.5t139.5 -73.5q61 49 133.5 73.5t155.5 24.5q160 0 270.5 -67.5t174 -199 t62.5 -371.5h-706q17 -136 76 -197t145 -61q71 0 121 36.5t76 112.5l275 -49q-57 -157 -173 -235.5t-296 -78.5q-112 0 -207 36.5t-172 109.5q-71 -61 -183.5 -103.5t-231.5 -42.5q-170 0 -265 88.5t-95 223.5zM369 314q0 -58 43.5 -99t113.5 -41q74 0 139 47 q48 35 61.5 87.5t13.5 199.5q-231 -61 -251 -68q-67 -22 -93.5 -53t-26.5 -73zM1023 624h424q-6 88 -24 127q-25 56 -75.5 88t-118.5 32q-59 0 -103.5 -27.5t-70.5 -82.5q-35 -73 -32 -137z" />
<glyph unicode="&#xe7;" d="M85 530q0 263 139 409.5t376 146.5q194 0 308.5 -83.5t164.5 -254.5l-277 -50q-14 83 -63.5 125t-128.5 42q-105 0 -167.5 -72.5t-62.5 -242.5q0 -189 63.5 -267t170.5 -78q80 0 131 45.5t72 156.5l276 -47q-43 -190 -165 -287t-327 -97q-233 0 -371.5 147t-138.5 407z M316 -285q103 -11 189 -11q89 0 132 32q33 24 33 62q0 34 -31 59t-96 25q-64 0 -131 -20l26 99q78 27 168 27q125 0 190 -55t65 -134q0 -88 -72 -143q-97 -75 -278 -75q-129 0 -195 16v118z" />
<glyph unicode="&#xe8;" d="M65 523q0 264 138 413.5t349 149.5q237 0 374 -156.5t131 -479.5h-704q3 -125 68 -194.5t162 -69.5q66 0 111 36t68 116l280 -47q-54 -154 -170.5 -234.5t-291.5 -80.5q-277 0 -410 181q-105 145 -105 366zM250 1491h315l138 -299h-177zM358 622h420q-3 122 -63 185.5 t-146 63.5q-92 0 -152 -67t-59 -182z" />
<glyph unicode="&#xe9;" d="M65 523q0 264 138 413.5t349 149.5q237 0 374 -156.5t131 -479.5h-704q3 -125 68 -194.5t162 -69.5q66 0 111 36t68 116l280 -47q-54 -154 -170.5 -234.5t-291.5 -80.5q-277 0 -410 181q-105 145 -105 366zM358 622h420q-3 122 -63 185.5t-146 63.5q-92 0 -152 -67 t-59 -182zM419 1192l138 299h315l-275 -299h-178z" />
<glyph unicode="&#xea;" d="M65 523q0 264 138 413.5t349 149.5q237 0 374 -156.5t131 -479.5h-704q3 -125 68 -194.5t162 -69.5q66 0 111 36t68 116l280 -47q-54 -154 -170.5 -234.5t-291.5 -80.5q-277 0 -410 181q-105 145 -105 366zM223 1196l210 295h260l207 -295h-226l-116 149l-108 -149h-227z M358 622h420q-3 122 -63 185.5t-146 63.5q-92 0 -152 -67t-59 -182z" />
<glyph unicode="&#xeb;" d="M65 523q0 264 138 413.5t349 149.5q237 0 374 -156.5t131 -479.5h-704q3 -125 68 -194.5t162 -69.5q66 0 111 36t68 116l280 -47q-54 -154 -170.5 -234.5t-291.5 -80.5q-277 0 -410 181q-105 145 -105 366zM225 1250v241h241v-241h-241zM358 622h420q-3 122 -63 185.5 t-146 63.5q-92 0 -152 -67t-59 -182zM655 1250v241h242v-241h-242z" />
<glyph unicode="&#xec;" horiz-adv-x="569" d="M-23 1491h315l138 -299h-177zM147 0v1062h281v-1062h-281z" />
<glyph unicode="&#xed;" horiz-adv-x="569" d="M126 1192l138 299h315l-275 -299h-178zM147 0v1062h281v-1062h-281z" />
<glyph unicode="&#xee;" horiz-adv-x="569" d="M-51 1196l210 295h260l207 -295h-226l-116 149l-108 -149h-227zM147 0v1062h281v-1062h-281z" />
<glyph unicode="&#xef;" horiz-adv-x="569" d="M-48 1250v241h241v-241h-241zM147 0v1062h281v-1062h-281zM382 1250v241h242v-241h-242z" />
<glyph unicode="&#xf0;" horiz-adv-x="1251" d="M83 533q0 243 162 399q135 130 304 130q54 0 109 -16q40 -12 113 -53q-39 70 -65 109t-81 108l-250 -119l-43 96l218 103q-100 92 -218 176h293q57 -44 109 -89l181 89l45 -98l-144 -67q192 -193 275.5 -387.5t83.5 -367.5q0 -258 -154 -414.5t-398 -156.5 q-235 0 -387.5 155.5t-152.5 402.5zM376 530q0 -159 72.5 -242.5t177.5 -83.5q107 0 182 84t75 232q0 149 -77 235t-182 86q-103 0 -175.5 -81.5t-72.5 -229.5z" />
<glyph unicode="&#xf1;" horiz-adv-x="1251" d="M145 0v1062h261v-156q139 180 350 180q93 0 170 -33.5t116.5 -85.5t55 -118t15.5 -189v-660h-281v542q0 172 -18 222.5t-58.5 78.5t-97.5 28q-73 0 -131 -40t-79.5 -106t-21.5 -244v-481h-281zM283 1241q0 105 51 161.5t131 56.5q35 0 65 -7.5t109.5 -43t124.5 -35.5 q32 0 53.5 20t27.5 67h130q-1 -135 -50.5 -193t-127.5 -58q-34 0 -67 7q-23 6 -115 41t-134 35q-32 0 -50 -19.5t-19 -67.5h-128q-1 23 -1 36z" />
<glyph unicode="&#xf2;" horiz-adv-x="1251" d="M82 546q0 140 69 271t195.5 200t282.5 69q241 0 395 -156.5t154 -395.5q0 -241 -155.5 -399.5t-391.5 -158.5q-146 0 -278.5 66t-201.5 193.5t-69 310.5zM318 1491h315l138 -299h-177zM370 531q0 -158 75 -242t185 -84t184.5 84t74.5 244q0 156 -74.5 240t-184.5 84 t-185 -84t-75 -242z" />
<glyph unicode="&#xf3;" horiz-adv-x="1251" d="M82 546q0 140 69 271t195.5 200t282.5 69q241 0 395 -156.5t154 -395.5q0 -241 -155.5 -399.5t-391.5 -158.5q-146 0 -278.5 66t-201.5 193.5t-69 310.5zM370 531q0 -158 75 -242t185 -84t184.5 84t74.5 244q0 156 -74.5 240t-184.5 84t-185 -84t-75 -242zM488 1192 l138 299h315l-275 -299h-178z" />
<glyph unicode="&#xf4;" horiz-adv-x="1251" d="M82 546q0 140 69 271t195.5 200t282.5 69q241 0 395 -156.5t154 -395.5q0 -241 -155.5 -399.5t-391.5 -158.5q-146 0 -278.5 66t-201.5 193.5t-69 310.5zM291 1196l210 295h260l207 -295h-226l-116 149l-108 -149h-227zM370 531q0 -158 75 -242t185 -84t184.5 84 t74.5 244q0 156 -74.5 240t-184.5 84t-185 -84t-75 -242z" />
<glyph unicode="&#xf5;" horiz-adv-x="1251" d="M82 546q0 140 69 271t195.5 200t282.5 69q241 0 395 -156.5t154 -395.5q0 -241 -155.5 -399.5t-391.5 -158.5q-146 0 -278.5 66t-201.5 193.5t-69 310.5zM284 1241q0 105 51 161.5t131 56.5q35 0 65 -7.5t109.5 -43t124.5 -35.5q32 0 53.5 20t27.5 67h130 q-1 -135 -50.5 -193t-127.5 -58q-34 0 -67 7q-23 6 -115 41t-134 35q-32 0 -50 -19.5t-19 -67.5h-128q-1 23 -1 36zM370 531q0 -158 75 -242t185 -84t184.5 84t74.5 244q0 156 -74.5 240t-184.5 84t-185 -84t-75 -242z" />
<glyph unicode="&#xf6;" horiz-adv-x="1251" d="M82 546q0 140 69 271t195.5 200t282.5 69q241 0 395 -156.5t154 -395.5q0 -241 -155.5 -399.5t-391.5 -158.5q-146 0 -278.5 66t-201.5 193.5t-69 310.5zM283 1250v241h241v-241h-241zM370 531q0 -158 75 -242t185 -84t184.5 84t74.5 244q0 156 -74.5 240t-184.5 84 t-185 -84t-75 -242zM713 1250v241h242v-241h-242z" />
<glyph unicode="&#xf7;" horiz-adv-x="1124" d="M49 592v263h1025v-263h-1025zM421 185v281h281v-281h-281zM421 981v281h281v-281h-281z" />
<glyph unicode="&#xf8;" horiz-adv-x="1251" d="M87 537q0 240 153.5 394.5t393.5 154.5q178 0 312 -87l104 120l112 -92l-108 -124q60 -71 94.5 -168.5t34.5 -204.5q0 -238 -157 -396t-394 -158q-172 0 -307 84l-115 -133l-110 95l116 134q-60 73 -94.5 174t-34.5 207zM366 540q0 -99 28 -178l394 455q-67 54 -152 54 q-113 0 -191.5 -87t-78.5 -244zM482 242q66 -48 151 -48q115 0 193 86.5t78 242.5q0 94 -30 172z" />
<glyph unicode="&#xf9;" horiz-adv-x="1251" d="M141 390v672h281v-488q0 -224 15.5 -274.5t56.5 -80t104 -29.5q72 0 129 39.5t78 98t21 286.5v448h281v-1062h-261v159q-58 -85 -152.5 -134t-199.5 -49q-107 0 -192 47t-123 132t-38 235zM313 1491h315l138 -299h-177z" />
<glyph unicode="&#xfa;" horiz-adv-x="1251" d="M141 390v672h281v-488q0 -224 15.5 -274.5t56.5 -80t104 -29.5q72 0 129 39.5t78 98t21 286.5v448h281v-1062h-261v159q-58 -85 -152.5 -134t-199.5 -49q-107 0 -192 47t-123 132t-38 235zM482 1192l138 299h315l-275 -299h-178z" />
<glyph unicode="&#xfb;" horiz-adv-x="1251" d="M141 390v672h281v-488q0 -224 15.5 -274.5t56.5 -80t104 -29.5q72 0 129 39.5t78 98t21 286.5v448h281v-1062h-261v159q-58 -85 -152.5 -134t-199.5 -49q-107 0 -192 47t-123 132t-38 235zM286 1196l210 295h260l207 -295h-226l-116 149l-108 -149h-227z" />
<glyph unicode="&#xfc;" horiz-adv-x="1251" d="M141 390v672h281v-488q0 -224 15.5 -274.5t56.5 -80t104 -29.5q72 0 129 39.5t78 98t21 286.5v448h281v-1062h-261v159q-58 -85 -152.5 -134t-199.5 -49q-107 0 -192 47t-123 132t-38 235zM288 1250v241h241v-241h-241zM718 1250v241h242v-241h-242z" />
<glyph unicode="&#xfd;" d="M14 1062h299l254 -754l248 754h291l-375 -1022l-67 -185q-37 -93 -70.5 -142t-77 -79.5t-107 -47.5t-143.5 -17q-81 0 -159 17l-25 220q66 -13 119 -13q98 0 145 57.5t72 146.5zM418 1192l138 299h315l-275 -299h-178z" />
<glyph unicode="&#xfe;" horiz-adv-x="1251" d="M139 -404v1870h281v-528q83 83 152.5 115.5t159.5 32.5q185 0 314 -145t129 -404q0 -266 -130 -413.5t-315 -147.5q-88 0 -159.5 35t-150.5 120v-535h-281zM418 554q0 -165 52 -244q73 -112 194 -112q93 0 158.5 79.5t65.5 250.5q0 182 -66 262.5t-169 80.5 q-101 0 -168 -78.5t-67 -238.5z" />
<glyph unicode="&#xff;" d="M14 1062h299l254 -754l248 754h291l-375 -1022l-67 -185q-37 -93 -70.5 -142t-77 -79.5t-107 -47.5t-143.5 -17q-81 0 -159 17l-25 220q66 -13 119 -13q98 0 145 57.5t72 146.5zM230 1250v241h241v-241h-241zM660 1250v241h242v-241h-242z" />
<glyph unicode="&#x100;" horiz-adv-x="1479" d="M0 0l571 1466h313l587 -1466h-322l-128 333h-586l-121 -333h-314zM405 1598v185h644v-185h-644zM526 580h400l-202 544z" />
<glyph unicode="&#x101;" d="M73 290q0 90 43 160.5t120.5 108t223.5 65.5q197 37 273 69v28q0 81 -40 115.5t-151 34.5q-75 0 -117 -29.5t-68 -103.5l-255 46q43 154 148 228t312 74q188 0 280 -44.5t129.5 -113t37.5 -251.5l-3 -328q0 -140 13.5 -206.5t50.5 -142.5h-278q-11 28 -27 83 q-7 25 -10 33q-72 -70 -154 -105t-175 -35q-164 0 -258.5 89t-94.5 225zM247 1237v185h644v-185h-644zM354 319q0 -59 44 -102t112 -43q76 0 145 50q51 38 67 93q11 36 11 137v56q-54 -18 -171 -43t-153 -49q-55 -39 -55 -99z" />
<glyph unicode="&#x102;" horiz-adv-x="1479" d="M0 0l571 1466h313l587 -1466h-322l-128 333h-586l-121 -333h-314zM424 1836h137q7 -71 50 -107.5t125 -36.5t125 36.5t50 107.5h137q-12 -136 -95.5 -213.5t-216.5 -77.5t-216.5 77.5t-95.5 213.5zM526 580h400l-202 544z" />
<glyph unicode="&#x103;" d="M73 290q0 90 43 160.5t120.5 108t223.5 65.5q197 37 273 69v28q0 81 -40 115.5t-151 34.5q-75 0 -117 -29.5t-68 -103.5l-255 46q43 154 148 228t312 74q188 0 280 -44.5t129.5 -113t37.5 -251.5l-3 -328q0 -140 13.5 -206.5t50.5 -142.5h-278q-11 28 -27 83 q-7 25 -10 33q-72 -70 -154 -105t-175 -35q-164 0 -258.5 89t-94.5 225zM256 1491h137q7 -71 50 -107.5t125 -36.5t125 36.5t50 107.5h137q-12 -136 -95.5 -213.5t-216.5 -77.5t-216.5 77.5t-95.5 213.5zM354 319q0 -59 44 -102t112 -43q76 0 145 50q51 38 67 93 q11 36 11 137v56q-54 -18 -171 -43t-153 -49q-55 -39 -55 -99z" />
<glyph unicode="&#x104;" horiz-adv-x="1479" d="M0 0l571 1466h313l587 -1466h-322l-128 333h-586l-121 -333h-314zM526 580h400l-202 544zM1120 -197q0 83 36 223h150q-20 -56 -20 -144q0 -80 37 -119t106 -39q63 0 136 23v-135q-101 -43 -194 -43q-119 0 -185 63t-66 171z" />
<glyph unicode="&#x105;" d="M73 290q0 90 43 160.5t120.5 108t223.5 65.5q197 37 273 69v28q0 81 -40 115.5t-151 34.5q-75 0 -117 -29.5t-68 -103.5l-255 46q43 154 148 228t312 74q188 0 280 -44.5t129.5 -113t37.5 -251.5l-3 -328q0 -140 13.5 -206.5t50.5 -142.5h-278q-11 28 -27 83 q-7 25 -10 33q-72 -70 -154 -105t-175 -35q-164 0 -258.5 89t-94.5 225zM354 319q0 -59 44 -102t112 -43q76 0 145 50q51 38 67 93q11 36 11 137v56q-54 -18 -171 -43t-153 -49q-55 -39 -55 -99zM765 -197q0 83 36 223h150q-20 -56 -20 -144q0 -80 37 -119t106 -39 q63 0 136 23v-135q-101 -43 -194 -43q-119 0 -185 63t-66 171z" />
<glyph unicode="&#x106;" horiz-adv-x="1479" d="M97 720q0 366 189 568.5t497 202.5q269 0 437 -159q100 -94 150 -270l-293 -70q-26 114 -108.5 180t-200.5 66q-163 0 -264.5 -117t-101.5 -379q0 -278 100 -396t260 -118q118 0 203 75t122 236l287 -91q-66 -240 -219.5 -356.5t-389.5 -116.5q-292 0 -480 199.5 t-188 545.5zM577 1550l138 299h315l-275 -299h-178z" />
<glyph unicode="&#x107;" d="M85 530q0 263 139 409.5t376 146.5q194 0 308.5 -83.5t164.5 -254.5l-277 -50q-14 83 -63.5 125t-128.5 42q-105 0 -167.5 -72.5t-62.5 -242.5q0 -189 63.5 -267t170.5 -78q80 0 131 45.5t72 156.5l276 -47q-43 -190 -165 -287t-327 -97q-233 0 -371.5 147t-138.5 407z M432 1192l138 299h315l-275 -299h-178z" />
<glyph unicode="&#x108;" horiz-adv-x="1479" d="M97 720q0 366 189 568.5t497 202.5q269 0 437 -159q100 -94 150 -270l-293 -70q-26 114 -108.5 180t-200.5 66q-163 0 -264.5 -117t-101.5 -379q0 -278 100 -396t260 -118q118 0 203 75t122 236l287 -91q-66 -240 -219.5 -356.5t-389.5 -116.5q-292 0 -480 199.5 t-188 545.5zM430 1598l210 295h260l207 -295h-226l-116 149l-108 -149h-227z" />
<glyph unicode="&#x109;" d="M85 530q0 263 139 409.5t376 146.5q194 0 308.5 -83.5t164.5 -254.5l-277 -50q-14 83 -63.5 125t-128.5 42q-105 0 -167.5 -72.5t-62.5 -242.5q0 -189 63.5 -267t170.5 -78q80 0 131 45.5t72 156.5l276 -47q-43 -190 -165 -287t-327 -97q-233 0 -371.5 147t-138.5 407z M231 1196l210 295h260l207 -295h-226l-116 149l-108 -149h-227z" />
<glyph unicode="&#x10a;" horiz-adv-x="1479" d="M97 720q0 366 189 568.5t497 202.5q269 0 437 -159q100 -94 150 -270l-293 -70q-26 114 -108.5 180t-200.5 66q-163 0 -264.5 -117t-101.5 -379q0 -278 100 -396t260 -118q118 0 203 75t122 236l287 -91q-66 -240 -219.5 -356.5t-389.5 -116.5q-292 0 -480 199.5 t-188 545.5zM628 1598v266h276v-266h-276z" />
<glyph unicode="&#x10b;" d="M85 530q0 263 139 409.5t376 146.5q194 0 308.5 -83.5t164.5 -254.5l-277 -50q-14 83 -63.5 125t-128.5 42q-105 0 -167.5 -72.5t-62.5 -242.5q0 -189 63.5 -267t170.5 -78q80 0 131 45.5t72 156.5l276 -47q-43 -190 -165 -287t-327 -97q-233 0 -371.5 147t-138.5 407z M433 1225v266h276v-266h-276z" />
<glyph unicode="&#x10c;" horiz-adv-x="1479" d="M97 720q0 366 189 568.5t497 202.5q269 0 437 -159q100 -94 150 -270l-293 -70q-26 114 -108.5 180t-200.5 66q-163 0 -264.5 -117t-101.5 -379q0 -278 100 -396t260 -118q118 0 203 75t122 236l287 -91q-66 -240 -219.5 -356.5t-389.5 -116.5q-292 0 -480 199.5 t-188 545.5zM416 1851h227l108 -149l116 149h226l-207 -295h-260z" />
<glyph unicode="&#x10d;" d="M85 530q0 263 139 409.5t376 146.5q194 0 308.5 -83.5t164.5 -254.5l-277 -50q-14 83 -63.5 125t-128.5 42q-105 0 -167.5 -72.5t-62.5 -242.5q0 -189 63.5 -267t170.5 -78q80 0 131 45.5t72 156.5l276 -47q-43 -190 -165 -287t-327 -97q-233 0 -371.5 147t-138.5 407z M274 1491h227l108 -149l116 149h226l-207 -295h-260z" />
<glyph unicode="&#x10e;" horiz-adv-x="1479" d="M148 0v1466h541q183 0 279 -28q129 -38 221 -135t140 -237.5t48 -346.5q0 -181 -45 -312q-55 -160 -157 -259q-77 -75 -208 -117q-98 -31 -262 -31h-557zM274 1851h227l108 -149l116 149h226l-207 -295h-260zM444 247h221q124 0 179 14q72 18 119.5 61t77.5 141.5 t30 268.5t-30 261t-84 142t-137 69q-62 14 -243 14h-133v-971z" />
<glyph unicode="&#x10f;" horiz-adv-x="1472" d="M81 535q0 270 127 410.5t321 140.5q178 0 308 -148v528h281v-1466h-261v156q-65 -91 -153.5 -135.5t-178.5 -44.5q-183 0 -313.5 147.5t-130.5 411.5zM368 554q0 -170 47 -246q68 -110 190 -110q97 0 165 82.5t68 246.5q0 183 -66 263.5t-169 80.5q-100 0 -167.5 -79.5 t-67.5 -237.5zM1198 1023q76 25 109 70t34 120h-122v253h253v-181q0 -112 -20 -176t-74 -114t-130 -77z" />
<glyph unicode="&#x110;" horiz-adv-x="1479" d="M-3 640v186h152v640h540q186 0 282 -29q130 -39 222 -137.5t138.5 -238.5t46.5 -346q0 -181 -51.5 -326.5t-151.5 -242.5q-77 -73 -207 -115q-98 -31 -263 -31h-556v640h-152zM444 247h222q147 0 212 24q86 30 131 110q63 113 63 345q0 165 -26.5 254.5t-78 144.5 t-134.5 77q-64 16 -255 16h-134v-392h314v-186h-314v-393z" />
<glyph unicode="&#x111;" horiz-adv-x="1251" d="M84 535q0 270 127 410.5t321 140.5q178 0 308 -148v237h-303v187h303v104h281v-104h111v-187h-111v-1175h-261v156q-65 -91 -153.5 -135.5t-178.5 -44.5q-183 0 -313.5 147.5t-130.5 411.5zM371 554q0 -170 47 -246q68 -110 190 -110q97 0 165 82.5t68 246.5 q0 183 -66 263.5t-169 80.5q-100 0 -167.5 -79.5t-67.5 -237.5z" />
<glyph unicode="&#x112;" horiz-adv-x="1366" d="M149 0v1466h1087v-248h-791v-325h736v-247h-736v-399h819v-247h-1115zM361 1598v185h644v-185h-644z" />
<glyph unicode="&#x113;" d="M65 523q0 264 138 413.5t349 149.5q237 0 374 -156.5t131 -479.5h-704q3 -125 68 -194.5t162 -69.5q66 0 111 36t68 116l280 -47q-54 -154 -170.5 -234.5t-291.5 -80.5q-277 0 -410 181q-105 145 -105 366zM245 1237v185h644v-185h-644zM358 622h420q-3 122 -63 185.5 t-146 63.5q-92 0 -152 -67t-59 -182z" />
<glyph unicode="&#x114;" horiz-adv-x="1366" d="M149 0v1466h1087v-248h-791v-325h736v-247h-736v-399h819v-247h-1115zM368 1880h137q7 -71 50 -107.5t125 -36.5t125 36.5t50 107.5h137q-12 -136 -95.5 -213.5t-216.5 -77.5t-216.5 77.5t-95.5 213.5z" />
<glyph unicode="&#x115;" d="M65 523q0 264 138 413.5t349 149.5q237 0 374 -156.5t131 -479.5h-704q3 -125 68 -194.5t162 -69.5q66 0 111 36t68 116l280 -47q-54 -154 -170.5 -234.5t-291.5 -80.5q-277 0 -410 181q-105 145 -105 366zM242 1491h137q7 -71 50 -107.5t125 -36.5t125 36.5t50 107.5 h137q-12 -136 -95.5 -213.5t-216.5 -77.5t-216.5 77.5t-95.5 213.5zM358 622h420q-3 122 -63 185.5t-146 63.5q-92 0 -152 -67t-59 -182z" />
<glyph unicode="&#x116;" horiz-adv-x="1366" d="M149 0v1466h1087v-248h-791v-325h736v-247h-736v-399h819v-247h-1115zM547 1598v266h276v-266h-276z" />
<glyph unicode="&#x117;" d="M65 523q0 264 138 413.5t349 149.5q237 0 374 -156.5t131 -479.5h-704q3 -125 68 -194.5t162 -69.5q66 0 111 36t68 116l280 -47q-54 -154 -170.5 -234.5t-291.5 -80.5q-277 0 -410 181q-105 145 -105 366zM358 622h420q-3 122 -63 185.5t-146 63.5q-92 0 -152 -67 t-59 -182zM430 1225v266h276v-266h-276z" />
<glyph unicode="&#x118;" horiz-adv-x="1366" d="M149 0v1466h1087v-248h-791v-325h736v-247h-736v-399h819v-247h-1115zM819 -197q0 83 36 223h150q-20 -56 -20 -144q0 -80 37 -119t106 -39q63 0 136 23v-135q-101 -43 -194 -43q-119 0 -185 63t-66 171z" />
<glyph unicode="&#x119;" d="M65 523q0 264 138 413.5t349 149.5q237 0 374 -156.5t131 -479.5h-704q3 -125 68 -194.5t162 -69.5q66 0 111 36t68 116l280 -47q-54 -154 -170.5 -234.5t-291.5 -80.5q-277 0 -410 181q-105 145 -105 366zM358 622h420q-3 122 -63 185.5t-146 63.5q-92 0 -152 -67 t-59 -182zM465 -197q0 83 36 223h150q-20 -56 -20 -144q0 -80 37 -119t106 -39q63 0 136 23v-135q-101 -43 -194 -43q-119 0 -185 63t-66 171z" />
<glyph unicode="&#x11a;" horiz-adv-x="1366" d="M149 0v1466h1087v-248h-791v-325h736v-247h-736v-399h819v-247h-1115zM338 1851h227l108 -149l116 149h226l-207 -295h-260z" />
<glyph unicode="&#x11b;" d="M65 523q0 264 138 413.5t349 149.5q237 0 374 -156.5t131 -479.5h-704q3 -125 68 -194.5t162 -69.5q66 0 111 36t68 116l280 -47q-54 -154 -170.5 -234.5t-291.5 -80.5q-277 0 -410 181q-105 145 -105 366zM222 1491h227l108 -149l116 149h226l-207 -295h-260zM358 622 h420q-3 122 -63 185.5t-146 63.5q-92 0 -152 -67t-59 -182z" />
<glyph unicode="&#x11c;" horiz-adv-x="1593" d="M98 738q0 229 96 407t281 273q141 73 351 73q273 0 426.5 -114.5t197.5 -316.5l-294 -55q-31 108 -116.5 170.5t-213.5 62.5q-194 0 -308.5 -123t-114.5 -365q0 -261 116 -391.5t304 -130.5q93 0 186.5 36.5t160.5 88.5v186h-339v247h638v-584q-93 -90 -269.5 -158.5 t-357.5 -68.5q-230 0 -401 96.5t-257 276t-86 390.5zM480 1598l210 295h260l207 -295h-226l-116 149l-108 -149h-227z" />
<glyph unicode="&#x11d;" horiz-adv-x="1251" d="M84 537q0 267 128.5 408t319.5 141q197 0 325 -173v149h263v-953q0 -188 -31 -281t-87 -146t-149.5 -83t-236.5 -30q-270 0 -383 92.5t-113 234.5q0 14 1 34l321 -39q8 -56 37 -77q40 -30 126 -30q110 0 165 33q37 22 56 71q13 35 13 129v155q-126 -172 -318 -172 q-214 0 -339 181q-98 143 -98 356zM288 1196l210 295h260l207 -295h-226l-116 149l-108 -149h-227zM372 553q0 -169 65.5 -247.5t161.5 -78.5q103 0 174 80.5t71 238.5q0 165 -68 245t-172 80q-101 0 -166.5 -78.5t-65.5 -239.5z" />
<glyph unicode="&#x11e;" horiz-adv-x="1593" d="M98 738q0 229 96 407t281 273q141 73 351 73q273 0 426.5 -114.5t197.5 -316.5l-294 -55q-31 108 -116.5 170.5t-213.5 62.5q-194 0 -308.5 -123t-114.5 -365q0 -261 116 -391.5t304 -130.5q93 0 186.5 36.5t160.5 88.5v186h-339v247h638v-584q-93 -90 -269.5 -158.5 t-357.5 -68.5q-230 0 -401 96.5t-257 276t-86 390.5zM532 1836h137q7 -71 50 -107.5t125 -36.5t125 36.5t50 107.5h137q-12 -136 -95.5 -213.5t-216.5 -77.5t-216.5 77.5t-95.5 213.5z" />
<glyph unicode="&#x11f;" horiz-adv-x="1251" d="M84 537q0 267 128.5 408t319.5 141q197 0 325 -173v149h263v-953q0 -188 -31 -281t-87 -146t-149.5 -83t-236.5 -30q-270 0 -383 92.5t-113 234.5q0 14 1 34l321 -39q8 -56 37 -77q40 -30 126 -30q110 0 165 33q37 22 56 71q13 35 13 129v155q-126 -172 -318 -172 q-214 0 -339 181q-98 143 -98 356zM287 1491h137q7 -71 50 -107.5t125 -36.5t125 36.5t50 107.5h137q-12 -136 -95.5 -213.5t-216.5 -77.5t-216.5 77.5t-95.5 213.5zM372 553q0 -169 65.5 -247.5t161.5 -78.5q103 0 174 80.5t71 238.5q0 165 -68 245t-172 80 q-101 0 -166.5 -78.5t-65.5 -239.5z" />
<glyph unicode="&#x120;" horiz-adv-x="1593" d="M98 738q0 229 96 407t281 273q141 73 351 73q273 0 426.5 -114.5t197.5 -316.5l-294 -55q-31 108 -116.5 170.5t-213.5 62.5q-194 0 -308.5 -123t-114.5 -365q0 -261 116 -391.5t304 -130.5q93 0 186.5 36.5t160.5 88.5v186h-339v247h638v-584q-93 -90 -269.5 -158.5 t-357.5 -68.5q-230 0 -401 96.5t-257 276t-86 390.5zM682 1598v266h276v-266h-276z" />
<glyph unicode="&#x121;" horiz-adv-x="1251" d="M84 537q0 267 128.5 408t319.5 141q197 0 325 -173v149h263v-953q0 -188 -31 -281t-87 -146t-149.5 -83t-236.5 -30q-270 0 -383 92.5t-113 234.5q0 14 1 34l321 -39q8 -56 37 -77q40 -30 126 -30q110 0 165 33q37 22 56 71q13 35 13 129v155q-126 -172 -318 -172 q-214 0 -339 181q-98 143 -98 356zM372 553q0 -169 65.5 -247.5t161.5 -78.5q103 0 174 80.5t71 238.5q0 165 -68 245t-172 80q-101 0 -166.5 -78.5t-65.5 -239.5zM489 1225v266h276v-266h-276z" />
<glyph unicode="&#x122;" horiz-adv-x="1593" d="M98 738q0 218 87.5 391t250 267.5t390.5 94.5q528 0 624 -431l-294 -55q-31 113 -120 173t-207 60q-201 0 -313.5 -125t-112.5 -363q0 -239 108 -380.5t312 -141.5q189 0 347 125v186h-339v247h638v-584q-81 -80 -248.5 -150t-336.5 -76q154 -44 154 -178 q0 -103 -98 -160t-247 -57q-133 0 -199 16v118q99 -11 185 -11q169 0 169 94q0 33 -30.5 58.5t-97.5 25.5q-62 0 -130 -20l25 99q38 14 101 22q-304 42 -461 250t-157 505z" />
<glyph unicode="&#x123;" horiz-adv-x="1251" d="M84 539q0 262 127 404.5t322 142.5q196 0 324 -173v149h263v-953q0 -206 -44 -317t-157.5 -167t-299.5 -56q-258 0 -378.5 86.5t-120.5 239.5q0 15 1 35l321 -39q6 -107 168 -107q100 0 148.5 26.5t64.5 70t16 136.5v155q-126 -172 -321 -172q-130 0 -234 76t-152 201.5 t-48 261.5zM372 547q0 -144 58 -232t171 -88q98 0 170.5 79.5t72.5 243.5q0 142 -61 231.5t-181 89.5q-112 0 -171 -89t-59 -235zM422 1189v90q0 116 20.5 177.5t80.5 109t162 75.5l38 -133q-74 -20 -102 -48.5t-34 -87.5h132v-183h-297z" />
<glyph unicode="&#x124;" horiz-adv-x="1479" d="M150 0v1466h296v-577h580v577h296v-1466h-296v641h-580v-641h-296zM401 1598l210 295h260l207 -295h-226l-116 149l-108 -149h-227z" />
<glyph unicode="&#x125;" horiz-adv-x="1251" d="M146 0v1466h281v-539q136 159 325 159q97 0 175 -36t117.5 -92t54 -124t14.5 -211v-623h-281v561q0 167 -16 212t-56.5 71.5t-101.5 26.5q-70 0 -125 -34t-80.5 -102.5t-25.5 -202.5v-532h-281zM288 1550l210 295h260l207 -295h-226l-116 149l-108 -149h-227z" />
<glyph unicode="&#x126;" horiz-adv-x="1479" d="M5 1084v186h145v196h295v-196h581v196h295v-196h145v-186h-145v-1084h-295v641h-581v-641h-295v1084h-145zM445 889h581v195h-581v-195z" />
<glyph unicode="&#x127;" horiz-adv-x="1251" d="M25 1175v187h121v104h281v-104h293v-187h-293v-248q135 159 329 159q125 0 211 -56.5t116.5 -143.5t30.5 -263v-623h-282v561q0 144 -11.5 196t-53.5 83t-110 31q-112 0 -171 -74t-59 -265v-532h-281v1175h-121z" />
<glyph unicode="&#x128;" horiz-adv-x="569" d="M-70 1632q0 105 51 161.5t131 56.5q35 0 65 -7.5t109.5 -43t124.5 -35.5q32 0 53.5 20t27.5 67h130q-1 -135 -50.5 -193t-127.5 -58q-34 0 -67 7q-23 6 -115 41t-134 35q-32 0 -50 -19.5t-19 -67.5h-128q-1 23 -1 36zM140 0v1466h296v-1466h-296z" />
<glyph unicode="&#x129;" horiz-adv-x="569" d="M-69 1241q0 105 51 161.5t131 56.5q35 0 65 -7.5t109.5 -43t124.5 -35.5q32 0 53.5 20t27.5 67h130q-1 -135 -50.5 -193t-127.5 -58q-34 0 -67 7q-23 6 -115 41t-134 35q-32 0 -50 -19.5t-19 -67.5h-128q-1 23 -1 36zM147 0v1062h281v-1062h-281z" />
<glyph unicode="&#x12a;" horiz-adv-x="569" d="M-38 1598v185h644v-185h-644zM140 0v1466h296v-1466h-296z" />
<glyph unicode="&#x12b;" horiz-adv-x="569" d="M-38 1237v185h644v-185h-644zM147 0v1062h281v-1062h-281z" />
<glyph unicode="&#x12c;" horiz-adv-x="569" d="M-31 1880h137q7 -71 50 -107.5t125 -36.5t125 36.5t50 107.5h137q-12 -136 -95.5 -213.5t-216.5 -77.5t-216.5 77.5t-95.5 213.5zM140 0v1466h296v-1466h-296z" />
<glyph unicode="&#x12d;" horiz-adv-x="569" d="M-30 1491h137q7 -71 50 -107.5t125 -36.5t125 36.5t50 107.5h137q-12 -136 -95.5 -213.5t-216.5 -77.5t-216.5 77.5t-95.5 213.5zM147 0v1062h281v-1062h-281z" />
<glyph unicode="&#x12e;" horiz-adv-x="569" d="M110 -193q0 73 30 193v1466h295v-1466h-147q-13 -57 -13 -117q0 -160 144 -160q60 0 136 24v-135q-100 -43 -201 -43q-109 0 -176.5 62t-67.5 176z" />
<glyph unicode="&#x12f;" horiz-adv-x="569" d="M117 -195q0 85 30 195v1062h281v-1062h-133q-13 -60 -13 -117q0 -160 144 -160q60 0 136 24v-135q-100 -43 -201 -43q-110 0 -177 62.5t-67 173.5zM147 1206v260h281v-260h-281z" />
<glyph unicode="&#x130;" horiz-adv-x="569" d="M140 0v1466h296v-1466h-296zM151 1550v266h276v-266h-276z" />
<glyph unicode="&#x131;" horiz-adv-x="569" d="M147 0v1062h281v-1062h-281z" />
<glyph unicode="&#x132;" horiz-adv-x="1607" d="M140 0v1466h296v-1466h-296zM512 453l279 32q5 -126 37 -178q48 -79 146 -79q99 0 140 56.5t41 234.5v947h295v-928q0 -182 -32 -280q-43 -128 -156 -205.5t-298 -77.5q-217 0 -334 121.5t-118 356.5z" />
<glyph unicode="&#x133;" d="M147 0v1062h281v-1062h-281zM147 1206v260h281v-260h-281zM462 -401l49 240q20 -4 37.5 -6.5t32.5 -2.5q43 0 70.5 18.5t36.5 44.5t9 156v1013h281v-1029q0 -203 -26.5 -286.5t-102 -130.5t-192.5 -47q-42 0 -90.5 7.5t-104.5 22.5zM697 1206v260h281v-260h-281z" />
<glyph unicode="&#x134;" d="M35 453l279 32q5 -126 37 -178q48 -79 146 -79q99 0 140 56.5t41 234.5v947h295v-928q0 -182 -32 -280q-43 -128 -156 -205.5t-298 -77.5q-217 0 -334 121.5t-118 356.5zM486 1598l210 295h260l207 -295h-226l-116 149l-108 -149h-227z" />
<glyph unicode="&#x135;" horiz-adv-x="569" d="M-94 -401l49 240q38 -9 70 -9q47 0 76 22t34.5 56t5.5 141v1013h281v-1029q0 -185 -22 -272t-96.5 -139.5t-204.5 -52.5q-82 0 -193 30zM-54 1196l210 295h260l207 -295h-225l-116 149l-108 -149h-228z" />
<glyph unicode="&#x136;" horiz-adv-x="1479" d="M153 0v1466h296v-651l598 651h398l-552 -571l582 -895h-383l-403 688l-240 -245v-443h-296zM436 -284q81 -11 161 -11q189 0 189 85q0 67 -148 67q-23 0 -53 -3v119q58 7 111 7q285 0 285 -182q0 -99 -94 -159t-281 -60q-86 0 -170 16v121z" />
<glyph unicode="&#x137;" d="M137 0v1466h281v-778l329 374h346l-363 -388l389 -674h-303l-267 477l-131 -137v-340h-281zM300 -284q81 -11 161 -11q189 0 189 85q0 67 -148 67q-23 0 -53 -3v119q58 7 111 7q285 0 285 -182q0 -99 -94 -159t-281 -60q-86 0 -170 16v121z" />
<glyph unicode="&#x138;" d="M141 0v1062h281v-374l329 374h346l-363 -388l389 -674h-303l-267 477l-131 -137v-340h-281z" />
<glyph unicode="&#x139;" horiz-adv-x="1251" d="M157 0v1454h296v-1207h736v-247h-1032zM430 1550l138 299h315l-275 -299h-178z" />
<glyph unicode="&#x13a;" horiz-adv-x="569" d="M121 1541l138 299h315l-275 -299h-178zM147 0v1466h281v-1466h-281z" />
<glyph unicode="&#x13b;" horiz-adv-x="1251" d="M157 0v1454h296v-1207h736v-247h-1032zM322 -284q81 -11 161 -11q189 0 189 85q0 67 -148 67q-23 0 -53 -3v119q58 7 111 7q285 0 285 -182q0 -99 -94 -159t-281 -60q-86 0 -170 16v121z" />
<glyph unicode="&#x13c;" horiz-adv-x="569" d="M-19 -284q81 -11 161 -11q189 0 189 85q0 67 -148 67q-23 0 -53 -3v119q58 7 111 7q285 0 285 -182q0 -99 -94 -159t-281 -60q-86 0 -170 16v121zM147 0v1466h281v-1466h-281z" />
<glyph unicode="&#x13d;" horiz-adv-x="1251" d="M157 0v1454h296v-1207h736v-247h-1032zM816 962q84 28 120.5 77t38.5 134h-136v281h281v-202q0 -122 -21 -192t-79.5 -126.5t-148.5 -88.5z" />
<glyph unicode="&#x13e;" horiz-adv-x="789" d="M149 0v1466h281v-1466h-281zM510 1023q76 25 109.5 70t33.5 120h-122v253h253v-181q0 -112 -20 -176t-74 -114t-130 -77z" />
<glyph unicode="&#x13f;" horiz-adv-x="1251" d="M157 0v1454h296v-1207h736v-247h-1032zM775 573v281h281v-281h-281z" />
<glyph unicode="&#x140;" horiz-adv-x="981" d="M147 0v1466h281v-1466h-281zM557 573v281h281v-281h-281z" />
<glyph unicode="&#x141;" horiz-adv-x="1251" d="M10 365v237l155 130v734h295v-485l329 276v-242l-329 -275v-493h737v-247h-1032v494z" />
<glyph unicode="&#x142;" horiz-adv-x="569" d="M10 414v190l137 116v746h281v-507l137 116v-190l-137 -116v-769h-281v530z" />
<glyph unicode="&#x143;" horiz-adv-x="1479" d="M152 0v1466h288l600 -979v979h275v-1466h-297l-591 956v-956h-275zM555 1550l138 299h315l-275 -299h-178z" />
<glyph unicode="&#x144;" horiz-adv-x="1251" d="M145 0v1062h261v-156q139 180 350 180q93 0 170 -33.5t116.5 -85.5t55 -118t15.5 -189v-660h-281v542q0 172 -18 222.5t-58.5 78.5t-97.5 28q-73 0 -131 -40t-79.5 -106t-21.5 -244v-481h-281zM475 1192l138 299h315l-275 -299h-178z" />
<glyph unicode="&#x145;" horiz-adv-x="1479" d="M152 0v1466h288l600 -979v979h275v-1466h-297l-591 956v-956h-275zM436 -284q81 -11 161 -11q189 0 189 85q0 67 -148 67q-23 0 -53 -3v119q58 7 111 7q285 0 285 -182q0 -99 -94 -159t-281 -60q-86 0 -170 16v121z" />
<glyph unicode="&#x146;" horiz-adv-x="1251" d="M145 0v1062h261v-156q139 180 350 180q93 0 170 -33.5t116.5 -85.5t55 -118t15.5 -189v-660h-281v542q0 172 -18 222.5t-58.5 78.5t-97.5 28q-73 0 -131 -40t-79.5 -106t-21.5 -244v-481h-281zM322 -284q81 -11 161 -11q189 0 189 85q0 67 -148 67q-23 0 -53 -3v119 q58 7 111 7q285 0 285 -182q0 -99 -94 -159t-281 -60q-86 0 -170 16v121z" />
<glyph unicode="&#x147;" horiz-adv-x="1479" d="M152 0v1466h288l600 -979v979h275v-1466h-297l-591 956v-956h-275zM378 1851h227l108 -149l116 149h226l-207 -295h-260z" />
<glyph unicode="&#x148;" horiz-adv-x="1251" d="M145 0v1062h261v-156q139 180 350 180q93 0 170 -33.5t116.5 -85.5t55 -118t15.5 -189v-660h-281v542q0 172 -18 222.5t-58.5 78.5t-97.5 28q-73 0 -131 -40t-79.5 -106t-21.5 -244v-481h-281zM290 1491h227l108 -149l116 149h226l-207 -295h-260z" />
<glyph unicode="&#x149;" horiz-adv-x="1451" d="M-57 974q85 28 121 77t38 134h-136v281h281v-201q0 -122 -21 -192.5t-79.5 -126.5t-148.5 -88zM333 0v1062h261v-156q139 180 350 180q93 0 170 -33.5t116.5 -85.5t55 -118t15.5 -189v-660h-281v542q0 172 -18 222.5t-58.5 78.5t-97.5 28q-73 0 -131 -40t-79.5 -106 t-21.5 -244v-481h-281z" />
<glyph unicode="&#x14a;" horiz-adv-x="1481" d="M156 0v1466h294v-209q208 234 475 234q163 0 266 -91.5t148 -247t45 -430.5q0 -331 -43 -466.5t-133 -208.5t-247 -73q-168 0 -290 69l89 219q92 -39 160 -39q84 0 120 92.5t36 352.5q0 365 -76 464t-207 99q-113 0 -201 -66t-115 -143.5t-27 -220.5v-801h-294z" />
<glyph unicode="&#x14b;" horiz-adv-x="1251" d="M142 0v1062h261v-156q139 180 352 180q123 0 207.5 -53.5t116 -135.5t31.5 -237v-607q0 -206 -19.5 -293t-101 -141.5t-213.5 -54.5q-80 0 -182 35l51 247q52 -16 86 -16q54 0 75.5 40t21.5 137l1 535q0 142 -11.5 199.5t-55 94t-109.5 36.5q-70 0 -132 -43.5t-80 -116 t-18 -231.5v-481h-281z" />
<glyph unicode="&#x14c;" horiz-adv-x="1593" d="M89 724q0 224 67 376q50 112 136.5 201t189.5 132q137 58 316 58q324 0 518.5 -201t194.5 -559q0 -355 -193 -555.5t-516 -200.5q-327 0 -520 199.5t-193 549.5zM394 734q0 -249 115 -377.5t292 -128.5t290.5 127.5t113.5 382.5q0 252 -110.5 376t-293.5 124t-295 -125.5 t-112 -378.5zM474 1598v185h644v-185h-644z" />
<glyph unicode="&#x14d;" horiz-adv-x="1251" d="M82 546q0 140 69 271t195.5 200t282.5 69q241 0 395 -156.5t154 -395.5q0 -241 -155.5 -399.5t-391.5 -158.5q-146 0 -278.5 66t-201.5 193.5t-69 310.5zM303 1237v185h644v-185h-644zM370 531q0 -158 75 -242t185 -84t184.5 84t74.5 244q0 156 -74.5 240t-184.5 84 t-185 -84t-75 -242z" />
<glyph unicode="&#x14e;" horiz-adv-x="1593" d="M89 724q0 224 67 376q50 112 136.5 201t189.5 132q137 58 316 58q324 0 518.5 -201t194.5 -559q0 -355 -193 -555.5t-516 -200.5q-327 0 -520 199.5t-193 549.5zM394 734q0 -249 115 -377.5t292 -128.5t290.5 127.5t113.5 382.5q0 252 -110.5 376t-293.5 124t-295 -125.5 t-112 -378.5zM481 1880h137q7 -71 50 -107.5t125 -36.5t125 36.5t50 107.5h137q-12 -136 -95.5 -213.5t-216.5 -77.5t-216.5 77.5t-95.5 213.5z" />
<glyph unicode="&#x14f;" horiz-adv-x="1251" d="M82 546q0 140 69 271t195.5 200t282.5 69q241 0 395 -156.5t154 -395.5q0 -241 -155.5 -399.5t-391.5 -158.5q-146 0 -278.5 66t-201.5 193.5t-69 310.5zM311 1491h137q7 -71 50 -107.5t125 -36.5t125 36.5t50 107.5h137q-12 -136 -95.5 -213.5t-216.5 -77.5t-216.5 77.5 t-95.5 213.5zM370 531q0 -158 75 -242t185 -84t184.5 84t74.5 244q0 156 -74.5 240t-184.5 84t-185 -84t-75 -242z" />
<glyph unicode="&#x150;" horiz-adv-x="1593" d="M89 724q0 224 67 376q50 112 136.5 201t189.5 132q137 58 316 58q324 0 518.5 -201t194.5 -559q0 -355 -193 -555.5t-516 -200.5q-327 0 -520 199.5t-193 549.5zM394 734q0 -249 115 -377.5t292 -128.5t290.5 127.5t113.5 382.5q0 252 -110.5 376t-293.5 124t-295 -125.5 t-112 -378.5zM480 1550l139 298h294l-257 -298h-176zM856 1550l141 298h286l-247 -298h-180z" />
<glyph unicode="&#x151;" horiz-adv-x="1251" d="M82 546q0 140 69 271t195.5 200t282.5 69q241 0 395 -156.5t154 -395.5q0 -241 -155.5 -399.5t-391.5 -158.5q-146 0 -278.5 66t-201.5 193.5t-69 310.5zM285 1197l139 298h294l-257 -298h-176zM370 531q0 -158 75 -242t185 -84t184.5 84t74.5 244q0 156 -74.5 240 t-184.5 84t-185 -84t-75 -242zM661 1197l141 298h286l-247 -298h-180z" />
<glyph unicode="&#x152;" horiz-adv-x="2048" d="M72 735q0 378 175 581q150 175 397 175q125 0 229.5 -51t168.5 -136v162h915v-248h-658v-326h602v-248h-602v-395h686v-249h-943v173q-115 -198 -384 -198q-261 0 -407 170q-179 208 -179 590zM377 757q0 -297 99 -425q75 -97 225 -97q181 0 252.5 137.5t71.5 378.5 q0 269 -87.5 378t-236.5 109q-148 0 -236 -109t-88 -372z" />
<glyph unicode="&#x153;" horiz-adv-x="1933" d="M88 529q0 149 65.5 284t192.5 204t285 69q111 0 203.5 -37t167.5 -111q69 74 157.5 111t196.5 37q101 0 186.5 -34t141 -85.5t94 -128t55.5 -173t16 -217.5h-699q10 -129 71 -193.5t153 -64.5q66 0 112.5 35t75.5 116l274 -44q-49 -151 -169.5 -236t-293.5 -85 q-101 0 -200 36t-174 112q-79 -74 -172 -111t-201 -37q-233 0 -385.5 155.5t-152.5 397.5zM377 515q0 -107 63.5 -206.5t187.5 -99.5q104 0 174.5 82.5t70.5 248.5q0 151 -70.5 232t-174.5 81q-110 0 -180.5 -83t-70.5 -255zM1153 624h426q-8 130 -68 192.5t-150 62.5 q-99 0 -157 -80q-41 -56 -51 -175z" />
<glyph unicode="&#x154;" horiz-adv-x="1479" d="M150 0v1466h623q235 0 341.5 -39.5t170.5 -140.5t64 -231q0 -165 -97 -272.5t-290 -135.5q96 -56 158.5 -123t168.5 -238l179 -286h-354l-214 319q-114 171 -156 215.5t-89 61t-149 16.5h-60v-612h-296zM446 846h219q213 0 266 18t83 62t30 110q0 74 -39.5 119.5 t-111.5 57.5q-36 5 -216 5h-231v-372zM469 1550l138 299h315l-275 -299h-178z" />
<glyph unicode="&#x155;" horiz-adv-x="797" d="M135 0v1062h261v-151q67 107 120.5 141t121.5 34q96 0 185 -53l-87 -245q-71 46 -132 46q-59 0 -100 -32.5t-64.5 -117.5t-23.5 -356v-328h-281zM276 1192l138 299h315l-275 -299h-178z" />
<glyph unicode="&#x156;" horiz-adv-x="1479" d="M150 0v1466h623q235 0 341.5 -39.5t170.5 -140.5t64 -231q0 -165 -97 -272.5t-290 -135.5q96 -56 158.5 -123t168.5 -238l179 -286h-354l-214 319q-114 171 -156 215.5t-89 61t-149 16.5h-60v-612h-296zM436 -284q81 -11 161 -11q189 0 189 85q0 67 -148 67q-23 0 -53 -3 v119q58 7 111 7q285 0 285 -182q0 -99 -94 -159t-281 -60q-86 0 -170 16v121zM446 846h219q213 0 266 18t83 62t30 110q0 74 -39.5 119.5t-111.5 57.5q-36 5 -216 5h-231v-372z" />
<glyph unicode="&#x157;" horiz-adv-x="797" d="M42 -284q81 -11 161 -11q189 0 189 85q0 67 -148 67q-23 0 -53 -3v119q58 7 111 7q285 0 285 -182q0 -99 -94 -159t-281 -60q-86 0 -170 16v121zM135 0v1062h261v-151q67 107 120.5 141t121.5 34q96 0 185 -53l-87 -245q-71 46 -132 46q-59 0 -100 -32.5t-64.5 -117.5 t-23.5 -356v-328h-281z" />
<glyph unicode="&#x158;" horiz-adv-x="1479" d="M150 0v1466h623q235 0 341.5 -39.5t170.5 -140.5t64 -231q0 -165 -97 -272.5t-290 -135.5q96 -56 158.5 -123t168.5 -238l179 -286h-354l-214 319q-114 171 -156 215.5t-89 61t-149 16.5h-60v-612h-296zM298 1851h227l108 -149l116 149h226l-207 -295h-260zM446 846h219 q213 0 266 18t83 62t30 110q0 74 -39.5 119.5t-111.5 57.5q-36 5 -216 5h-231v-372z" />
<glyph unicode="&#x159;" horiz-adv-x="797" d="M80 1491h227l108 -149l116 149h226l-207 -295h-260zM135 0v1062h261v-151q67 107 120.5 141t121.5 34q96 0 185 -53l-87 -245q-71 46 -132 46q-59 0 -100 -32.5t-64.5 -117.5t-23.5 -356v-328h-281z" />
<glyph unicode="&#x15a;" horiz-adv-x="1366" d="M74 477l288 28q26 -145 105.5 -213t214.5 -68q143 0 215.5 60.5t72.5 141.5q0 52 -30.5 88.5t-106.5 63.5q-52 18 -237 64q-238 59 -334 145q-135 121 -135 295q0 112 63.5 209.5t183 148.5t288.5 51q276 0 415.5 -121t146.5 -323l-296 -13q-19 113 -81.5 162.5 t-187.5 49.5q-129 0 -202 -53q-47 -34 -47 -91q0 -52 44 -89q56 -47 272 -98t319.5 -105.5t162 -149t58.5 -233.5q0 -126 -70 -236t-198 -163.5t-319 -53.5q-278 0 -427 128.5t-178 374.5zM551 1550l138 299h315l-275 -299h-178z" />
<glyph unicode="&#x15b;" d="M48 303l282 43q18 -82 73 -124.5t154 -42.5q109 0 164 40q37 28 37 75q0 32 -20 53q-21 20 -94 37q-340 75 -431 137q-126 86 -126 239q0 138 109 232t338 94q218 0 324 -71t146 -210l-265 -49q-17 62 -64.5 95t-135.5 33q-111 0 -159 -31q-32 -22 -32 -57q0 -30 28 -51 q38 -28 262.5 -79t313.5 -125q88 -75 88 -209q0 -146 -122 -251t-361 -105q-217 0 -343.5 88t-165.5 239zM454 1192l138 299h315l-275 -299h-178z" />
<glyph unicode="&#x15c;" horiz-adv-x="1366" d="M74 477l288 28q26 -145 105.5 -213t214.5 -68q143 0 215.5 60.5t72.5 141.5q0 52 -30.5 88.5t-106.5 63.5q-52 18 -237 64q-238 59 -334 145q-135 121 -135 295q0 112 63.5 209.5t183 148.5t288.5 51q276 0 415.5 -121t146.5 -323l-296 -13q-19 113 -81.5 162.5 t-187.5 49.5q-129 0 -202 -53q-47 -34 -47 -91q0 -52 44 -89q56 -47 272 -98t319.5 -105.5t162 -149t58.5 -233.5q0 -126 -70 -236t-198 -163.5t-319 -53.5q-278 0 -427 128.5t-178 374.5zM345 1598l210 295h260l207 -295h-226l-116 149l-108 -149h-227z" />
<glyph unicode="&#x15d;" d="M48 303l282 43q18 -82 73 -124.5t154 -42.5q109 0 164 40q37 28 37 75q0 32 -20 53q-21 20 -94 37q-340 75 -431 137q-126 86 -126 239q0 138 109 232t338 94q218 0 324 -71t146 -210l-265 -49q-17 62 -64.5 95t-135.5 33q-111 0 -159 -31q-32 -22 -32 -57q0 -30 28 -51 q38 -28 262.5 -79t313.5 -125q88 -75 88 -209q0 -146 -122 -251t-361 -105q-217 0 -343.5 88t-165.5 239zM232 1196l210 295h260l207 -295h-226l-116 149l-108 -149h-227z" />
<glyph unicode="&#x15e;" horiz-adv-x="1366" d="M74 477l288 28q26 -145 105.5 -213t214.5 -68q143 0 215.5 60.5t72.5 141.5q0 52 -30.5 88.5t-106.5 63.5q-52 18 -237 64q-238 59 -334 145q-135 121 -135 295q0 112 63.5 209.5t183 148.5t288.5 51q276 0 415.5 -121t146.5 -323l-296 -13q-19 113 -81.5 162.5 t-187.5 49.5q-129 0 -202 -53q-47 -34 -47 -91q0 -52 44 -89q56 -47 272 -98t319.5 -105.5t162 -149t58.5 -233.5q0 -126 -70 -236t-198 -163.5t-319 -53.5q-278 0 -427 128.5t-178 374.5zM411 -285q103 -11 189 -11q89 0 132 32q33 24 33 62q0 34 -31 59t-96 25 q-64 0 -131 -20l26 99q78 27 168 27q125 0 190 -55t65 -134q0 -88 -72 -143q-97 -75 -278 -75q-129 0 -195 16v118z" />
<glyph unicode="&#x15f;" d="M48 303l282 43q18 -82 73 -124.5t154 -42.5q109 0 164 40q37 28 37 75q0 32 -20 53q-21 20 -94 37q-340 75 -431 137q-126 86 -126 239q0 138 109 232t338 94q218 0 324 -71t146 -210l-265 -49q-17 62 -64.5 95t-135.5 33q-111 0 -159 -31q-32 -22 -32 -57q0 -30 28 -51 q38 -28 262.5 -79t313.5 -125q88 -75 88 -209q0 -146 -122 -251t-361 -105q-217 0 -343.5 88t-165.5 239zM316 -285q103 -11 189 -11q89 0 132 32q33 24 33 62q0 34 -31 59t-96 25q-64 0 -131 -20l26 99q78 27 168 27q125 0 190 -55t65 -134q0 -88 -72 -143 q-97 -75 -278 -75q-129 0 -195 16v118z" />
<glyph unicode="&#x160;" horiz-adv-x="1366" d="M74 477l288 28q26 -145 105.5 -213t214.5 -68q143 0 215.5 60.5t72.5 141.5q0 52 -30.5 88.5t-106.5 63.5q-52 18 -237 64q-238 59 -334 145q-135 121 -135 295q0 112 63.5 209.5t183 148.5t288.5 51q276 0 415.5 -121t146.5 -323l-296 -13q-19 113 -81.5 162.5 t-187.5 49.5q-129 0 -202 -53q-47 -34 -47 -91q0 -52 44 -89q56 -47 272 -98t319.5 -105.5t162 -149t58.5 -233.5q0 -126 -70 -236t-198 -163.5t-319 -53.5q-278 0 -427 128.5t-178 374.5zM334 1851h227l108 -149l116 149h226l-207 -295h-260z" />
<glyph unicode="&#x161;" d="M48 303l282 43q18 -82 73 -124.5t154 -42.5q109 0 164 40q37 28 37 75q0 32 -20 53q-21 20 -94 37q-340 75 -431 137q-126 86 -126 239q0 138 109 232t338 94q218 0 324 -71t146 -210l-265 -49q-17 62 -64.5 95t-135.5 33q-111 0 -159 -31q-32 -22 -32 -57q0 -30 28 -51 q38 -28 262.5 -79t313.5 -125q88 -75 88 -209q0 -146 -122 -251t-361 -105q-217 0 -343.5 88t-165.5 239zM205 1491h227l108 -149l116 149h226l-207 -295h-260z" />
<glyph unicode="&#x162;" horiz-adv-x="1251" d="M44 1218v248h1165v-248h-434v-1218h-296v1218h-435zM474 -537q67 23 102.5 55.5t52.5 79.5h-135v281h281v-201q0 -120 -62 -203.5t-184 -127.5z" />
<glyph unicode="&#x163;" horiz-adv-x="682" d="M31 838v224h129v211l282 164v-375h192v-224h-192v-428q0 -130 5.5 -151.5t25 -35.5t47.5 -14q39 0 113 27l24 -218q-98 -42 -222 -42q-76 0 -137 25.5t-89.5 66t-39.5 109.5q-9 49 -9 198v463h-129zM251 -495q108 35 140 121h-122v253h253v-181q0 -107 -55 -182 t-166 -116z" />
<glyph unicode="&#x164;" horiz-adv-x="1251" d="M44 1218v248h1165v-248h-434v-1218h-296v1218h-435zM273 1851h227l108 -149l116 149h226l-207 -295h-260z" />
<glyph unicode="&#x165;" horiz-adv-x="981" d="M30 838v224h129v211l282 164v-375h192v-224h-192v-428q0 -130 5.5 -151.5t25 -35.5t47.5 -14q39 0 113 27l24 -218q-98 -42 -222 -42q-76 0 -137 25.5t-89.5 66t-39.5 109.5q-9 49 -9 198v463h-129zM709 1023q76 25 109.5 70t33.5 120h-122v253h253v-181q0 -112 -20 -176 t-74 -114t-130 -77z" />
<glyph unicode="&#x166;" horiz-adv-x="1251" d="M44 1218v248h1165v-248h-434v-479h314v-187h-314v-552h-296v552h-314v187h314v479h-435z" />
<glyph unicode="&#x167;" horiz-adv-x="682" d="M7 432v174h140v232h-130v224h130v211l281 164v-375h192v-224h-192v-232h176v-174h-176v-24q0 -110 2.5 -135.5t22 -44.5t53.5 -19q39 0 113 27l24 -218q-98 -42 -222 -42q-108 0 -172.5 43t-83 111t-18.5 245v57h-140z" />
<glyph unicode="&#x168;" horiz-adv-x="1479" d="M147 684v782h296v-794q0 -189 11 -245q19 -90 90.5 -144.5t195.5 -54.5q126 0 190 51.5t77 126.5t13 249v811h296v-770q0 -264 -24 -373t-88.5 -184t-172.5 -119.5t-282 -44.5q-210 0 -318.5 48.5t-171.5 126t-83 162.5q-29 126 -29 372zM386 1632q0 105 51 161.5 t131 56.5q35 0 65 -7.5t109.5 -43t124.5 -35.5q32 0 53.5 20t27.5 67h130q-1 -135 -50.5 -193t-127.5 -58q-34 0 -67 7q-23 6 -115 41t-134 35q-32 0 -50 -19.5t-19 -67.5h-128q-1 23 -1 36z" />
<glyph unicode="&#x169;" horiz-adv-x="1251" d="M141 390v672h281v-488q0 -224 15.5 -274.5t56.5 -80t104 -29.5q72 0 129 39.5t78 98t21 286.5v448h281v-1062h-261v159q-58 -85 -152.5 -134t-199.5 -49q-107 0 -192 47t-123 132t-38 235zM272 1241q0 105 51 161.5t131 56.5q35 0 65 -7.5t109.5 -43t124.5 -35.5 q32 0 53.5 20t27.5 67h130q-1 -135 -50.5 -193t-127.5 -58q-34 0 -67 7q-23 6 -115 41t-134 35q-32 0 -50 -19.5t-19 -67.5h-128q-1 23 -1 36z" />
<glyph unicode="&#x16a;" horiz-adv-x="1479" d="M147 684v782h296v-794q0 -189 11 -245q19 -90 90.5 -144.5t195.5 -54.5q126 0 190 51.5t77 126.5t13 249v811h296v-770q0 -264 -24 -373t-88.5 -184t-172.5 -119.5t-282 -44.5q-210 0 -318.5 48.5t-171.5 126t-83 162.5q-29 126 -29 372zM417 1598v185h644v-185h-644z " />
<glyph unicode="&#x16b;" horiz-adv-x="1251" d="M141 390v672h281v-488q0 -224 15.5 -274.5t56.5 -80t104 -29.5q72 0 129 39.5t78 98t21 286.5v448h281v-1062h-261v159q-58 -85 -152.5 -134t-199.5 -49q-107 0 -192 47t-123 132t-38 235zM303 1237v185h644v-185h-644z" />
<glyph unicode="&#x16c;" horiz-adv-x="1479" d="M147 684v782h296v-794q0 -189 11 -245q19 -90 90.5 -144.5t195.5 -54.5q126 0 190 51.5t77 126.5t13 249v811h296v-770q0 -264 -24 -373t-88.5 -184t-172.5 -119.5t-282 -44.5q-210 0 -318.5 48.5t-171.5 126t-83 162.5q-29 126 -29 372zM425 1880h137q7 -71 50 -107.5 t125 -36.5t125 36.5t50 107.5h137q-12 -136 -95.5 -213.5t-216.5 -77.5t-216.5 77.5t-95.5 213.5z" />
<glyph unicode="&#x16d;" horiz-adv-x="1251" d="M141 390v672h281v-488q0 -224 15.5 -274.5t56.5 -80t104 -29.5q72 0 129 39.5t78 98t21 286.5v448h281v-1062h-261v159q-58 -85 -152.5 -134t-199.5 -49q-107 0 -192 47t-123 132t-38 235zM311 1491h137q7 -71 50 -107.5t125 -36.5t125 36.5t50 107.5h137 q-12 -136 -95.5 -213.5t-216.5 -77.5t-216.5 77.5t-95.5 213.5z" />
<glyph unicode="&#x16e;" horiz-adv-x="1479" d="M147 684v782h296v-794q0 -189 11 -245q19 -90 90.5 -144.5t195.5 -54.5q126 0 190 51.5t77 126.5t13 249v811h296v-770q0 -264 -24 -373t-88.5 -184t-172.5 -119.5t-282 -44.5q-210 0 -318.5 48.5t-171.5 126t-83 162.5q-29 126 -29 372zM536 1687q0 81 57.5 138.5 t138.5 57.5t138.5 -57t57.5 -139q0 -81 -57.5 -138.5t-138.5 -57.5t-138.5 57.5t-57.5 138.5zM643 1687q0 -37 26 -63t63 -26t63 26t26 63t-26 63t-63 26t-63 -26t-26 -63z" />
<glyph unicode="&#x16f;" horiz-adv-x="1251" d="M141 390v672h281v-488q0 -224 15.5 -274.5t56.5 -80t104 -29.5q72 0 129 39.5t78 98t21 286.5v448h281v-1062h-261v159q-58 -85 -152.5 -134t-199.5 -49q-107 0 -192 47t-123 132t-38 235zM428 1342q0 81 57.5 138.5t138.5 57.5t138.5 -57t57.5 -139q0 -81 -57.5 -138.5 t-138.5 -57.5t-138.5 57.5t-57.5 138.5zM535 1342q0 -37 26 -63t63 -26t63 26t26 63t-26 63t-63 26t-63 -26t-26 -63z" />
<glyph unicode="&#x170;" horiz-adv-x="1479" d="M147 684v782h296v-794q0 -189 11 -245q19 -90 90.5 -144.5t195.5 -54.5q126 0 190 51.5t77 126.5t13 249v811h296v-770q0 -264 -24 -373t-88.5 -184t-172.5 -119.5t-282 -44.5q-210 0 -318.5 48.5t-171.5 126t-83 162.5q-29 126 -29 372zM422 1550l139 298h294l-257 -298 h-176zM798 1550l141 298h286l-247 -298h-180z" />
<glyph unicode="&#x171;" horiz-adv-x="1251" d="M141 390v672h281v-488q0 -224 15.5 -274.5t56.5 -80t104 -29.5q72 0 129 39.5t78 98t21 286.5v448h281v-1062h-261v159q-58 -85 -152.5 -134t-199.5 -49q-107 0 -192 47t-123 132t-38 235zM319 1197l139 298h294l-257 -298h-176zM695 1197l141 298h286l-247 -298h-180z " />
<glyph unicode="&#x172;" horiz-adv-x="1479" d="M147 684v782h296v-794q0 -186 15 -260.5t87 -129t195 -54.5q121 0 187 49.5t79.5 124.5t13.5 253v811h296v-770q0 -297 -38 -426.5t-164 -207t-338 -87.5q-8 -54 -8 -91q0 -161 144 -161q60 0 136 24v-135q-101 -43 -201 -43q-109 0 -176.5 62t-67.5 177q0 67 25 172 q-169 15 -282.5 91t-156 196.5t-42.5 416.5z" />
<glyph unicode="&#x173;" horiz-adv-x="1251" d="M141 390v672h281v-488q0 -181 8.5 -243.5t51 -101t117.5 -38.5q82 0 140 47t72.5 112.5t14.5 263.5v448h281v-1062h-112q-13 -54 -13 -120q0 -159 143 -159q61 0 137 25v-136q-101 -43 -201 -43q-104 0 -174 60.5t-70 177.5q0 70 29 195v159q-55 -82 -150.5 -132.5 t-202.5 -50.5q-117 0 -200.5 52t-117.5 135t-34 227z" />
<glyph unicode="&#x174;" horiz-adv-x="1933" d="M7 1466h303l221 -1007l268 1007h352l257 -1024l225 1024h298l-356 -1466h-314l-292 1096l-291 -1096h-321zM628 1598l210 295h260l207 -295h-226l-116 149l-108 -149h-227z" />
<glyph unicode="&#x175;" horiz-adv-x="1593" d="M9 1062h273l199 -696l183 696h271l177 -696l203 696h277l-341 -1062h-270l-183 683l-180 -683h-273zM459 1196l210 295h260l207 -295h-226l-116 149l-108 -149h-227z" />
<glyph unicode="&#x176;" horiz-adv-x="1366" d="M-3 1466h347l345 -580l338 580h341l-539 -851v-615h-295v617zM354 1598l210 295h260l207 -295h-226l-116 149l-108 -149h-227z" />
<glyph unicode="&#x177;" d="M14 1062h299l254 -754l248 754h291l-375 -1022l-67 -185q-37 -93 -70.5 -142t-77 -79.5t-107 -47.5t-143.5 -17q-81 0 -159 17l-25 220q66 -13 119 -13q98 0 145 57.5t72 146.5zM231 1196l210 295h260l207 -295h-226l-116 149l-108 -149h-227z" />
<glyph unicode="&#x178;" horiz-adv-x="1366" d="M-3 1466h347l345 -580l338 580h341l-539 -851v-615h-295v617zM350 1550v241h241v-241h-241zM780 1550v241h242v-241h-242z" />
<glyph unicode="&#x179;" horiz-adv-x="1251" d="M22 0v267l770 951h-683v248h1073v-230l-803 -989h834v-247h-1191zM435 1550l138 299h315l-275 -299h-178z" />
<glyph unicode="&#x17a;" horiz-adv-x="1024" d="M34 0v219l398 457q98 112 145 159q-49 -3 -129 -4l-375 -2v233h878v-199l-406 -468l-143 -155q117 7 145 7h435v-247h-948zM318 1192l138 299h315l-275 -299h-178z" />
<glyph unicode="&#x17b;" horiz-adv-x="1251" d="M22 0v267l770 951h-683v248h1073v-230l-803 -989h834v-247h-1191zM505 1557v266h276v-266h-276z" />
<glyph unicode="&#x17c;" horiz-adv-x="1024" d="M34 0v219l398 457q98 112 145 159q-49 -3 -129 -4l-375 -2v233h878v-199l-406 -468l-143 -155q117 7 145 7h435v-247h-948zM360 1225v266h276v-266h-276z" />
<glyph unicode="&#x17d;" horiz-adv-x="1251" d="M22 0v267l770 951h-683v248h1073v-230l-803 -989h834v-247h-1191zM271 1851h227l108 -149l116 149h226l-207 -295h-260z" />
<glyph unicode="&#x17e;" horiz-adv-x="1024" d="M34 0v219l398 457q98 112 145 159q-49 -3 -129 -4l-375 -2v233h878v-199l-406 -468l-143 -155q117 7 145 7h435v-247h-948zM170 1491h227l108 -149l116 149h226l-207 -295h-260z" />
<glyph unicode="&#x17f;" horiz-adv-x="569" d="M141 0v1142q0 134 30 203t109.5 107.5t185.5 38.5q122 0 237 -36l-38 -196q-67 16 -131 16q-62 0 -87 -30t-25 -108v-1137h-281z" />
<glyph unicode="&#x18f;" horiz-adv-x="1487" d="M89 725q0 45 11 129h992q-18 166 -103 267q-96 114 -255 114q-241 0 -314 -241l-293 67q49 213 216 325q156 105 382 105q328 0 511 -223q169 -207 169 -543q0 -461 -313 -658q-146 -92 -352 -92q-231 0 -378 120q-273 224 -273 630zM402 608q25 -196 118 -289t220 -93 q141 0 233 90.5t119 291.5h-690z" />
<glyph unicode="&#x192;" d="M-20 -391l57 221q109 -23 167 -23q62 0 87 38q20 29 37 133l150 873h-202l36 211h202l16 89q28 153 48 196q32 66 88 100q74 44 209 44t267 -41l-54 -226q-94 28 -158 28q-54 0 -80 -24t-43 -110l-11 -56h208l-37 -211h-205l-173 -978q-20 -119 -52.5 -177t-97.5 -92.5 t-179 -34.5q-156 0 -280 40z" />
<glyph unicode="&#x1a0;" horiz-adv-x="1747" d="M89 724q0 368 204 577q184 190 505 190q324 0 519 -201q117 -122 164 -301q117 53 121 196h-136v281h281v-201q0 -124 -21.5 -194t-78.5 -124.5t-143 -86.5q7 -62 7 -129q0 -352 -192 -554t-517 -202q-328 0 -520.5 200.5t-192.5 548.5zM394 734q0 -242 115 -378 q109 -128 292 -128t291 128q113 134 113 382q0 246 -110 376q-106 124 -294 124t-295 -126q-112 -131 -112 -378z" />
<glyph unicode="&#x1a1;" horiz-adv-x="1456" d="M82 546q0 144 69 271q72 133 197 201t281 68q241 0 395 -156q139 -142 153 -351q130 53 134 202h-136v281h281v-201q0 -124 -21.5 -194t-79.5 -125q-67 -65 -183 -102q-25 -179 -149 -305q-156 -159 -392 -159q-151 0 -278 66q-135 70 -203 195.5t-68 308.5zM370 531 q0 -153 75 -242q71 -84 185 -84t184 84q75 89 75 244q0 152 -75 240q-70 84 -184 84t-185 -84q-75 -89 -75 -242z" />
<glyph unicode="&#x1af;" horiz-adv-x="1699" d="M147 684v782h296v-794q0 -191 11 -245q41 -199 286 -199q236 0 267 178q13 75 13 249v811h296v-523q145 27 202 105q34 46 36 137h-136v281h281v-201q0 -124 -21.5 -194t-78.5 -125q-92 -88 -283 -117v-133q0 -259 -24 -373q-23 -107 -88 -184q-142 -164 -455 -164 q-348 0 -490 175q-63 77 -83 162q-29 125 -29 372z" />
<glyph unicode="&#x1b0;" horiz-adv-x="1483" d="M141 390v672h281v-488q0 -210 16 -274q11 -48 56 -80q41 -30 104 -30q71 0 128.5 39t78.5 98t21 287v448h281v-522q139 28 195 104q34 46 36 137h-136v281h281v-201q0 -124 -21.5 -194t-79.5 -125q-89 -86 -275 -116v-426h-261v159q-125 -183 -352 -183q-235 0 -315 179 q-38 85 -38 235z" />
<glyph unicode="&#x1cd;" horiz-adv-x="1479" d="M0 0l571 1466h313l587 -1466h-322l-128 333h-586l-121 -333h-314zM389 1852h227l108 -149l116 149h226l-207 -295h-260zM526 580h400l-202 544z" />
<glyph unicode="&#x1ce;" d="M73 290q0 90 43 160.5t120.5 108t223.5 65.5q197 37 273 69v28q0 81 -40 115.5t-151 34.5q-75 0 -117 -29.5t-68 -103.5l-255 46q43 154 148 228t312 74q188 0 280 -44.5t129.5 -113t37.5 -251.5l-3 -328q0 -140 13.5 -206.5t50.5 -142.5h-278q-11 28 -27 83 q-7 25 -10 33q-72 -70 -154 -105t-175 -35q-164 0 -258.5 89t-94.5 225zM231 1491h227l108 -149l116 149h226l-207 -295h-260zM354 319q0 -59 44 -102t112 -43q76 0 145 50q51 38 67 93q11 36 11 137v56q-54 -18 -171 -43t-153 -49q-55 -39 -55 -99z" />
<glyph unicode="&#x1cf;" horiz-adv-x="569" d="M-54 1852h227l108 -149l116 149h226l-207 -295h-260zM140 0v1466h296v-1466h-296z" />
<glyph unicode="&#x1d0;" horiz-adv-x="569" d="M-54 1491h227l108 -149l116 149h226l-207 -295h-260zM147 0v1062h281v-1062h-281z" />
<glyph unicode="&#x1d1;" horiz-adv-x="1593" d="M89 724q0 224 67 376q50 112 136.5 201t189.5 132q137 58 316 58q324 0 518.5 -201t194.5 -559q0 -355 -193 -555.5t-516 -200.5q-327 0 -520 199.5t-193 549.5zM394 734q0 -249 115 -377.5t292 -128.5t290.5 127.5t113.5 382.5q0 252 -110.5 376t-293.5 124t-295 -125.5 t-112 -378.5zM458 1852h227l108 -149l116 149h226l-207 -295h-260z" />
<glyph unicode="&#x1d2;" horiz-adv-x="1251" d="M82 546q0 140 69 271t195.5 200t282.5 69q241 0 395 -156.5t154 -395.5q0 -241 -155.5 -399.5t-391.5 -158.5q-146 0 -278.5 66t-201.5 193.5t-69 310.5zM287 1491h227l108 -149l116 149h226l-207 -295h-260zM370 531q0 -158 75 -242t185 -84t184.5 84t74.5 244 q0 156 -74.5 240t-184.5 84t-185 -84t-75 -242z" />
<glyph unicode="&#x1d3;" horiz-adv-x="1479" d="M147 684v782h296v-794q0 -189 11 -245q19 -90 90.5 -144.5t195.5 -54.5q126 0 190 51.5t77 126.5t13 249v811h296v-770q0 -264 -24 -373t-88.5 -184t-172.5 -119.5t-282 -44.5q-210 0 -318.5 48.5t-171.5 126t-83 162.5q-29 126 -29 372zM401 1852h227l108 -149l116 149 h226l-207 -295h-260z" />
<glyph unicode="&#x1d4;" horiz-adv-x="1251" d="M141 390v672h281v-488q0 -224 15.5 -274.5t56.5 -80t104 -29.5q72 0 129 39.5t78 98t21 286.5v448h281v-1062h-261v159q-58 -85 -152.5 -134t-199.5 -49q-107 0 -192 47t-123 132t-38 235zM287 1491h227l108 -149l116 149h226l-207 -295h-260z" />
<glyph unicode="&#x1d5;" horiz-adv-x="1479" d="M147 684v782h296v-794q0 -189 11 -245q19 -90 90.5 -144.5t195.5 -54.5q126 0 190 51.5t77 126.5t13 249v811h296v-770q0 -264 -24 -373t-88.5 -184t-172.5 -119.5t-282 -44.5q-210 0 -318.5 48.5t-171.5 126t-83 162.5q-29 126 -29 372zM467 1496v152h140v-152h-140z M472 1721v122h516v-122h-516zM853 1496v152h140v-152h-140z" />
<glyph unicode="&#x1d6;" horiz-adv-x="1251" d="M141 390v672h281v-488q0 -224 15.5 -274.5t56.5 -80t104 -29.5q72 0 129 39.5t78 98t21 286.5v448h281v-1062h-261v159q-58 -85 -152.5 -134t-199.5 -49q-107 0 -192 47t-123 132t-38 235zM288 1250v241h241v-241h-241zM303 1659v185h644v-185h-644zM718 1250v241h242 v-241h-242z" />
<glyph unicode="&#x1d7;" horiz-adv-x="1479" d="M147 684v782h296v-794q0 -189 11 -245q19 -90 90.5 -144.5t195.5 -54.5q126 0 190 51.5t77 126.5t13 249v811h296v-770q0 -264 -24 -373t-88.5 -184t-172.5 -119.5t-282 -44.5q-210 0 -318.5 48.5t-171.5 126t-83 162.5q-29 126 -29 372zM467 1496v152h140v-152h-140z M622 1666l135 178h246l-231 -178h-150zM853 1496v152h140v-152h-140z" />
<glyph unicode="&#x1d8;" horiz-adv-x="1251" d="M141 390v672h281v-488q0 -224 15.5 -274.5t56.5 -80t104 -29.5q72 0 129 39.5t78 98t21 286.5v448h281v-1062h-261v159q-58 -85 -152.5 -134t-199.5 -49q-107 0 -192 47t-123 132t-38 235zM288 1250v241h241v-241h-241zM482 1545l138 299h315l-275 -299h-178zM718 1250 v241h242v-241h-242z" />
<glyph unicode="&#x1d9;" horiz-adv-x="1479" d="M147 684v782h296v-794q0 -189 11 -245q19 -90 90.5 -144.5t195.5 -54.5q126 0 190 51.5t77 126.5t13 249v811h296v-770q0 -264 -24 -373t-88.5 -184t-172.5 -119.5t-282 -44.5q-210 0 -318.5 48.5t-171.5 126t-83 162.5q-29 126 -29 372zM462 1844h189l81 -98l79 98h187 l-162 -177h-218zM467 1496v152h140v-152h-140zM853 1496v152h140v-152h-140z" />
<glyph unicode="&#x1da;" horiz-adv-x="1251" d="M141 390v672h281v-488q0 -224 15.5 -274.5t56.5 -80t104 -29.5q72 0 129 39.5t78 98t21 286.5v448h281v-1062h-261v159q-58 -85 -152.5 -134t-199.5 -49q-107 0 -192 47t-123 132t-38 235zM287 1844h227l108 -149l116 149h226l-207 -295h-260zM288 1250v241h241v-241 h-241zM718 1250v241h242v-241h-242z" />
<glyph unicode="&#x1db;" horiz-adv-x="1479" d="M147 684v782h296v-794q0 -189 11 -245q19 -90 90.5 -144.5t195.5 -54.5q126 0 190 51.5t77 126.5t13 249v811h296v-770q0 -264 -24 -373t-88.5 -184t-172.5 -119.5t-282 -44.5q-210 0 -318.5 48.5t-171.5 126t-83 162.5q-29 126 -29 372zM457 1844h246l135 -178h-150z M467 1496v152h140v-152h-140zM853 1496v152h140v-152h-140z" />
<glyph unicode="&#x1dc;" horiz-adv-x="1251" d="M141 390v672h281v-488q0 -224 15.5 -274.5t56.5 -80t104 -29.5q72 0 129 39.5t78 98t21 286.5v448h281v-1062h-261v159q-58 -85 -152.5 -134t-199.5 -49q-107 0 -192 47t-123 132t-38 235zM288 1250v241h241v-241h-241zM313 1844h315l138 -299h-177zM718 1250v241h242 v-241h-242z" />
<glyph unicode="&#x1fa;" horiz-adv-x="1479" d="M0 0l571 1466h313l587 -1466h-322l-128 333h-586l-121 -333h-314zM526 580h400l-202 544zM529 1562q0 81 57.5 138.5t138.5 57.5t138.5 -57t57.5 -139q0 -81 -57.5 -138.5t-138.5 -57.5t-138.5 57.5t-57.5 138.5zM586 1758l138 299h315l-275 -299h-178zM636 1562 q0 -37 26 -63t63 -26t63 26t26 63t-26 63t-63 26t-63 -26t-26 -63z" />
<glyph unicode="&#x1fb;" d="M73 290q0 90 43 160.5t120.5 108t223.5 65.5q197 37 273 69v28q0 81 -40 115.5t-151 34.5q-75 0 -117 -29.5t-68 -103.5l-255 46q43 154 148 228t312 74q188 0 280 -44.5t129.5 -113t37.5 -251.5l-3 -328q0 -140 13.5 -206.5t50.5 -142.5h-278q-11 28 -27 83 q-7 25 -10 33q-72 -70 -154 -105t-175 -35q-164 0 -258.5 89t-94.5 225zM354 319q0 -59 44 -102t112 -43q76 0 145 50q51 38 67 93q11 36 11 137v56q-54 -18 -171 -43t-153 -49q-55 -39 -55 -99zM375 1342q0 81 57.5 138.5t138.5 57.5t138.5 -57t57.5 -139 q0 -81 -57.5 -138.5t-138.5 -57.5t-138.5 57.5t-57.5 138.5zM415 1598l138 299h315l-275 -299h-178zM482 1342q0 -37 26 -63t63 -26t63 26t26 63t-26 63t-63 26t-63 -26t-26 -63z" />
<glyph unicode="&#x1fc;" horiz-adv-x="2048" d="M-86 0l684 1466h1324v-248h-726v-326h669v-248h-669v-397h753v-247h-1049v345h-508l-150 -345h-328zM501 601h402v643h-115zM870 1598l138 299h315l-275 -299h-178z" />
<glyph unicode="&#x1fd;" horiz-adv-x="1821" d="M88 288q0 81 33.5 144t81 98.5t132.5 61.5q40 13 238 54q99 21 169 44v28q0 77 -42 115t-133 38q-80 0 -127 -32.5t-67 -100.5l-255 49q50 154 157.5 226.5t327.5 72.5q104 0 185.5 -24.5t139.5 -73.5q61 49 133.5 73.5t155.5 24.5q160 0 270.5 -67.5t174 -199 t62.5 -371.5h-706q17 -136 76 -197t145 -61q71 0 121 36.5t76 112.5l275 -49q-57 -157 -173 -235.5t-296 -78.5q-112 0 -207 36.5t-172 109.5q-71 -61 -183.5 -103.5t-231.5 -42.5q-170 0 -265 88.5t-95 223.5zM369 314q0 -58 43.5 -99t113.5 -41q74 0 139 47 q48 35 61.5 87.5t13.5 199.5q-231 -61 -251 -68q-67 -22 -93.5 -53t-26.5 -73zM756 1192l138 299h315l-275 -299h-178zM1023 624h424q-6 88 -24 127q-25 56 -75.5 88t-118.5 32q-59 0 -103.5 -27.5t-70.5 -82.5q-35 -73 -32 -137z" />
<glyph unicode="&#x1fe;" horiz-adv-x="1593" d="M63 42l171 192q-146 195 -146 508q0 347 193 548t515 201q267 0 443 -132l158 177l139 -122l-167 -188q67 -90 104 -221.5t37 -279.5q0 -349 -193 -549.5t-510 -200.5q-275 0 -440 125l-162 -182zM393 735q0 -159 46 -272l616 690q-101 86 -256 86q-182 0 -294 -125.5 t-112 -378.5zM549 305q103 -90 248 -90q178 0 292.5 129t114.5 385q0 162 -40 267zM643 1598l138 299h315l-275 -299h-178z" />
<glyph unicode="&#x1ff;" horiz-adv-x="1251" d="M87 537q0 240 153.5 394.5t393.5 154.5q178 0 312 -87l104 120l112 -92l-108 -124q60 -71 94.5 -168.5t34.5 -204.5q0 -238 -157 -396t-394 -158q-172 0 -307 84l-115 -133l-110 95l116 134q-60 73 -94.5 174t-34.5 207zM366 540q0 -99 28 -178l394 455q-67 54 -152 54 q-113 0 -191.5 -87t-78.5 -244zM471 1192l138 299h315l-275 -299h-178zM482 242q66 -48 151 -48q115 0 193 86.5t78 242.5q0 94 -30 172z" />
<glyph unicode="&#x2c6;" horiz-adv-x="682" d="M3 1196l210 295h260l207 -295h-226l-116 149l-108 -149h-227z" />
<glyph unicode="&#x2c7;" horiz-adv-x="682" d="M3 1491h227l108 -149l116 149h226l-207 -295h-260z" />
<glyph unicode="&#x2d8;" horiz-adv-x="682" d="M26 1491h137q7 -71 50 -107.5t125 -36.5t125 36.5t50 107.5h137q-12 -136 -95.5 -213.5t-216.5 -77.5t-216.5 77.5t-95.5 213.5z" />
<glyph unicode="&#x2d9;" horiz-adv-x="682" d="M205 1225v266h276v-266h-276z" />
<glyph unicode="&#x2da;" horiz-adv-x="682" d="M145 1342q0 81 57.5 138.5t138.5 57.5t138.5 -57t57.5 -139q0 -81 -57.5 -138.5t-138.5 -57.5t-138.5 57.5t-57.5 138.5zM252 1342q0 -37 26 -63t63 -26t63 26t26 63t-26 63t-63 26t-63 -26t-26 -63z" />
<glyph unicode="&#x2db;" horiz-adv-x="682" d="M160 -197q0 83 36 223h150q-20 -56 -20 -144q0 -80 37 -119t106 -39q63 0 136 23v-135q-101 -43 -194 -43q-119 0 -185 63t-66 171z" />
<glyph unicode="&#x2dc;" horiz-adv-x="682" d="M-13 1241q0 105 51 161.5t131 56.5q35 0 65 -7.5t109.5 -43t124.5 -35.5q32 0 53.5 20t27.5 67h130q-1 -135 -50.5 -193t-127.5 -58q-34 0 -67 7q-23 6 -115 41t-134 35q-32 0 -50 -19.5t-19 -67.5h-128q-1 23 -1 36z" />
<glyph unicode="&#x2dd;" horiz-adv-x="682" d="M96 1197l139 298h294l-257 -298h-176zM472 1197l141 298h286l-247 -298h-180z" />
<glyph unicode="&#x3a9;" horiz-adv-x="1642" d="M98 0v247h284q-261 274 -261 590q0 276 187 465t513 189q323 0 511 -188t188 -466q0 -316 -261 -590h285v-247h-671v236q169 63 255.5 204t86.5 325q0 189 -99.5 331t-294.5 142q-194 0 -294 -141t-100 -332q0 -185 86.5 -325.5t255.5 -203.5v-236h-671z" />
<glyph unicode="&#x3c0;" horiz-adv-x="1568" d="M48 829v233h1471v-233h-282v-829h-281v829h-345v-829h-281v829h-282z" />
<glyph unicode="&#x401;" horiz-adv-x="1370" d="M149 0v1466h1087v-248h-791v-325h736v-247h-736v-399h819v-247h-1115zM356 1550v241h241v-241h-241zM786 1550v241h242v-241h-242z" />
<glyph unicode="&#x402;" horiz-adv-x="1813" d="M47 1218v248h1165v-248h-435v-329q225 100 413 100q235 0 389 -130.5t154 -371.5q0 -228 -142 -364t-348 -136q-92 0 -196 32l46 245q72 -32 127 -32q97 0 163 67t66 167q0 105 -73.5 180.5t-212.5 75.5q-166 0 -386 -119v-603h-295v1218h-435z" />
<glyph unicode="&#x403;" horiz-adv-x="1161" d="M154 0v1466h1032v-249h-736v-1217h-296zM504 1550l138 299h315l-275 -299h-178z" />
<glyph unicode="&#x404;" horiz-adv-x="1457" d="M88 725q0 344 181 555t498 211q245 0 398.5 -116t200.5 -314l-293 -67q-32 115 -118 178t-196 63q-158 0 -249.5 -108.5t-108.5 -272.5h460v-246h-460q25 -197 117.5 -289.5t223.5 -92.5q135 0 223 80.5t108 231.5l297 -92q-51 -219 -206 -345t-403 -126 q-254 0 -400.5 120t-209.5 277t-63 353z" />
<glyph unicode="&#x405;" horiz-adv-x="1366" d="M74 477l288 28q26 -145 105.5 -213t214.5 -68q143 0 215.5 60.5t72.5 141.5q0 52 -30.5 88.5t-106.5 63.5q-52 18 -237 64q-238 59 -334 145q-135 121 -135 295q0 112 63.5 209.5t183 148.5t288.5 51q276 0 415.5 -121t146.5 -323l-296 -13q-19 113 -81.5 162.5 t-187.5 49.5q-129 0 -202 -53q-47 -34 -47 -91q0 -52 44 -89q56 -47 272 -98t319.5 -105.5t162 -149t58.5 -233.5q0 -126 -70 -236t-198 -163.5t-319 -53.5q-278 0 -427 128.5t-178 374.5z" />
<glyph unicode="&#x406;" horiz-adv-x="569" d="M140 0v1466h296v-1466h-296z" />
<glyph unicode="&#x407;" horiz-adv-x="565" d="M-54 1550v241h241v-241h-241zM140 0v1466h296v-1466h-296zM376 1550v241h242v-241h-242z" />
<glyph unicode="&#x408;" d="M35 453l279 32q5 -126 37 -178q48 -79 146 -79q99 0 140 56.5t41 234.5v947h295v-928q0 -182 -32 -280q-43 -128 -156 -205.5t-298 -77.5q-217 0 -334 121.5t-118 356.5z" />
<glyph unicode="&#x409;" horiz-adv-x="2240" d="M26 0v248q79 -14 109 -14q56 0 70 32t14 142v1058h998v-586h397q159 0 268 -42t185.5 -149.5t76.5 -254.5q0 -149 -75.5 -254t-173.5 -142.5t-281 -37.5h-692v1218h-408v-696q0 -227 -21 -315t-98 -151.5t-211 -63.5q-35 0 -78 3zM1217 246h289q139 0 193.5 13.5t97 61.5 t42.5 119q0 100 -72 147t-249 47h-301v-388z" />
<glyph unicode="&#x40a;" horiz-adv-x="2176" d="M157 0v1466h296v-577h399v577h295v-577h397q157 0 266 -42t187 -150t78 -260q0 -151 -75 -255.5t-173 -143t-283 -38.5h-692v641h-399v-641h-296zM1147 246h289q140 0 194 13.5t96.5 63t42.5 120.5q0 102 -72 150t-248 48h-302v-395z" />
<glyph unicode="&#x40b;" horiz-adv-x="1792" d="M55 1218v248h1165v-248h-435v-300q195 71 362 71q135 0 241 -45t167 -119.5t75.5 -143t14.5 -230.5v-451h-296v310q0 195 -13.5 264.5t-77.5 117.5t-179 48q-153 0 -294 -76v-664h-295v1218h-435z" />
<glyph unicode="&#x40c;" horiz-adv-x="1250" d="M154 0v1466h296v-624q99 10 134 51t108 228q92 238 185 296q92 58 297 58q10 0 43 1v-219l-42 1q-91 0 -133 -22.5t-68 -68.5t-77 -189q-27 -76 -58.5 -127t-111.5 -96q99 -28 163.5 -113t141.5 -240l200 -402h-348l-175 379q-4 8 -17 31q-5 8 -37 69q-57 108 -93.5 135 t-111.5 28v-642h-296zM471 1550l138 299h315l-275 -299h-178z" />
<glyph unicode="&#x40e;" horiz-adv-x="1274" d="M0 1466h331l342 -761l292 761h309l-495 -1114q-81 -181 -165 -275.5t-217 -94.5q-131 0 -205 17v220q63 -4 114 -4q103 0 147.5 37.5t85.5 161.5zM344 1837h137q7 -71 50 -107.5t125 -36.5t125 36.5t50 107.5h137q-12 -136 -95.5 -213.5t-216.5 -77.5t-216.5 77.5 t-95.5 213.5z" />
<glyph unicode="&#x40f;" horiz-adv-x="1472" d="M153 0v1466h296v-1219h574v1219h296v-1466h-460v-404h-246v404h-460z" />
<glyph unicode="&#x410;" horiz-adv-x="1479" d="M0 0l571 1466h313l587 -1466h-322l-128 333h-586l-121 -333h-314zM526 580h400l-202 544z" />
<glyph unicode="&#x411;" horiz-adv-x="1472" d="M155 0v1466h1096v-246h-800v-340h396q164 0 272 -40t184.5 -148t76.5 -253q0 -149 -77 -255t-175.5 -145t-280.5 -39h-692zM451 246h288q138 0 194 13.5t97.5 61.5t41.5 118q0 102 -72.5 148.5t-247.5 46.5h-301v-388z" />
<glyph unicode="&#x412;" horiz-adv-x="1479" d="M150 0v1466h586q174 0 259.5 -14.5t153 -60.5t112.5 -122.5t45 -171.5q0 -103 -55.5 -189t-150.5 -129q134 -39 206 -133t72 -221q0 -100 -46.5 -194.5t-127 -151t-198.5 -69.5q-74 -8 -357 -10h-499zM446 247h274q160 0 203 9q66 12 107.5 58.5t41.5 124.5q0 66 -32 112 t-92.5 67t-262.5 21h-239v-392zM446 883h194q173 0 215 5q76 9 119.5 52.5t43.5 114.5q0 68 -37.5 110.5t-111.5 51.5q-44 5 -253 5h-170v-339z" />
<glyph unicode="&#x413;" horiz-adv-x="1161" d="M164 0v1466h993v-246h-697v-1220h-296z" />
<glyph unicode="&#x414;" horiz-adv-x="1459" d="M-6 246h124q91 188 120 436.5t29 628.5v155h1013v-1220h129v-566h-246v320h-923v-320h-246v566zM428 246h557v974h-436q0 -668 -121 -974z" />
<glyph unicode="&#x415;" horiz-adv-x="1366" d="M149 0v1466h1087v-248h-791v-325h736v-247h-736v-399h819v-247h-1115z" />
<glyph unicode="&#x416;" horiz-adv-x="1851" d="M23 0l200 402q74 149 139.5 236.5t166.5 116.5q-80 45 -111.5 95.5t-59.5 127.5q-50 140 -75.5 187t-68 70t-138.5 23q-12 0 -38 -1v219q33 -1 43 -1q215 0 306 -63q90 -64 177 -291q68 -176 105.5 -224.5t111.5 -54.5v624h289v-624q74 6 112 55t105 224q88 229 180 292 q91 62 303 62q10 0 43 1v-219l-43 1q-90 0 -132 -22.5t-68 -68.5t-77 -189q-27 -76 -58.5 -127t-111.5 -96q99 -29 163.5 -113.5t141.5 -239.5l200 -402h-348l-176 379q-3 8 -17 31q-8 15 -36 69q-56 105 -92 134t-89 29v-642h-289v642q-51 0 -88 -28t-92 -135 q-31 -60 -37 -69q-9 -15 -17 -31l-176 -379h-348z" />
<glyph unicode="&#x417;" horiz-adv-x="1283" d="M44 338l271 89q42 -132 111.5 -171t171.5 -39q140 0 204 60.5t64 138.5q0 90 -72.5 145t-218.5 55h-67v221h34q136 0 208 61t72 162q0 80 -58.5 135t-167.5 55q-186 0 -238 -184l-288 67q93 358 529 358q258 0 389.5 -113.5t131.5 -266.5q0 -105 -60 -189.5t-180 -148.5 q146 -50 219 -141.5t73 -225.5q0 -193 -141.5 -312t-423.5 -119q-230 0 -363 76.5t-200 286.5z" />
<glyph unicode="&#x418;" horiz-adv-x="1472" d="M153 0v1466h277v-976l594 976h295v-1466h-277v957l-593 -957h-296z" />
<glyph unicode="&#x419;" horiz-adv-x="1472" d="M153 0v1466h277v-976l594 976h295v-1466h-277v957l-593 -957h-296zM426 1831h137q7 -71 50 -107.5t125 -36.5t125 36.5t50 107.5h137q-12 -136 -95.5 -213.5t-216.5 -77.5t-216.5 77.5t-95.5 213.5z" />
<glyph unicode="&#x41a;" horiz-adv-x="1250" d="M154 0v1466h296v-624q99 10 134 51t108 228q92 238 185 296q92 58 297 58q10 0 43 1v-219l-42 1q-91 0 -133 -22.5t-68 -68.5t-77 -189q-27 -76 -58.5 -127t-111.5 -96q99 -28 163.5 -113t141.5 -240l200 -402h-348l-175 379q-4 8 -17 31q-5 8 -37 69q-57 108 -93.5 135 t-111.5 28v-642h-296z" />
<glyph unicode="&#x41b;" horiz-adv-x="1437" d="M32 1v229l66 -1q93 0 125 25t32 123l-1 252v837h1027v-1466h-296v1218h-441v-626q0 -269 -18 -375.5t-87.5 -166t-217.5 -59.5q-52 0 -189 10z" />
<glyph unicode="&#x41c;" horiz-adv-x="1706" d="M145 0v1466h443l266 -1000l263 1000h444v-1466h-275v1154l-291 -1154h-285l-290 1154v-1154h-275z" />
<glyph unicode="&#x41d;" horiz-adv-x="1479" d="M150 0v1466h296v-577h580v577h296v-1466h-296v641h-580v-641h-296z" />
<glyph unicode="&#x41e;" horiz-adv-x="1593" d="M89 724q0 224 67 376q50 112 136.5 201t189.5 132q137 58 316 58q324 0 518.5 -201t194.5 -559q0 -355 -193 -555.5t-516 -200.5q-327 0 -520 199.5t-193 549.5zM394 734q0 -249 115 -377.5t292 -128.5t290.5 127.5t113.5 382.5q0 252 -110.5 376t-293.5 124t-295 -125.5 t-112 -378.5z" />
<glyph unicode="&#x41f;" horiz-adv-x="1472" d="M153 0v1466h1166v-1466h-296v1220h-574v-1220h-296z" />
<glyph unicode="&#x420;" horiz-adv-x="1366" d="M149 0v1466h475q270 0 352 -22q126 -33 211 -143.5t85 -285.5q0 -135 -49 -227t-124.5 -144.5t-153.5 -69.5q-106 -21 -307 -21h-193v-553h-296zM445 802h162q175 0 234 23t92.5 72t33.5 114q0 80 -47 132t-119 65q-53 10 -213 10h-143v-416z" />
<glyph unicode="&#x421;" horiz-adv-x="1479" d="M97 720q0 366 189 568.5t497 202.5q269 0 437 -159q100 -94 150 -270l-293 -70q-26 114 -108.5 180t-200.5 66q-163 0 -264.5 -117t-101.5 -379q0 -278 100 -396t260 -118q118 0 203 75t122 236l287 -91q-66 -240 -219.5 -356.5t-389.5 -116.5q-292 0 -480 199.5 t-188 545.5z" />
<glyph unicode="&#x422;" horiz-adv-x="1251" d="M44 1218v248h1165v-248h-434v-1218h-296v1218h-435z" />
<glyph unicode="&#x423;" horiz-adv-x="1274" d="M0 1466h331l342 -761l292 761h309l-495 -1114q-81 -181 -165 -275.5t-217 -94.5q-131 0 -205 17v220q63 -4 114 -4q103 0 147.5 37.5t85.5 161.5z" />
<glyph unicode="&#x424;" horiz-adv-x="1748" d="M89 746q0 254 151 407.5t489 166.5v145h290v-145q349 -13 494.5 -172t145.5 -403q0 -242 -145 -401.5t-495 -172.5v-171h-290v171q-351 13 -495.5 173.5t-144.5 401.5zM376 737q0 -319 353 -319v655q-187 0 -270 -83.5t-83 -252.5zM1019 418q116 0 199.5 39t118.5 105 t35 193q0 318 -353 318v-655z" />
<glyph unicode="&#x425;" horiz-adv-x="1366" d="M0 0l501 765l-454 701h346l294 -471l288 471h343l-456 -712l501 -754h-357l-325 507l-326 -507h-355z" />
<glyph unicode="&#x426;" horiz-adv-x="1496" d="M154 0v1466h296v-1220h574v1220h296v-1220h122v-566h-246v320h-1042z" />
<glyph unicode="&#x427;" horiz-adv-x="1439" d="M125 971v495h296v-350q0 -170 12.5 -225.5t74.5 -96.5t182 -41q95 0 169 20.5t128 60.5v632h296v-1466h-296v590q-90 -40 -177 -60.5t-171 -20.5q-219 0 -366.5 103.5t-147.5 358.5z" />
<glyph unicode="&#x428;" horiz-adv-x="2058" d="M154 0v1466h296v-1220h424v1220h295v-1220h438v1220h295l2 -1467z" />
<glyph unicode="&#x429;" horiz-adv-x="2087" d="M154 0v1466h296v-1220h424v1220h295v-1220h438v1220h295v-1220h132v-566h-246v320h-1634z" />
<glyph unicode="&#x42a;" horiz-adv-x="1781" d="M26 1220v246h733v-586h396q157 0 268 -41.5t187 -150t76 -252.5q0 -150 -77 -256t-174 -143t-280 -37h-692v1220h-437zM759 246h288q135 0 192.5 14t99 61.5t41.5 117.5q0 99 -70.5 147t-249.5 48h-301v-388z" />
<glyph unicode="&#x42b;" horiz-adv-x="2005" d="M157 0v1466h296v-586h396q156 0 268.5 -42.5t187.5 -152t75 -251.5q0 -149 -78 -256.5t-173.5 -142.5t-279.5 -35h-692zM453 246h289q138 0 192.5 13.5t97 61.5t42.5 117q0 98 -69.5 147t-250.5 49h-301v-388zM1551 0v1466h296v-1466h-296z" />
<glyph unicode="&#x42c;" horiz-adv-x="1472" d="M155 0v1466h296v-586h396q280 0 405.5 -131t125.5 -314q0 -150 -76 -255t-173.5 -142.5t-281.5 -37.5h-692zM451 246h288q140 0 194 13.5t96.5 61.5t42.5 118q0 101 -72.5 148t-247.5 47h-301v-388z" />
<glyph unicode="&#x42d;" horiz-adv-x="1457" d="M87 446l297 92q23 -159 113.5 -235.5t216.5 -76.5q130 0 222.5 91t119.5 291h-460v246h460q-18 164 -109.5 272.5t-248.5 108.5q-119 0 -200 -66t-114 -175l-293 67q45 195 198.5 312.5t399.5 117.5q320 0 500 -212.5t180 -553.5q0 -232 -83.5 -399t-229.5 -259t-352 -92 q-501 0 -617 471z" />
<glyph unicode="&#x42e;" horiz-adv-x="2112" d="M150 0v1466h296v-612h238q26 271 191 454t480 183q303 0 482 -196t179 -560q0 -238 -78 -406.5t-220.5 -261t-354.5 -92.5q-216 0 -343.5 68t-223 220t-112.5 345h-238v-608h-296zM980 731q0 -244 97 -376.5t273 -132.5q181 0 271.5 131.5t90.5 394.5q0 252 -104.5 369 t-267.5 117q-159 0 -259.5 -118.5t-100.5 -384.5z" />
<glyph unicode="&#x42f;" horiz-adv-x="1472" d="M4 0l179 286q106 170 169 238.5t158 122.5q-205 32 -296 142.5t-91 264.5q0 134 67.5 237.5t178 139t330.5 35.5h623v-1466h-296v612h-60q-140 0 -197.5 -42t-196.5 -251l-214 -319h-354zM428 1036q0 -77 38.5 -122.5t98 -56.5t242.5 -11h219v372h-231q-176 0 -231.5 -8 t-95.5 -54t-40 -120z" />
<glyph unicode="&#x430;" d="M73 290q0 90 43 160.5t120.5 108t223.5 65.5q197 37 273 69v28q0 81 -40 115.5t-151 34.5q-75 0 -117 -29.5t-68 -103.5l-255 46q43 154 148 228t312 74q188 0 280 -44.5t129.5 -113t37.5 -251.5l-3 -328q0 -140 13.5 -206.5t50.5 -142.5h-278q-11 28 -27 83 q-7 25 -10 33q-72 -70 -154 -105t-175 -35q-164 0 -258.5 89t-94.5 225zM354 319q0 -59 44 -102t112 -43q76 0 145 50q51 38 67 93q11 36 11 137v56q-54 -18 -171 -43t-153 -49q-55 -39 -55 -99z" />
<glyph unicode="&#x431;" horiz-adv-x="1265" d="M92 744q0 382 140.5 549t490.5 167h142q59 0 79 40h191q-9 -127 -66.5 -192.5t-283.5 -65.5q-27 0 -54 1h-36q-134 0 -218 -29.5t-137.5 -114.5t-55.5 -274q62 117 160.5 175t234.5 58q209 0 354 -162.5t145 -376.5q0 -223 -152.5 -383t-398.5 -160q-169 0 -297 81 t-183 221.5t-55 465.5zM378 523q0 -145 72.5 -229.5t177.5 -84.5q113 0 185.5 87.5t72.5 225.5q0 141 -73.5 227.5t-181.5 86.5q-105 0 -179 -85t-74 -228z" />
<glyph unicode="&#x432;" horiz-adv-x="1259" d="M150 0v1062h615q189 0 283 -69t94 -208q0 -89 -51.5 -155t-129.5 -88q110 -27 164 -101t54 -162q0 -124 -91 -201.5t-269 -77.5h-669zM433 180h222q120 0 175 29t55 104q0 78 -63 107.5t-245 29.5h-144v-270zM433 621h181q131 0 189.5 33t58.5 104q0 67 -54.5 95.5 t-193.5 28.5h-181v-261z" />
<glyph unicode="&#x433;" horiz-adv-x="853" d="M136 0v1062h717v-227h-436v-835h-281z" />
<glyph unicode="&#x434;" horiz-adv-x="1300" d="M-7 230h115q72 80 119 250t56 582h857v-832h114v-510h-229v280h-804v-280h-228v510zM383 230h479l1 601h-340q-17 -440 -140 -601z" />
<glyph unicode="&#x435;" d="M65 523q0 264 138 413.5t349 149.5q237 0 374 -156.5t131 -479.5h-704q3 -125 68 -194.5t162 -69.5q66 0 111 36t68 116l280 -47q-54 -154 -170.5 -234.5t-291.5 -80.5q-277 0 -410 181q-105 145 -105 366zM358 622h420q-3 122 -63 185.5t-146 63.5q-92 0 -152 -67 t-59 -182z" />
<glyph unicode="&#x436;" horiz-adv-x="1452" d="M-1 0l150 293q114 220 237 252q-92 35 -141 181q-37 109 -67.5 130.5t-142.5 21.5v186q83 5 116 5q93 0 159 -41t124 -204q45 -127 72 -160.5t81 -35.5v434h279v-434q54 0 81.5 35t71.5 161q57 161 121.5 203t165.5 42q29 0 112 -5v-186q-111 0 -142 -21.5t-68 -130.5 q-49 -146 -141 -181q123 -32 237 -252l150 -293h-302l-133 307q-36 82 -66.5 112t-86.5 34v-453h-279v453q-55 -4 -76.5 -24.5t-75.5 -121.5l-134 -307h-302z" />
<glyph unicode="&#x437;" horiz-adv-x="1018" d="M24 273l257 47q62 -156 205 -156q79 0 126.5 41.5t47.5 97.5q0 62 -49.5 97.5t-129.5 35.5h-48v183q73 0 106 9.5t62.5 46t29.5 83.5q0 50 -36.5 92.5t-109.5 42.5q-56 0 -100 -24t-80 -114l-238 51q36 140 154 210t269 70q192 0 297.5 -88t105.5 -221 q0 -83 -45.5 -137.5t-143.5 -101.5q118 -32 176.5 -97t58.5 -162q0 -124 -116 -213.5t-334 -89.5q-380 0 -465 297z" />
<glyph unicode="&#x438;" horiz-adv-x="1259" d="M140 0v1062h270v-667l432 667h276v-1062h-270v679l-438 -679h-270z" />
<glyph unicode="&#x439;" horiz-adv-x="1259" d="M140 0v1062h270v-667l432 667h276v-1062h-270v679l-438 -679h-270zM326 1493h137q7 -71 50 -107.5t125 -36.5t125 36.5t50 107.5h137q-12 -136 -95.5 -213.5t-216.5 -77.5t-216.5 77.5t-95.5 213.5z" />
<glyph unicode="&#x43a;" horiz-adv-x="1025" d="M136 0v1062h280v-434q70 8 99 43t70 153q54 157 118 201t168 44q32 0 111 -5l1 -186q-111 0 -142 -21q-31 -22 -67 -131q-49 -147 -141 -181q133 -37 225 -231q5 -10 11 -21l157 -293h-302l-140 307q-43 93 -74.5 119.5t-93.5 26.5v-453h-280z" />
<glyph unicode="&#x43b;" horiz-adv-x="1301" d="M25 0v207q9 0 47 -2q44 -3 68 -3q57 0 70 37.5t13 208.5v614h941v-1062h-280v834h-383v-477q0 -182 -42 -255.5t-93 -96.5t-164 -23q-67 0 -177 18z" />
<glyph unicode="&#x43c;" horiz-adv-x="1515" d="M155 0v1062h348l264 -740l266 740h347v-1062h-239v699l-259 -699h-240l-247 699v-699h-240z" />
<glyph unicode="&#x43d;" horiz-adv-x="1237" d="M136 0v1062h281v-389h402v389h282v-1062h-282v446h-402v-446h-281z" />
<glyph unicode="&#x43e;" horiz-adv-x="1251" d="M82 546q0 140 69 271t195.5 200t282.5 69q241 0 395 -156.5t154 -395.5q0 -241 -155.5 -399.5t-391.5 -158.5q-146 0 -278.5 66t-201.5 193.5t-69 310.5zM370 531q0 -158 75 -242t185 -84t184.5 84t74.5 244q0 156 -74.5 240t-184.5 84t-185 -84t-75 -242z" />
<glyph unicode="&#x43f;" horiz-adv-x="1237" d="M136 0v1062h943v-1062h-281v835h-381v-835h-281z" />
<glyph unicode="&#x440;" horiz-adv-x="1251" d="M139 -404v1466h262v-156q51 80 138 130t193 50q185 0 314 -145t129 -404q0 -266 -130 -413.5t-315 -147.5q-88 0 -159.5 35t-150.5 120v-535h-281zM417 549q0 -179 71 -264.5t173 -85.5q98 0 163 78.5t65 257.5q0 167 -67 248t-166 81q-103 0 -171 -79.5t-68 -235.5z" />
<glyph unicode="&#x441;" d="M85 530q0 263 139 409.5t376 146.5q194 0 308.5 -83.5t164.5 -254.5l-277 -50q-14 83 -63.5 125t-128.5 42q-105 0 -167.5 -72.5t-62.5 -242.5q0 -189 63.5 -267t170.5 -78q80 0 131 45.5t72 156.5l276 -47q-43 -190 -165 -287t-327 -97q-233 0 -371.5 147t-138.5 407z " />
<glyph unicode="&#x442;" horiz-adv-x="1003" d="M21 835v227h961v-227h-340v-835h-281v835h-340z" />
<glyph unicode="&#x443;" d="M14 1062h299l254 -754l248 754h291l-375 -1022l-67 -185q-37 -93 -70.5 -142t-77 -79.5t-107 -47.5t-143.5 -17q-81 0 -159 17l-25 220q66 -13 119 -13q98 0 145 57.5t72 146.5z" />
<glyph unicode="&#x444;" horiz-adv-x="1792" d="M84 535q0 239 128 395t277 156q81 0 148 -38t121 -114v532h279v-539q51 79 122 118.5t162 39.5q171 0 279.5 -165.5t108.5 -395.5q0 -231 -121.5 -389.5t-287.5 -158.5q-75 0 -141 37.5t-122 111.5v-529h-279v529q-61 -74 -130.5 -111.5t-147.5 -37.5q-172 0 -284 159 t-112 400zM375 531q0 -154 54.5 -247t135.5 -93q82 0 139 93t57 254q0 175 -62 254t-129 79q-78 0 -136.5 -93.5t-58.5 -246.5zM1033 517q0 -151 57.5 -239.5t136.5 -88.5t136 100t57 236q0 145 -52 244.5t-141 99.5q-86 0 -140 -100.5t-54 -251.5z" />
<glyph unicode="&#x445;" d="M12 0l383 547l-367 515h343l188 -292l198 292h330l-360 -503l393 -559h-345l-216 329l-218 -329h-329z" />
<glyph unicode="&#x446;" horiz-adv-x="1259" d="M137 0v1062h281v-835h401v835h281v-835h111v-507h-227v280h-847z" />
<glyph unicode="&#x447;" horiz-adv-x="1189" d="M114 808v254h284v-254q0 -87 15.5 -129.5t66 -73t127.5 -30.5q75 0 168 34v453h281v-1062h-281v424q-164 -44 -250 -44q-129 0 -232 55.5t-141 142t-38 230.5z" />
<glyph unicode="&#x448;" horiz-adv-x="1707" d="M140 0v1062h258v-835h326v835h259v-835h325v835h259v-1062h-1427z" />
<glyph unicode="&#x449;" horiz-adv-x="1728" d="M141 0v1062h259v-835h323v835h259v-835h327v835h259v-835h115v-507h-227v280h-1315z" />
<glyph unicode="&#x44a;" horiz-adv-x="1493" d="M40 835v227h628v-441h280q169 0 255.5 -23t147 -102.5t60.5 -185.5q0 -136 -89 -223t-335 -87h-600v835h-347zM668 178h261q123 0 158 39.5t35 95.5q0 77 -59.5 106t-212.5 29h-182v-270z" />
<glyph unicode="&#x44b;" horiz-adv-x="1749" d="M149 0v1062h281v-441h282q166 0 253.5 -23.5t148 -102.5t60.5 -186q0 -154 -106 -231.5t-318 -77.5h-601zM430 178h261q102 0 148 32t46 104q0 77 -59.5 105.5t-213.5 28.5h-182v-270zM1334 0v1062h281v-1062h-281z" />
<glyph unicode="&#x44c;" horiz-adv-x="1259" d="M153 0v1062h281v-441h282q166 0 255 -24t148 -103.5t59 -184.5q0 -154 -105.5 -231.5t-316.5 -77.5h-603zM434 178h262q123 0 157.5 40t34.5 95q0 77 -59.5 106t-211.5 29h-183v-270z" />
<glyph unicode="&#x44d;" horiz-adv-x="1131" d="M56 313l278 51q35 -170 192 -170q99 0 155 64t70 192h-293v171h299q-9 124 -63 185.5t-152 61.5q-62 0 -117.5 -32t-70.5 -96l-274 51q101 295 455 295q254 0 384 -149.5t130 -402.5q0 -268 -132 -413t-380 -145q-378 0 -481 337z" />
<glyph unicode="&#x44e;" horiz-adv-x="1749" d="M145 0v1062h281v-429h224q22 204 154.5 328.5t354.5 124.5q224 0 367 -145t143 -418q0 -160 -53.5 -280t-163.5 -193.5t-287 -73.5q-255 0 -380 138.5t-135 295.5h-224v-410h-281zM931 553q0 -210 57.5 -283.5t174.5 -73.5q108 0 162 82.5t54 247.5q0 202 -58.5 271.5 t-165.5 69.5q-117 0 -170.5 -75t-53.5 -239z" />
<glyph unicode="&#x44f;" horiz-adv-x="1195" d="M-5 0l201 308q86 132 156 152q-118 7 -191.5 89.5t-73.5 210.5q0 103 48.5 176t129 99.5t239.5 26.5h553v-1062h-279v441h-26q-91 0 -133.5 -23.5t-94.5 -99.5l-17 -21l-185 -297h-327zM376 745q0 -73 51 -105t167 -32h184v273h-201q-111 0 -156 -31.5t-45 -104.5z" />
<glyph unicode="&#x451;" d="M65 523q0 264 138 413.5t349 149.5q237 0 374 -156.5t131 -479.5h-704q3 -125 68 -194.5t162 -69.5q66 0 111 36t68 116l280 -47q-54 -154 -170.5 -234.5t-291.5 -80.5q-277 0 -410 181q-105 145 -105 366zM229 1250v241h241v-241h-241zM358 622h420q-3 122 -63 185.5 t-146 63.5q-92 0 -152 -67t-59 -182zM659 1250v241h242v-241h-242z" />
<glyph unicode="&#x452;" horiz-adv-x="1251" d="M0 1203v146h146v117h281v-117h343v-146h-343v-276q68 80 150 119.5t178 39.5q128 0 213.5 -57.5t115 -144t29.5 -261.5v-675q0 -192 -67 -285.5t-229 -93.5q-85 0 -217 33l40 207q76 -19 109 -19q50 0 66.5 25.5t16.5 104.5v641q0 143 -11.5 195t-53.5 83.5t-110 31.5 q-112 0 -171 -73.5t-59 -265.5v-532h-281v1203h-146z" />
<glyph unicode="&#x453;" horiz-adv-x="853" d="M136 0v1062h717v-227h-436v-835h-281zM272 1192l138 299h315l-275 -299h-178z" />
<glyph unicode="&#x454;" horiz-adv-x="1131" d="M81 534q0 253 130 402.5t384 149.5q354 0 455 -295l-274 -51q-15 64 -70.5 96t-117.5 32q-98 0 -152 -61.5t-63 -185.5h299v-171h-293q14 -128 70 -192t155 -64q157 0 192 170l278 -51q-103 -337 -481 -337q-248 0 -380 145t-132 413z" />
<glyph unicode="&#x455;" d="M48 303l282 43q18 -82 73 -124.5t154 -42.5q109 0 164 40q37 28 37 75q0 32 -20 53q-21 20 -94 37q-340 75 -431 137q-126 86 -126 239q0 138 109 232t338 94q218 0 324 -71t146 -210l-265 -49q-17 62 -64.5 95t-135.5 33q-111 0 -159 -31q-32 -22 -32 -57q0 -30 28 -51 q38 -28 262.5 -79t313.5 -125q88 -75 88 -209q0 -146 -122 -251t-361 -105q-217 0 -343.5 88t-165.5 239z" />
<glyph unicode="&#x456;" horiz-adv-x="569" d="M147 0v1062h281v-1062h-281zM147 1206v260h281v-260h-281z" />
<glyph unicode="&#x457;" horiz-adv-x="576" d="M-48 1250v241h241v-241h-241zM147 0v1062h281v-1062h-281zM382 1250v241h242v-241h-242z" />
<glyph unicode="&#x458;" horiz-adv-x="569" d="M-94 -401l49 240q20 -4 37.5 -6.5t32.5 -2.5q43 0 70.5 18.5t36.5 44.5t9 156v1013h281v-1029q0 -203 -26.5 -286.5t-102 -130.5t-192.5 -47q-42 0 -90.5 7.5t-104.5 22.5zM141 1206v260h281v-260h-281z" />
<glyph unicode="&#x459;" horiz-adv-x="1984" d="M24 0v219q93 -8 125 -8q45 0 59.5 28t14.5 102v721h941v-441h281q166 0 255 -24t148 -103t59 -185q0 -154 -105.5 -231.5t-316.5 -77.5h-601v831h-377v-469q0 -222 -79 -301t-202 -79q-57 0 -202 18zM1164 178h261q123 0 158 40t35 95q0 58 -44.5 96.5t-226.5 38.5h-183 v-270z" />
<glyph unicode="&#x45a;" horiz-adv-x="1856" d="M140 0v1062h281v-389h326v389h280v-389h283q190 0 276.5 -32t136.5 -109.5t50 -197.5q0 -163 -90 -248.5t-333 -85.5h-603v446h-326v-446h-281zM1027 178h262q102 0 147.5 33t45.5 102q0 76 -60 104.5t-212 28.5h-183v-268z" />
<glyph unicode="&#x45b;" horiz-adv-x="1251" d="M0 1203v146h146v117h281v-117h343v-146h-343v-276q68 80 150 119.5t178 39.5q128 0 213.5 -57.5t115 -144t29.5 -261.5v-623h-281v561q0 143 -11.5 195t-53.5 83.5t-110 31.5q-112 0 -171 -73.5t-59 -265.5v-532h-281v1203h-146z" />
<glyph unicode="&#x45c;" horiz-adv-x="1025" d="M136 0v1062h280v-434q70 8 99 43t70 153q54 157 118 201t168 44q32 0 111 -5l1 -186q-111 0 -142 -21q-31 -22 -67 -131q-49 -147 -141 -181q133 -37 225 -231q5 -10 11 -21l157 -293h-302l-140 307q-43 93 -74.5 119.5t-93.5 26.5v-453h-280zM387 1192l138 299h315 l-275 -299h-178z" />
<glyph unicode="&#x45e;" d="M14 1062h299l254 -754l248 754h291l-375 -1022l-67 -185q-37 -93 -70.5 -142t-77 -79.5t-107 -47.5t-143.5 -17q-81 0 -159 17l-25 220q66 -13 119 -13q98 0 145 57.5t72 146.5zM260 1493h137q7 -71 50 -107.5t125 -36.5t125 36.5t50 107.5h137q-12 -136 -95.5 -213.5 t-216.5 -77.5t-216.5 77.5t-95.5 213.5z" />
<glyph unicode="&#x45f;" horiz-adv-x="1237" d="M136 0v1062h281v-835h402v835h281v-1062h-369v-280h-226v280h-369z" />
<glyph unicode="&#x490;" horiz-adv-x="997" d="M150 0v1466h547v319h246v-567h-497v-1218h-296z" />
<glyph unicode="&#x491;" horiz-adv-x="915" d="M136 0v1062h489v279h226v-506h-434v-835h-281z" />
<glyph unicode="&#x492;" horiz-adv-x="1161" d="M-3 640v186h167v640h993v-246h-697v-394h295v-186h-295v-640h-296v640h-167z" />
<glyph unicode="&#x493;" horiz-adv-x="853" d="M7 432v174h129v456h717v-227h-436v-229h184v-174h-184v-432h-281v432h-129z" />
<glyph unicode="&#x496;" horiz-adv-x="1851" d="M23 0l200 402q75 150 119 210q83 113 187 143q-114 64 -171 223q-46 129 -52 142q-40 87 -91 115q-42 23 -139 23q-12 0 -38 -1v219q33 -1 43 -1q222 0 315 -72q85 -65 168 -282q57 -147 73 -175q56 -97 144 -104v624h289v-624q89 7 144 103q16 26 73 176q83 215 168 281 q94 73 315 73q10 0 43 1v-219l-43 1q-147 3 -200 -91q-26 -46 -77 -189q-32 -90 -61 -130q-36 -52 -109 -93q105 -31 187 -142q43 -60 118 -211l77 -156h122v-566h-246v320h-101l-176 379q-4 8 -17 31q-9 17 -36 69q-44 83 -69 111q-46 52 -112 52v-642h-289v642 q-66 0 -112 -52q-25 -28 -68 -111q-29 -56 -37 -69q-10 -16 -17 -31l-176 -379h-348z" />
<glyph unicode="&#x497;" horiz-adv-x="1452" d="M-1 0l150 293q112 220 237 252q-92 35 -141 181q-36 107 -67 129.5t-143 22.5v186q83 5 116 5q121 0 186 -65q51 -50 97 -180q37 -105 49 -126q39 -68 104 -70v434h279v-434q66 0 104 69q11 19 49 127q46 132 98 182q65 63 189 63q29 0 112 -5v-186q-111 0 -142.5 -23 t-67.5 -129q-49 -146 -141 -181q142 -29 237 -252l37 -66h111v-507h-227v280h-73l-133 307q-32 73 -54 99q-37 43 -99 47v-453h-279v453q-55 -4 -76 -24q-39 -37 -76 -122l-134 -307h-302z" />
<glyph unicode="&#x49a;" horiz-adv-x="1250" d="M154 0v1466h296v-624q111 11 164 91q13 22 78 188q84 217 168 282q93 72 314 72q10 0 43 1v-219l-42 1q-148 4 -201 -91q-26 -46 -77 -189q-32 -90 -61 -130q-36 -52 -109 -93q100 -28 164 -113q72 -95 141 -240l74 -156h122v-566h-246v320h-98l-175 379q-4 8 -17 31 q-7 12 -37 69q-50 94 -76 120q-44 42 -129 43v-642h-296z" />
<glyph unicode="&#x49b;" horiz-adv-x="1025" d="M136 0v1062h280v-434q77 9 115 66q18 26 54 130q46 132 97 182q64 63 189 63q32 0 111 -5v-186q-110 0 -141.5 -23t-66.5 -129q-49 -147 -141 -181q133 -37 225 -231q4 -9 11 -21l37 -66h119v-507h-227v280h-74l-140 307q-37 81 -60 106q-38 40 -108 40v-453h-280z" />
<glyph unicode="&#x49c;" horiz-adv-x="1250" d="M154 0v1466h296v-624q54 5 90 21v395h106v-249q22 50 46 112q84 217 168 282q93 72 314 72q10 0 43 1v-219l-42 1q-148 4 -201 -91q-26 -46 -77 -189q-32 -90 -61 -130q-36 -52 -109 -93q105 -30 187 -142q42 -58 118 -211l200 -402h-348l-175 379q-21 39 -63 116v-286 h-106v417q-35 15 -90 16v-642h-296z" />
<glyph unicode="&#x49d;" horiz-adv-x="1025" d="M136 0v1062h280v-434q42 5 70 20v297h76v-183q12 29 23 62q46 132 97 182q64 63 189 63q32 0 111 -5v-186q-110 0 -141.5 -23t-66.5 -129q-49 -147 -141 -181q82 -23 144 -100q33 -42 92 -152l157 -293h-302l-140 307q-11 25 -22 45v-216h-76v305q-28 12 -70 12v-453 h-280z" />
<glyph unicode="&#x4a2;" horiz-adv-x="1479" d="M150 0v1466h296v-577h580v577h296v-1220h120v-566h-246v320h-170v641h-580v-641h-296z" />
<glyph unicode="&#x4a3;" horiz-adv-x="1237" d="M136 0v1062h281v-389h402v389h282v-835h110v-507h-227v280h-165v446h-402v-446h-281z" />
<glyph unicode="&#x4ae;" d="M1 1466h308l200 -426q39 -82 54 -141q20 71 54 141l204 426h308l-426 -852v-614h-281v614z" />
<glyph unicode="&#x4af;" d="M18 1062h295l258 -753l261 753h289l-406 -1062v-404h-281v404z" />
<glyph unicode="&#x4b0;" d="M1 1466h308l200 -426q39 -82 54 -141q20 71 54 141l204 426h308l-315 -631h265v-221h-376v-614h-281v614h-371v221h261z" />
<glyph unicode="&#x4b1;" d="M18 1062h295l258 -753l261 753h289l-406 -1062h313v-187h-313v-217h-281v217h-313v187h313z" />
<glyph unicode="&#x4b2;" horiz-adv-x="1366" d="M0 0l501 765l-454 701h346l294 -471l288 471h343l-456 -712l340 -508h158v-566h-246v320h-108l-325 507l-326 -507h-355z" />
<glyph unicode="&#x4b3;" d="M12 0l383 547l-367 515h343l188 -292l198 292h330l-360 -503l238 -332h155v-507h-227v280h-118l-216 329l-218 -329h-329z" />
<glyph unicode="&#x4b8;" horiz-adv-x="1439" d="M125 971v495h296v-350q0 -152 4 -177q14 -100 83 -145q40 -27 108 -36v405h182v-402q114 17 189 73v632h296v-1466h-296v590q-91 -40 -177 -60l-12 -3v-302h-182v284q-491 13 -491 462z" />
<glyph unicode="&#x4b9;" horiz-adv-x="1189" d="M114 808v254h284v-254q0 -79 11 -115q18 -55 71 -87q26 -16 57 -23v272h107v-278q60 6 131 32v453h281v-1062h-281v424q-79 -21 -131 -31v-222h-107v209h-12q-124 -2 -231 55.5t-148 156.5q-32 78 -32 216z" />
<glyph unicode="&#x4ba;" horiz-adv-x="1439" d="M156 0v1466h296v-590q182 81 348 81q514 0 514 -462v-495h-296v350q0 157 -3 177q-14 99 -84 145q-62 41 -182 41q-188 0 -297 -81v-632h-296z" />
<glyph unicode="&#x4bb;" horiz-adv-x="1251" d="M146 0v1466h281v-539q136 159 325 159q97 0 175 -36t117.5 -92t54 -124t14.5 -211v-623h-281v561q0 167 -16 212t-56.5 71.5t-101.5 26.5q-70 0 -125 -34t-80.5 -102.5t-25.5 -202.5v-532h-281z" />
<glyph unicode="&#x4e8;" horiz-adv-x="1593" d="M86 724q0 349 178 553q187 214 531 214q339 0 530 -213q183 -204 183 -547q0 -331 -176 -537q-187 -219 -512 -219q-461 0 -643 344q-91 172 -91 405zM399 609q23 -164 110 -256q118 -125 289 -125q170 0 287 124q86 91 109 257h-795zM399 857h796q-23 175 -119 275 q-104 106 -278 106q-190 0 -298 -129q-80 -95 -101 -252z" />
<glyph unicode="&#x4e9;" horiz-adv-x="1251" d="M82 546q0 145 69 272q72 131 197.5 199.5t280.5 68.5q242 0 395.5 -155t153.5 -397q0 -240 -154 -399t-393 -159q-150 0 -277 65q-135 70 -203.5 196.5t-68.5 308.5zM376 450q16 -107 80 -173q69 -72 174 -72t174 72q63 66 79 173h-507zM377 622h505q-18 103 -81 167 q-69 68 -171 68q-110 0 -185 -84q-52 -58 -68 -151z" />
<glyph unicode="&#x1e80;" horiz-adv-x="1933" d="M7 1466h303l221 -1007l268 1007h352l257 -1024l225 1024h298l-356 -1466h-314l-292 1096l-291 -1096h-321zM667 1897h315l138 -299h-177z" />
<glyph unicode="&#x1e81;" horiz-adv-x="1593" d="M9 1062h273l199 -696l183 696h271l177 -696l203 696h277l-341 -1062h-270l-183 683l-180 -683h-273zM497 1491h315l138 -299h-177z" />
<glyph unicode="&#x1e82;" horiz-adv-x="1933" d="M7 1466h303l221 -1007l268 1007h352l257 -1024l225 1024h298l-356 -1466h-314l-292 1096l-291 -1096h-321zM812 1598l138 299h315l-275 -299h-178z" />
<glyph unicode="&#x1e83;" horiz-adv-x="1593" d="M9 1062h273l199 -696l183 696h271l177 -696l203 696h277l-341 -1062h-270l-183 683l-180 -683h-273zM642 1192l138 299h315l-275 -299h-178z" />
<glyph unicode="&#x1e84;" horiz-adv-x="1933" d="M7 1466h303l221 -1007l268 1007h352l257 -1024l225 1024h298l-356 -1466h-314l-292 1096l-291 -1096h-321zM631 1598v241h241v-241h-241zM1061 1598v241h242v-241h-242z" />
<glyph unicode="&#x1e85;" horiz-adv-x="1593" d="M9 1062h273l199 -696l183 696h271l177 -696l203 696h277l-341 -1062h-270l-183 683l-180 -683h-273zM461 1250v241h241v-241h-241zM891 1250v241h242v-241h-242z" />
<glyph unicode="&#x1ea0;" horiz-adv-x="1479" d="M0 0l571 1466h313l587 -1466h-322l-128 333h-586l-121 -333h-314zM526 580h400l-202 544zM588 -120h281v-281h-281v281z" />
<glyph unicode="&#x1ea1;" d="M73 290q0 90 43 160.5t120.5 108t223.5 65.5q197 37 273 69v28q0 81 -40 115.5t-151 34.5q-75 0 -117 -29.5t-68 -103.5l-255 46q43 154 148 228t312 74q188 0 280 -44.5t129.5 -113t37.5 -251.5l-3 -328q0 -140 13.5 -206.5t50.5 -142.5h-278q-11 28 -27 83 q-7 25 -10 33q-72 -70 -154 -105t-175 -35q-164 0 -258.5 89t-94.5 225zM354 319q0 -59 44 -102t112 -43q76 0 145 50q51 38 67 93q11 36 11 137v56q-54 -18 -171 -43t-153 -49q-55 -39 -55 -99zM388 -120h281v-281h-281v281z" />
<glyph unicode="&#x1ea2;" horiz-adv-x="1479" d="M0 0l571 1466h313l587 -1466h-322l-128 333h-586l-121 -333h-314zM526 580h400l-202 544zM533 1847q39 8 144 7q123 -1 201 -40q86 -42 88 -117q4 -104 -182 -127v-50h-112v110q57 6 73 11q53 13 54 46q1 23 -28 39q-42 23 -133 23q-31 0 -94 -4z" />
<glyph unicode="&#x1ea3;" d="M73 290q0 90 43 160.5t120.5 108t223.5 65.5q197 37 273 69v28q0 81 -40 115.5t-151 34.5q-75 0 -117 -29.5t-68 -103.5l-255 46q43 154 148 228t312 74q188 0 280 -44.5t129.5 -113t37.5 -251.5l-3 -328q0 -140 13.5 -206.5t50.5 -142.5h-278q-11 28 -27 83 q-7 25 -10 33q-72 -70 -154 -105t-175 -35q-164 0 -258.5 89t-94.5 225zM354 319q0 -59 44 -102t112 -43q76 0 145 50q51 38 67 93q11 36 11 137v56q-54 -18 -171 -43t-153 -49q-55 -39 -55 -99zM367 1519q39 8 144 7q123 -1 201 -40q86 -42 88 -117q4 -104 -182 -127v-50 h-112v110q57 6 73 11q53 13 54 46q1 23 -28 39q-42 23 -133 23q-31 0 -94 -4z" />
<glyph unicode="&#x1ea4;" horiz-adv-x="1479" d="M0 0l571 1466h313l587 -1466h-322l-128 333h-586l-121 -333h-314zM416 1516l218 130h178l218 -130h-197l-110 74l-110 -74h-197zM526 580h400l-202 544zM602 1680l121 163h315l-258 -163h-178z" />
<glyph unicode="&#x1ea5;" d="M73 290q0 90 43 160.5t120.5 108t223.5 65.5q197 37 273 69v28q0 81 -40 115.5t-151 34.5q-75 0 -117 -29.5t-68 -103.5l-255 46q43 154 148 228t312 74q188 0 280 -44.5t129.5 -113t37.5 -251.5l-3 -328q0 -140 13.5 -206.5t50.5 -142.5h-278q-11 28 -27 83 q-7 25 -10 33q-72 -70 -154 -105t-175 -35q-164 0 -258.5 89t-94.5 225zM233 1196l210 295h260l207 -295h-226l-116 149l-108 -149h-227zM354 319q0 -59 44 -102t112 -43q76 0 145 50q51 38 67 93q11 36 11 137v56q-54 -18 -171 -43t-153 -49q-55 -39 -55 -99zM439 1545 l129 282h315l-266 -282h-178z" />
<glyph unicode="&#x1ea6;" horiz-adv-x="1479" d="M0 0l571 1466h313l587 -1466h-322l-128 333h-586l-121 -333h-314zM408 1843h315l118 -163h-177zM416 1516l218 130h178l218 -130h-197l-110 74l-110 -74h-197zM526 580h400l-202 544z" />
<glyph unicode="&#x1ea7;" d="M73 290q0 90 43 160.5t120.5 108t223.5 65.5q197 37 273 69v28q0 81 -40 115.5t-151 34.5q-75 0 -117 -29.5t-68 -103.5l-255 46q43 154 148 228t312 74q188 0 280 -44.5t129.5 -113t37.5 -251.5l-3 -328q0 -140 13.5 -206.5t50.5 -142.5h-278q-11 28 -27 83 q-7 25 -10 33q-72 -70 -154 -105t-175 -35q-164 0 -258.5 89t-94.5 225zM233 1196l210 295h260l207 -295h-226l-116 149l-108 -149h-227zM253 1827h315l138 -282h-177zM354 319q0 -59 44 -102t112 -43q76 0 145 50q51 38 67 93q11 36 11 137v56q-54 -18 -171 -43t-153 -49 q-55 -39 -55 -99z" />
<glyph unicode="&#x1ea8;" horiz-adv-x="1479" d="M0 0l571 1466h313l587 -1466h-322l-128 333h-586l-121 -333h-314zM416 1516l218 130h178l218 -130h-197l-110 74l-110 -74h-197zM526 580h400l-202 544zM543 1850q36 5 134 4q262 -1 267 -70q3 -68 -169 -91v-13h-93v44q39 2 57 6q49 11 50 28q1 13 -26 22 q-39 13 -123 13q-8 0 -37 -3.5t-49 -4.5z" />
<glyph unicode="&#x1ea9;" d="M73 290q0 90 43 160.5t120.5 108t223.5 65.5q197 37 273 69v28q0 81 -40 115.5t-151 34.5q-75 0 -117 -29.5t-68 -103.5l-255 46q43 154 148 228t312 74q188 0 280 -44.5t129.5 -113t37.5 -251.5l-3 -328q0 -140 13.5 -206.5t50.5 -142.5h-278q-11 28 -27 83 q-7 25 -10 33q-72 -70 -154 -105t-175 -35q-164 0 -258.5 89t-94.5 225zM233 1196l210 295h260l207 -295h-226l-116 149l-108 -149h-227zM354 319q0 -59 44 -102t112 -43q76 0 145 50q51 38 67 93q11 36 11 137v56q-54 -18 -171 -43t-153 -49q-55 -39 -55 -99zM373 1847 q39 8 144 7q123 -1 201 -40q86 -42 88 -117q4 -104 -182 -127v-50h-112v110q57 6 73 11q53 13 54 46q1 23 -28 39q-42 23 -133 23q-31 0 -94 -4z" />
<glyph unicode="&#x1eaa;" horiz-adv-x="1479" d="M0 0l571 1466h313l587 -1466h-322l-128 333h-586l-121 -333h-314zM389 1680q-1 67 55.5 117.5t147.5 50.5q62 0 169 -44q77 -24 112 -24q61 0 73 70h112q-6 -167 -196 -167q-63 0 -166 44q-88 29 -119 29q-64 0 -76 -76h-112zM416 1516l218 130h178l218 -130h-197 l-110 74l-110 -74h-197zM526 580h400l-202 544z" />
<glyph unicode="&#x1eab;" d="M73 290q0 90 43 160.5t120.5 108t223.5 65.5q197 37 273 69v28q0 81 -40 115.5t-151 34.5q-75 0 -117 -29.5t-68 -103.5l-255 46q43 154 148 228t312 74q188 0 280 -44.5t129.5 -113t37.5 -251.5l-3 -328q0 -140 13.5 -206.5t50.5 -142.5h-278q-11 28 -27 83 q-7 25 -10 33q-72 -70 -154 -105t-175 -35q-164 0 -258.5 89t-94.5 225zM233 1196l210 295h260l207 -295h-226l-116 149l-108 -149h-227zM239 1547q-1 102 55.5 165t147.5 63q62 0 169 -54q59 -30 94 -30q61 0 73 87h130q-6 -228 -196 -228q-63 0 -166 56q-67 36 -98 36 q-78 0 -76 -95h-133zM354 319q0 -59 44 -102t112 -43q76 0 145 50q51 38 67 93q11 36 11 137v56q-54 -18 -171 -43t-153 -49q-55 -39 -55 -99z" />
<glyph unicode="&#x1eac;" horiz-adv-x="1479" d="M0 0l571 1466h313l587 -1466h-322l-128 333h-586l-121 -333h-314zM416 1516l218 130h178l218 -130h-197l-110 74l-110 -74h-197zM526 580h400l-202 544zM588 -120h281v-281h-281v281z" />
<glyph unicode="&#x1ead;" d="M73 290q0 90 43 160.5t120.5 108t223.5 65.5q197 37 273 69v28q0 81 -40 115.5t-151 34.5q-75 0 -117 -29.5t-68 -103.5l-255 46q43 154 148 228t312 74q188 0 280 -44.5t129.5 -113t37.5 -251.5l-3 -328q0 -140 13.5 -206.5t50.5 -142.5h-278q-11 28 -27 83 q-7 25 -10 33q-72 -70 -154 -105t-175 -35q-164 0 -258.5 89t-94.5 225zM233 1196l210 295h260l207 -295h-226l-116 149l-108 -149h-227zM354 319q0 -59 44 -102t112 -43q76 0 145 50q51 38 67 93q11 36 11 137v56q-54 -18 -171 -43t-153 -49q-55 -39 -55 -99zM388 -120h281 v-281h-281v281z" />
<glyph unicode="&#x1eae;" horiz-adv-x="1479" d="M0 0l571 1466h313l587 -1466h-322l-128 333h-586l-121 -333h-314zM423 1646h97q22 -25 64 -39q64 -20 129 -20q67 0 131 20q36 12 65 39h97q-31 -56 -104 -92q-77 -38 -189 -38q-35 0 -66 4q-118 14 -180 74q-29 28 -44 52zM526 580h400l-202 544zM592 1680l121 163h315 l-258 -163h-178z" />
<glyph unicode="&#x1eaf;" d="M73 290q0 90 43 160.5t120.5 108t223.5 65.5q197 37 273 69v28q0 81 -40 115.5t-151 34.5q-75 0 -117 -29.5t-68 -103.5l-255 46q43 154 148 228t312 74q188 0 280 -44.5t129.5 -113t37.5 -251.5l-3 -328q0 -140 13.5 -206.5t50.5 -142.5h-278q-11 28 -27 83 q-7 25 -10 33q-72 -70 -154 -105t-175 -35q-164 0 -258.5 89t-94.5 225zM256 1491h137q7 -71 50 -107.5t125 -36.5t125 36.5t50 107.5h137q-12 -136 -95.5 -213.5t-216.5 -77.5t-216.5 77.5t-95.5 213.5zM354 319q0 -59 44 -102t112 -43q76 0 145 50q51 38 67 93 q11 36 11 137v56q-54 -18 -171 -43t-153 -49q-55 -39 -55 -99zM439 1545l129 282h315l-266 -282h-178z" />
<glyph unicode="&#x1eb0;" horiz-adv-x="1479" d="M0 0l571 1466h313l587 -1466h-322l-128 333h-586l-121 -333h-314zM398 1843h315l118 -163h-177zM423 1646h97q22 -25 64 -39q64 -20 129 -20q67 0 131 20q36 12 65 39h97q-31 -56 -104 -92q-77 -38 -189 -38q-35 0 -66 4q-118 14 -180 74q-29 28 -44 52zM526 580h400 l-202 544z" />
<glyph unicode="&#x1eb1;" d="M73 290q0 90 43 160.5t120.5 108t223.5 65.5q197 37 273 69v28q0 81 -40 115.5t-151 34.5q-75 0 -117 -29.5t-68 -103.5l-255 46q43 154 148 228t312 74q188 0 280 -44.5t129.5 -113t37.5 -251.5l-3 -328q0 -140 13.5 -206.5t50.5 -142.5h-278q-11 28 -27 83 q-7 25 -10 33q-72 -70 -154 -105t-175 -35q-164 0 -258.5 89t-94.5 225zM253 1827h315l138 -282h-177zM256 1491h137q7 -71 50 -107.5t125 -36.5t125 36.5t50 107.5h137q-12 -136 -95.5 -213.5t-216.5 -77.5t-216.5 77.5t-95.5 213.5zM354 319q0 -59 44 -102t112 -43 q76 0 145 50q51 38 67 93q11 36 11 137v56q-54 -18 -171 -43t-153 -49q-55 -39 -55 -99z" />
<glyph unicode="&#x1eb2;" horiz-adv-x="1479" d="M0 0l571 1466h313l587 -1466h-322l-128 333h-586l-121 -333h-314zM423 1646h97q22 -25 64 -39q64 -20 129 -20q67 0 131 20q36 12 65 39h97q-31 -56 -104 -92q-77 -38 -189 -38q-35 0 -66 4q-118 14 -180 74q-29 28 -44 52zM526 580h400l-202 544zM543 1850q36 5 134 4 q262 -1 267 -70q3 -68 -169 -91v-13h-93v44q39 2 57 6q49 11 50 28q1 13 -26 22q-39 13 -123 13q-8 0 -37 -3.5t-49 -4.5z" />
<glyph unicode="&#x1eb3;" d="M73 290q0 90 43 160.5t120.5 108t223.5 65.5q197 37 273 69v28q0 81 -40 115.5t-151 34.5q-75 0 -117 -29.5t-68 -103.5l-255 46q43 154 148 228t312 74q188 0 280 -44.5t129.5 -113t37.5 -251.5l-3 -328q0 -140 13.5 -206.5t50.5 -142.5h-278q-11 28 -27 83 q-7 25 -10 33q-72 -70 -154 -105t-175 -35q-164 0 -258.5 89t-94.5 225zM256 1491h137q7 -71 50 -107.5t125 -36.5t125 36.5t50 107.5h137q-12 -136 -95.5 -213.5t-216.5 -77.5t-216.5 77.5t-95.5 213.5zM354 319q0 -59 44 -102t112 -43q76 0 145 50q51 38 67 93 q11 36 11 137v56q-54 -18 -171 -43t-153 -49q-55 -39 -55 -99zM373 1847q39 8 144 7q123 -1 201 -40q86 -42 88 -117q4 -104 -182 -127v-50h-112v110q57 6 73 11q53 13 54 46q1 23 -28 39q-42 23 -133 23q-31 0 -94 -4z" />
<glyph unicode="&#x1eb4;" horiz-adv-x="1479" d="M0 0l571 1466h313l587 -1466h-322l-128 333h-586l-121 -333h-314zM380 1680q-1 67 55.5 117.5t147.5 50.5q62 0 169 -44q77 -24 112 -24q61 0 73 70h112q-6 -167 -196 -167q-63 0 -166 44q-88 29 -119 29q-64 0 -76 -76h-112zM423 1646h97q22 -25 64 -39q64 -20 129 -20 q67 0 131 20q36 12 65 39h97q-31 -56 -104 -92q-77 -38 -189 -38q-35 0 -66 4q-118 14 -180 74q-29 28 -44 52zM526 580h400l-202 544z" />
<glyph unicode="&#x1eb5;" d="M73 290q0 90 43 160.5t120.5 108t223.5 65.5q197 37 273 69v28q0 81 -40 115.5t-151 34.5q-75 0 -117 -29.5t-68 -103.5l-255 46q43 154 148 228t312 74q188 0 280 -44.5t129.5 -113t37.5 -251.5l-3 -328q0 -140 13.5 -206.5t50.5 -142.5h-278q-11 28 -27 83 q-7 25 -10 33q-72 -70 -154 -105t-175 -35q-164 0 -258.5 89t-94.5 225zM239 1547q-1 102 55.5 165t147.5 63q62 0 169 -54q59 -30 94 -30q61 0 73 87h130q-6 -228 -196 -228q-63 0 -166 56q-67 36 -98 36q-78 0 -76 -95h-133zM256 1491h137q7 -71 50 -107.5t125 -36.5 t125 36.5t50 107.5h137q-12 -136 -95.5 -213.5t-216.5 -77.5t-216.5 77.5t-95.5 213.5zM354 319q0 -59 44 -102t112 -43q76 0 145 50q51 38 67 93q11 36 11 137v56q-54 -18 -171 -43t-153 -49q-55 -39 -55 -99z" />
<glyph unicode="&#x1eb6;" horiz-adv-x="1479" d="M0 0l571 1466h313l587 -1466h-322l-128 333h-586l-121 -333h-314zM423 1646h97q22 -25 64 -39q64 -20 129 -20q67 0 131 20q36 12 65 39h97q-31 -56 -104 -92q-77 -38 -189 -38q-35 0 -66 4q-118 14 -180 74q-29 28 -44 52zM526 580h400l-202 544zM588 -120h281v-281 h-281v281z" />
<glyph unicode="&#x1eb7;" d="M73 290q0 90 43 160.5t120.5 108t223.5 65.5q197 37 273 69v28q0 81 -40 115.5t-151 34.5q-75 0 -117 -29.5t-68 -103.5l-255 46q43 154 148 228t312 74q188 0 280 -44.5t129.5 -113t37.5 -251.5l-3 -328q0 -140 13.5 -206.5t50.5 -142.5h-278q-11 28 -27 83 q-7 25 -10 33q-72 -70 -154 -105t-175 -35q-164 0 -258.5 89t-94.5 225zM256 1491h137q7 -71 50 -107.5t125 -36.5t125 36.5t50 107.5h137q-12 -136 -95.5 -213.5t-216.5 -77.5t-216.5 77.5t-95.5 213.5zM354 319q0 -59 44 -102t112 -43q76 0 145 50q51 38 67 93 q11 36 11 137v56q-54 -18 -171 -43t-153 -49q-55 -39 -55 -99zM388 -120h281v-281h-281v281z" />
<glyph unicode="&#x1eb8;" horiz-adv-x="1366" d="M149 0v1466h1087v-248h-791v-325h736v-247h-736v-399h819v-247h-1115zM588 -120h281v-281h-281v281z" />
<glyph unicode="&#x1eb9;" d="M65 523q0 264 138 413.5t349 149.5q237 0 374 -156.5t131 -479.5h-704q3 -125 68 -194.5t162 -69.5q66 0 111 36t68 116l280 -47q-54 -154 -170.5 -234.5t-291.5 -80.5q-277 0 -410 181q-105 145 -105 366zM358 622h420q-3 122 -63 185.5t-146 63.5q-92 0 -152 -67 t-59 -182zM428 -120h281v-281h-281v281z" />
<glyph unicode="&#x1eba;" horiz-adv-x="1366" d="M149 0v1466h1087v-248h-791v-325h736v-247h-736v-399h819v-247h-1115zM498 1847q39 8 144 7q123 -1 201 -40q86 -42 88 -117q4 -104 -182 -127v-50h-112v110q57 6 73 11q53 13 54 46q1 23 -28 39q-42 23 -133 23q-31 0 -94 -4z" />
<glyph unicode="&#x1ebb;" d="M65 523q0 264 138 413.5t349 149.5q237 0 374 -156.5t131 -479.5h-704q3 -125 68 -194.5t162 -69.5q66 0 111 36t68 116l280 -47q-54 -154 -170.5 -234.5t-291.5 -80.5q-277 0 -410 181q-105 145 -105 366zM357 1519q39 8 144 7q123 -1 201 -40q86 -42 88 -117 q4 -104 -182 -127v-50h-112v110q57 6 73 11q53 13 54 46q1 23 -28 39q-42 23 -133 23q-31 0 -94 -4zM358 622h420q-3 122 -63 185.5t-146 63.5q-92 0 -152 -67t-59 -182z" />
<glyph unicode="&#x1ebc;" horiz-adv-x="1366" d="M149 0v1466h1087v-248h-791v-325h736v-247h-736v-399h819v-247h-1115zM347 1583q0 105 51 161.5t131 56.5q35 0 65 -7.5t109.5 -43t124.5 -35.5q32 0 53.5 20t27.5 67h130q-1 -135 -50.5 -193t-127.5 -58q-34 0 -67 7q-23 6 -115 41t-134 35q-32 0 -50 -19.5t-19 -67.5 h-128q-1 23 -1 36z" />
<glyph unicode="&#x1ebd;" d="M65 523q0 264 138 413.5t349 149.5q237 0 374 -156.5t131 -479.5h-704q3 -125 68 -194.5t162 -69.5q66 0 111 36t68 116l280 -47q-54 -154 -170.5 -234.5t-291.5 -80.5q-277 0 -410 181q-105 145 -105 366zM234 1241q0 105 51 161.5t131 56.5q35 0 65 -7.5t109.5 -43 t124.5 -35.5q32 0 53.5 20t27.5 67h130q-1 -135 -50.5 -193t-127.5 -58q-34 0 -67 7q-23 6 -115 41t-134 35q-32 0 -50 -19.5t-19 -67.5h-128q-1 23 -1 36zM358 622h420q-3 122 -63 185.5t-146 63.5q-92 0 -152 -67t-59 -182z" />
<glyph unicode="&#x1ebe;" horiz-adv-x="1366" d="M149 0v1466h1087v-248h-791v-325h736v-247h-736v-399h819v-247h-1115zM416 1516l218 130h178l218 -130h-197l-110 74l-110 -74h-197zM602 1680l121 163h315l-258 -163h-178z" />
<glyph unicode="&#x1ebf;" d="M65 523q0 264 138 413.5t349 149.5q237 0 374 -156.5t131 -479.5h-704q3 -125 68 -194.5t162 -69.5q66 0 111 36t68 116l280 -47q-54 -154 -170.5 -234.5t-291.5 -80.5q-277 0 -410 181q-105 145 -105 366zM223 1196l210 295h260l207 -295h-226l-116 149l-108 -149h-227z M358 622h420q-3 122 -63 185.5t-146 63.5q-92 0 -152 -67t-59 -182zM429 1545l129 282h315l-266 -282h-178z" />
<glyph unicode="&#x1ec0;" horiz-adv-x="1366" d="M149 0v1466h1087v-248h-791v-325h736v-247h-736v-399h819v-247h-1115zM408 1843h315l118 -163h-177zM416 1516l218 130h178l218 -130h-197l-110 74l-110 -74h-197z" />
<glyph unicode="&#x1ec1;" d="M65 523q0 264 138 413.5t349 149.5q237 0 374 -156.5t131 -479.5h-704q3 -125 68 -194.5t162 -69.5q66 0 111 36t68 116l280 -47q-54 -154 -170.5 -234.5t-291.5 -80.5q-277 0 -410 181q-105 145 -105 366zM223 1196l210 295h260l207 -295h-226l-116 149l-108 -149h-227z M243 1827h315l138 -282h-177zM358 622h420q-3 122 -63 185.5t-146 63.5q-92 0 -152 -67t-59 -182z" />
<glyph unicode="&#x1ec2;" horiz-adv-x="1366" d="M149 0v1466h1087v-248h-791v-325h736v-247h-736v-399h819v-247h-1115zM416 1516l218 130h178l218 -130h-197l-110 74l-110 -74h-197zM543 1850q36 5 134 4q262 -1 267 -70q3 -68 -169 -91v-13h-93v44q39 2 57 6q49 11 50 28q1 13 -26 22q-39 13 -123 13q-8 0 -37 -3.5 t-49 -4.5z" />
<glyph unicode="&#x1ec3;" d="M65 523q0 264 138 413.5t349 149.5q237 0 374 -156.5t131 -479.5h-704q3 -125 68 -194.5t162 -69.5q66 0 111 36t68 116l280 -47q-54 -154 -170.5 -234.5t-291.5 -80.5q-277 0 -410 181q-105 145 -105 366zM223 1196l210 295h260l207 -295h-226l-116 149l-108 -149h-227z M358 622h420q-3 122 -63 185.5t-146 63.5q-92 0 -152 -67t-59 -182zM363 1847q39 8 144 7q123 -1 201 -40q86 -42 88 -117q4 -104 -182 -127v-50h-112v110q57 6 73 11q53 13 54 46q1 23 -28 39q-42 23 -133 23q-31 0 -94 -4z" />
<glyph unicode="&#x1ec4;" horiz-adv-x="1366" d="M149 0v1466h1087v-248h-791v-325h736v-247h-736v-399h819v-247h-1115zM389 1680q-1 67 55.5 117.5t147.5 50.5q62 0 169 -44q77 -24 112 -24q61 0 73 70h112q-6 -167 -196 -167q-63 0 -166 44q-88 29 -119 29q-64 0 -76 -76h-112zM416 1516l218 130h178l218 -130h-197 l-110 74l-110 -74h-197z" />
<glyph unicode="&#x1ec5;" d="M65 523q0 264 138 413.5t349 149.5q237 0 374 -156.5t131 -479.5h-704q3 -125 68 -194.5t162 -69.5q66 0 111 36t68 116l280 -47q-54 -154 -170.5 -234.5t-291.5 -80.5q-277 0 -410 181q-105 145 -105 366zM223 1196l210 295h260l207 -295h-226l-116 149l-108 -149h-227z M239 1547q-1 102 55.5 165t147.5 63q62 0 169 -54q59 -30 94 -30q61 0 73 87h130q-6 -228 -196 -228q-63 0 -166 56q-67 36 -98 36q-78 0 -76 -95h-133zM358 622h420q-3 122 -63 185.5t-146 63.5q-92 0 -152 -67t-59 -182z" />
<glyph unicode="&#x1ec6;" horiz-adv-x="1366" d="M149 0v1466h1087v-248h-791v-325h736v-247h-736v-399h819v-247h-1115zM416 1516l218 130h178l218 -130h-197l-110 74l-110 -74h-197zM588 -120h281v-281h-281v281z" />
<glyph unicode="&#x1ec7;" d="M65 523q0 264 138 413.5t349 149.5q237 0 374 -156.5t131 -479.5h-704q3 -125 68 -194.5t162 -69.5q66 0 111 36t68 116l280 -47q-54 -154 -170.5 -234.5t-291.5 -80.5q-277 0 -410 181q-105 145 -105 366zM223 1196l210 295h260l207 -295h-226l-116 149l-108 -149h-227z M358 622h420q-3 122 -63 185.5t-146 63.5q-92 0 -152 -67t-59 -182zM428 -120h281v-281h-281v281z" />
<glyph unicode="&#x1ec8;" horiz-adv-x="569" d="M106 1847q39 8 144 7q123 -1 201 -40q86 -42 88 -117q4 -104 -182 -127v-50h-112v110q57 6 73 11q53 13 54 46q1 23 -28 39q-42 23 -133 23q-31 0 -94 -4zM140 0v1466h296v-1466h-296z" />
<glyph unicode="&#x1ec9;" horiz-adv-x="569" d="M93 1519q39 8 144 7q123 -1 201 -40q86 -42 88 -117q4 -104 -182 -127v-50h-112v110q57 6 73 11q53 13 54 46q1 23 -28 39q-42 23 -133 23q-31 0 -94 -4zM147 0v1062h281v-1062h-281z" />
<glyph unicode="&#x1eca;" horiz-adv-x="569" d="M140 0v1466h296v-1466h-296zM148 -120h281v-281h-281v281z" />
<glyph unicode="&#x1ecb;" horiz-adv-x="569" d="M147 0v1062h281v-1062h-281zM147 1206v260h281v-260h-281zM148 -120h281v-281h-281v281z" />
<glyph unicode="&#x1ecc;" horiz-adv-x="1593" d="M89 724q0 224 67 376q50 112 136.5 201t189.5 132q137 58 316 58q324 0 518.5 -201t194.5 -559q0 -355 -193 -555.5t-516 -200.5q-327 0 -520 199.5t-193 549.5zM394 734q0 -249 115 -377.5t292 -128.5t290.5 127.5t113.5 382.5q0 252 -110.5 376t-293.5 124t-295 -125.5 t-112 -378.5zM648 -120h281v-281h-281v281z" />
<glyph unicode="&#x1ecd;" horiz-adv-x="1251" d="M82 546q0 140 69 271t195.5 200t282.5 69q241 0 395 -156.5t154 -395.5q0 -241 -155.5 -399.5t-391.5 -158.5q-146 0 -278.5 66t-201.5 193.5t-69 310.5zM370 531q0 -158 75 -242t185 -84t184.5 84t74.5 244q0 156 -74.5 240t-184.5 84t-185 -84t-75 -242zM478 -120h281 v-281h-281v281z" />
<glyph unicode="&#x1ece;" horiz-adv-x="1593" d="M89 724q0 224 67 376q50 112 136.5 201t189.5 132q137 58 316 58q324 0 518.5 -201t194.5 -559q0 -355 -193 -555.5t-516 -200.5q-327 0 -520 199.5t-193 549.5zM394 734q0 -249 115 -377.5t292 -128.5t290.5 127.5t113.5 382.5q0 252 -110.5 376t-293.5 124t-295 -125.5 t-112 -378.5zM603 1847q39 8 144 7q123 -1 201 -40q86 -42 88 -117q4 -104 -182 -127v-50h-112v110q57 6 73 11q53 13 54 46q1 23 -28 39q-42 23 -133 23q-31 0 -94 -4z" />
<glyph unicode="&#x1ecf;" horiz-adv-x="1251" d="M82 546q0 140 69 271t195.5 200t282.5 69q241 0 395 -156.5t154 -395.5q0 -241 -155.5 -399.5t-391.5 -158.5q-146 0 -278.5 66t-201.5 193.5t-69 310.5zM370 531q0 -158 75 -242t185 -84t184.5 84t74.5 244q0 156 -74.5 240t-184.5 84t-185 -84t-75 -242zM434 1519 q39 8 144 7q123 -1 201 -40q86 -42 88 -117q4 -104 -182 -127v-50h-112v110q57 6 73 11q53 13 54 46q1 23 -28 39q-42 23 -133 23q-31 0 -94 -4z" />
<glyph unicode="&#x1ed0;" horiz-adv-x="1593" d="M89 724q0 224 67 376q50 112 136.5 201t189.5 132q137 58 316 58q324 0 518.5 -201t194.5 -559q0 -355 -193 -555.5t-516 -200.5q-327 0 -520 199.5t-193 549.5zM394 734q0 -249 115 -377.5t292 -128.5t290.5 127.5t113.5 382.5q0 252 -110.5 376t-293.5 124t-295 -125.5 t-112 -378.5zM489 1516l218 130h178l218 -130h-197l-110 74l-110 -74h-197zM675 1680l121 163h315l-258 -163h-178z" />
<glyph unicode="&#x1ed1;" horiz-adv-x="1251" d="M82 546q0 140 69 271t195.5 200t282.5 69q241 0 395 -156.5t154 -395.5q0 -241 -155.5 -399.5t-391.5 -158.5q-146 0 -278.5 66t-201.5 193.5t-69 310.5zM291 1196l210 295h260l207 -295h-226l-116 149l-108 -149h-227zM370 531q0 -158 75 -242t185 -84t184.5 84 t74.5 244q0 156 -74.5 240t-184.5 84t-185 -84t-75 -242zM497 1545l129 282h315l-266 -282h-178z" />
<glyph unicode="&#x1ed2;" horiz-adv-x="1593" d="M89 724q0 224 67 376q50 112 136.5 201t189.5 132q137 58 316 58q324 0 518.5 -201t194.5 -559q0 -355 -193 -555.5t-516 -200.5q-327 0 -520 199.5t-193 549.5zM394 734q0 -249 115 -377.5t292 -128.5t290.5 127.5t113.5 382.5q0 252 -110.5 376t-293.5 124t-295 -125.5 t-112 -378.5zM481 1843h315l118 -163h-177zM489 1516l218 130h178l218 -130h-197l-110 74l-110 -74h-197z" />
<glyph unicode="&#x1ed3;" horiz-adv-x="1251" d="M82 546q0 140 69 271t195.5 200t282.5 69q241 0 395 -156.5t154 -395.5q0 -241 -155.5 -399.5t-391.5 -158.5q-146 0 -278.5 66t-201.5 193.5t-69 310.5zM291 1196l210 295h260l207 -295h-226l-116 149l-108 -149h-227zM311 1827h315l138 -282h-177zM370 531 q0 -158 75 -242t185 -84t184.5 84t74.5 244q0 156 -74.5 240t-184.5 84t-185 -84t-75 -242z" />
<glyph unicode="&#x1ed4;" horiz-adv-x="1593" d="M89 724q0 224 67 376q50 112 136.5 201t189.5 132q137 58 316 58q324 0 518.5 -201t194.5 -559q0 -355 -193 -555.5t-516 -200.5q-327 0 -520 199.5t-193 549.5zM394 734q0 -249 115 -377.5t292 -128.5t290.5 127.5t113.5 382.5q0 252 -110.5 376t-293.5 124t-295 -125.5 t-112 -378.5zM489 1516l218 130h178l218 -130h-197l-110 74l-110 -74h-197zM613 1850q36 5 134 4q262 -1 267 -70q3 -68 -169 -91v-13h-93v44q39 2 57 6q49 11 50 28q1 13 -26 22q-39 13 -123 13q-8 0 -37 -3.5t-49 -4.5z" />
<glyph unicode="&#x1ed5;" horiz-adv-x="1251" d="M82 546q0 140 69 271t195.5 200t282.5 69q241 0 395 -156.5t154 -395.5q0 -241 -155.5 -399.5t-391.5 -158.5q-146 0 -278.5 66t-201.5 193.5t-69 310.5zM291 1196l210 295h260l207 -295h-226l-116 149l-108 -149h-227zM370 531q0 -158 75 -242t185 -84t184.5 84 t74.5 244q0 156 -74.5 240t-184.5 84t-185 -84t-75 -242zM431 1847q39 8 144 7q123 -1 201 -40q86 -42 88 -117q4 -104 -182 -127v-50h-112v110q57 6 73 11q53 13 54 46q1 23 -28 39q-42 23 -133 23q-31 0 -94 -4z" />
<glyph unicode="&#x1ed6;" horiz-adv-x="1593" d="M89 724q0 224 67 376q50 112 136.5 201t189.5 132q137 58 316 58q324 0 518.5 -201t194.5 -559q0 -355 -193 -555.5t-516 -200.5q-327 0 -520 199.5t-193 549.5zM394 734q0 -249 115 -377.5t292 -128.5t290.5 127.5t113.5 382.5q0 252 -110.5 376t-293.5 124t-295 -125.5 t-112 -378.5zM462 1680q-1 67 55.5 117.5t147.5 50.5q62 0 169 -44q77 -24 112 -24q61 0 73 70h112q-6 -167 -196 -167q-63 0 -166 44q-88 29 -119 29q-64 0 -76 -76h-112zM489 1516l218 130h178l218 -130h-197l-110 74l-110 -74h-197z" />
<glyph unicode="&#x1ed7;" horiz-adv-x="1251" d="M82 546q0 140 69 271t195.5 200t282.5 69q241 0 395 -156.5t154 -395.5q0 -241 -155.5 -399.5t-391.5 -158.5q-146 0 -278.5 66t-201.5 193.5t-69 310.5zM289 1547q-1 102 55.5 165t147.5 63q62 0 169 -54q59 -30 94 -30q61 0 73 87h130q-6 -228 -196 -228q-63 0 -166 56 q-67 36 -98 36q-78 0 -76 -95h-133zM291 1196l210 295h260l207 -295h-226l-116 149l-108 -149h-227zM370 531q0 -158 75 -242t185 -84t184.5 84t74.5 244q0 156 -74.5 240t-184.5 84t-185 -84t-75 -242z" />
<glyph unicode="&#x1ed8;" horiz-adv-x="1593" d="M89 724q0 224 67 376q50 112 136.5 201t189.5 132q137 58 316 58q324 0 518.5 -201t194.5 -559q0 -355 -193 -555.5t-516 -200.5q-327 0 -520 199.5t-193 549.5zM394 734q0 -249 115 -377.5t292 -128.5t290.5 127.5t113.5 382.5q0 252 -110.5 376t-293.5 124t-295 -125.5 t-112 -378.5zM489 1516l218 130h178l218 -130h-197l-110 74l-110 -74h-197zM648 -120h281v-281h-281v281z" />
<glyph unicode="&#x1ed9;" horiz-adv-x="1251" d="M82 546q0 140 69 271t195.5 200t282.5 69q241 0 395 -156.5t154 -395.5q0 -241 -155.5 -399.5t-391.5 -158.5q-146 0 -278.5 66t-201.5 193.5t-69 310.5zM291 1196l210 295h260l207 -295h-226l-116 149l-108 -149h-227zM370 531q0 -158 75 -242t185 -84t184.5 84 t74.5 244q0 156 -74.5 240t-184.5 84t-185 -84t-75 -242zM478 -120h281v-281h-281v281z" />
<glyph unicode="&#x1eda;" horiz-adv-x="1747" d="M89 724q0 368 204 577q184 190 505 190q324 0 519 -201q117 -122 164 -301q117 53 121 196h-136v281h281v-201q0 -124 -21.5 -194t-78.5 -124.5t-143 -86.5q7 -62 7 -129q0 -352 -192 -554t-517 -202q-328 0 -520.5 200.5t-192.5 548.5zM394 734q0 -242 115 -378 q109 -128 292 -128t291 128q113 134 113 382q0 246 -110 376q-106 124 -294 124t-295 -126q-112 -131 -112 -378zM618 1550l138 299h315l-275 -299h-178z" />
<glyph unicode="&#x1edb;" horiz-adv-x="1456" d="M82 546q0 144 69 271q72 133 197 201t281 68q241 0 395 -156q139 -142 153 -351q130 53 134 202h-136v281h281v-201q0 -124 -21.5 -194t-79.5 -125q-67 -65 -183 -102q-25 -179 -149 -305q-156 -159 -392 -159q-151 0 -278 66q-135 70 -203 195.5t-68 308.5zM370 531 q0 -153 75 -242q71 -84 185 -84t184 84q75 89 75 244q0 152 -75 240q-70 84 -184 84t-185 -84q-75 -89 -75 -242zM488 1192l138 299h315l-275 -299h-178z" />
<glyph unicode="&#x1edc;" horiz-adv-x="1747" d="M89 724q0 368 204 577q184 190 505 190q324 0 519 -201q117 -122 164 -301q117 53 121 196h-136v281h281v-201q0 -124 -21.5 -194t-78.5 -124.5t-143 -86.5q7 -62 7 -129q0 -352 -192 -554t-517 -202q-328 0 -520.5 200.5t-192.5 548.5zM394 734q0 -242 115 -378 q109 -128 292 -128t291 128q113 134 113 382q0 246 -110 376q-106 124 -294 124t-295 -126q-112 -131 -112 -378zM502 1849h315l138 -299h-177z" />
<glyph unicode="&#x1edd;" horiz-adv-x="1456" d="M82 546q0 144 69 271q72 133 197 201t281 68q241 0 395 -156q139 -142 153 -351q130 53 134 202h-136v281h281v-201q0 -124 -21.5 -194t-79.5 -125q-67 -65 -183 -102q-25 -179 -149 -305q-156 -159 -392 -159q-151 0 -278 66q-135 70 -203 195.5t-68 308.5zM318 1491 h315l138 -299h-177zM370 531q0 -153 75 -242q71 -84 185 -84t184 84q75 89 75 244q0 152 -75 240q-70 84 -184 84t-185 -84q-75 -89 -75 -242z" />
<glyph unicode="&#x1ede;" horiz-adv-x="1747" d="M89 724q0 368 204 577q184 190 505 190q324 0 519 -201q117 -122 164 -301q117 53 121 196h-136v281h281v-201q0 -124 -21.5 -194t-78.5 -124.5t-143 -86.5q7 -62 7 -129q0 -352 -192 -554t-517 -202q-328 0 -520.5 200.5t-192.5 548.5zM394 734q0 -242 115 -378 q109 -128 292 -128t291 128q113 134 113 382q0 246 -110 376q-106 124 -294 124t-295 -126q-112 -131 -112 -378zM603 1847q39 8 144 7q123 -1 201 -40q86 -42 88 -117q4 -104 -182 -127v-50h-112v110q57 6 73 11q53 13 54 46q1 23 -28 39q-42 23 -133 23q-31 0 -94 -4z" />
<glyph unicode="&#x1edf;" horiz-adv-x="1456" d="M82 546q0 144 69 271q72 133 197 201t281 68q241 0 395 -156q139 -142 153 -351q130 53 134 202h-136v281h281v-201q0 -124 -21.5 -194t-79.5 -125q-67 -65 -183 -102q-25 -179 -149 -305q-156 -159 -392 -159q-151 0 -278 66q-135 70 -203 195.5t-68 308.5zM370 531 q0 -153 75 -242q71 -84 185 -84t184 84q75 89 75 244q0 152 -75 240q-70 84 -184 84t-185 -84q-75 -89 -75 -242zM434 1519q39 8 144 7q123 -1 201 -40q86 -42 88 -117q4 -104 -182 -127v-50h-112v110q57 6 73 11q53 13 54 46q1 23 -28 39q-42 23 -133 23q-31 0 -94 -4z" />
<glyph unicode="&#x1ee0;" horiz-adv-x="1747" d="M89 724q0 368 204 577q184 190 505 190q324 0 519 -201q117 -122 164 -301q117 53 121 196h-136v281h281v-201q0 -124 -21.5 -194t-78.5 -124.5t-143 -86.5q7 -62 7 -129q0 -352 -192 -554t-517 -202q-328 0 -520.5 200.5t-192.5 548.5zM394 734q0 -242 115 -378 q109 -128 292 -128t291 128q113 134 113 382q0 246 -110 376q-106 124 -294 124t-295 -126q-112 -131 -112 -378zM430 1583q0 105 51 161.5t131 56.5q35 0 65 -7.5t109.5 -43t124.5 -35.5q32 0 53.5 20t27.5 67h130q-1 -135 -50.5 -193t-127.5 -58q-34 0 -67 7 q-23 6 -115 41t-134 35q-32 0 -50 -19.5t-19 -67.5h-128q-1 23 -1 36z" />
<glyph unicode="&#x1ee1;" horiz-adv-x="1456" d="M82 546q0 144 69 271q72 133 197 201t281 68q241 0 395 -156q139 -142 153 -351q130 53 134 202h-136v281h281v-201q0 -124 -21.5 -194t-79.5 -125q-67 -65 -183 -102q-25 -179 -149 -305q-156 -159 -392 -159q-151 0 -278 66q-135 70 -203 195.5t-68 308.5zM284 1241 q0 105 51 161.5t131 56.5q35 0 65 -7.5t109.5 -43t124.5 -35.5q32 0 53.5 20t27.5 67h130q-1 -135 -50.5 -193t-127.5 -58q-34 0 -67 7q-23 6 -115 41t-134 35q-32 0 -50 -19.5t-19 -67.5h-128q-1 23 -1 36zM370 531q0 -153 75 -242q71 -84 185 -84t184 84q75 89 75 244 q0 152 -75 240q-70 84 -184 84t-185 -84q-75 -89 -75 -242z" />
<glyph unicode="&#x1ee2;" horiz-adv-x="1747" d="M89 724q0 368 204 577q184 190 505 190q324 0 519 -201q117 -122 164 -301q117 53 121 196h-136v281h281v-201q0 -124 -21.5 -194t-78.5 -124.5t-143 -86.5q7 -62 7 -129q0 -352 -192 -554t-517 -202q-328 0 -520.5 200.5t-192.5 548.5zM394 734q0 -242 115 -378 q109 -128 292 -128t291 128q113 134 113 382q0 246 -110 376q-106 124 -294 124t-295 -126q-112 -131 -112 -378zM648 -120h281v-281h-281v281z" />
<glyph unicode="&#x1ee3;" horiz-adv-x="1456" d="M82 546q0 144 69 271q72 133 197 201t281 68q241 0 395 -156q139 -142 153 -351q130 53 134 202h-136v281h281v-201q0 -124 -21.5 -194t-79.5 -125q-67 -65 -183 -102q-25 -179 -149 -305q-156 -159 -392 -159q-151 0 -278 66q-135 70 -203 195.5t-68 308.5zM370 531 q0 -153 75 -242q71 -84 185 -84t184 84q75 89 75 244q0 152 -75 240q-70 84 -184 84t-185 -84q-75 -89 -75 -242zM478 -120h281v-281h-281v281z" />
<glyph unicode="&#x1ee4;" horiz-adv-x="1479" d="M147 684v782h296v-794q0 -189 11 -245q19 -90 90.5 -144.5t195.5 -54.5q126 0 190 51.5t77 126.5t13 249v811h296v-770q0 -264 -24 -373t-88.5 -184t-172.5 -119.5t-282 -44.5q-210 0 -318.5 48.5t-171.5 126t-83 162.5q-29 126 -29 372zM598 -120h281v-281h-281v281z " />
<glyph unicode="&#x1ee5;" horiz-adv-x="1251" d="M141 390v672h281v-488q0 -224 15.5 -274.5t56.5 -80t104 -29.5q72 0 129 39.5t78 98t21 286.5v448h281v-1062h-261v159q-58 -85 -152.5 -134t-199.5 -49q-107 0 -192 47t-123 132t-38 235zM458 -120h281v-281h-281v281z" />
<glyph unicode="&#x1ee6;" horiz-adv-x="1479" d="M147 684v782h296v-794q0 -189 11 -245q19 -90 90.5 -144.5t195.5 -54.5q126 0 190 51.5t77 126.5t13 249v811h296v-770q0 -264 -24 -373t-88.5 -184t-172.5 -119.5t-282 -44.5q-210 0 -318.5 48.5t-171.5 126t-83 162.5q-29 126 -29 372zM536 1847q39 8 144 7 q123 -1 201 -40q86 -42 88 -117q4 -104 -182 -127v-50h-112v110q57 6 73 11q53 13 54 46q1 23 -28 39q-42 23 -133 23q-31 0 -94 -4z" />
<glyph unicode="&#x1ee7;" horiz-adv-x="1251" d="M141 390v672h281v-488q0 -224 15.5 -274.5t56.5 -80t104 -29.5q72 0 129 39.5t78 98t21 286.5v448h281v-1062h-261v159q-58 -85 -152.5 -134t-199.5 -49q-107 0 -192 47t-123 132t-38 235zM435 1519q39 8 144 7q123 -1 201 -40q86 -42 88 -117q4 -104 -182 -127v-50h-112 v110q57 6 73 11q53 13 54 46q1 23 -28 39q-42 23 -133 23q-31 0 -94 -4z" />
<glyph unicode="&#x1ee8;" horiz-adv-x="1699" d="M147 684v782h296v-794q0 -191 11 -245q41 -199 286 -199q236 0 267 178q13 75 13 249v811h296v-523q145 27 202 105q34 46 36 137h-136v281h281v-201q0 -124 -21.5 -194t-78.5 -125q-92 -88 -283 -117v-133q0 -259 -24 -373q-23 -107 -88 -184q-142 -164 -455 -164 q-348 0 -490 175q-63 77 -83 162q-29 125 -29 372zM550 1550l138 299h315l-275 -299h-178z" />
<glyph unicode="&#x1ee9;" horiz-adv-x="1483" d="M141 390v672h281v-488q0 -210 16 -274q11 -48 56 -80q41 -30 104 -30q71 0 128.5 39t78.5 98t21 287v448h281v-522q139 28 195 104q34 46 36 137h-136v281h281v-201q0 -124 -21.5 -194t-79.5 -125q-89 -86 -275 -116v-426h-261v159q-125 -183 -352 -183q-235 0 -315 179 q-38 85 -38 235zM482 1192l138 299h315l-275 -299h-178z" />
<glyph unicode="&#x1eea;" horiz-adv-x="1699" d="M147 684v782h296v-794q0 -191 11 -245q41 -199 286 -199q236 0 267 178q13 75 13 249v811h296v-523q145 27 202 105q34 46 36 137h-136v281h281v-201q0 -124 -21.5 -194t-78.5 -125q-92 -88 -283 -117v-133q0 -259 -24 -373q-23 -107 -88 -184q-142 -164 -455 -164 q-348 0 -490 175q-63 77 -83 162q-29 125 -29 372zM434 1849h315l138 -299h-177z" />
<glyph unicode="&#x1eeb;" horiz-adv-x="1483" d="M141 390v672h281v-488q0 -210 16 -274q11 -48 56 -80q41 -30 104 -30q71 0 128.5 39t78.5 98t21 287v448h281v-522q139 28 195 104q34 46 36 137h-136v281h281v-201q0 -124 -21.5 -194t-79.5 -125q-89 -86 -275 -116v-426h-261v159q-125 -183 -352 -183q-235 0 -315 179 q-38 85 -38 235zM313 1491h315l138 -299h-177z" />
<glyph unicode="&#x1eec;" horiz-adv-x="1699" d="M147 684v782h296v-794q0 -191 11 -245q41 -199 286 -199q236 0 267 178q13 75 13 249v811h296v-523q145 27 202 105q34 46 36 137h-136v281h281v-201q0 -124 -21.5 -194t-78.5 -125q-92 -88 -283 -117v-133q0 -259 -24 -373q-23 -107 -88 -184q-142 -164 -455 -164 q-348 0 -490 175q-63 77 -83 162q-29 125 -29 372zM536 1847q39 8 144 7q123 -1 201 -40q86 -42 88 -117q4 -104 -182 -127v-50h-112v110q57 6 73 11q53 13 54 46q1 23 -28 39q-42 23 -133 23q-31 0 -94 -4z" />
<glyph unicode="&#x1eed;" horiz-adv-x="1483" d="M141 390v672h281v-488q0 -210 16 -274q11 -48 56 -80q41 -30 104 -30q71 0 128.5 39t78.5 98t21 287v448h281v-522q139 28 195 104q34 46 36 137h-136v281h281v-201q0 -124 -21.5 -194t-79.5 -125q-89 -86 -275 -116v-426h-261v159q-125 -183 -352 -183q-235 0 -315 179 q-38 85 -38 235zM435 1519q39 8 144 7q123 -1 201 -40q86 -42 88 -117q4 -104 -182 -127v-50h-112v110q57 6 73 11q53 13 54 46q1 23 -28 39q-42 23 -133 23q-31 0 -94 -4z" />
<glyph unicode="&#x1eee;" horiz-adv-x="1699" d="M147 684v782h296v-794q0 -191 11 -245q41 -199 286 -199q236 0 267 178q13 75 13 249v811h296v-523q145 27 202 105q34 46 36 137h-136v281h281v-201q0 -124 -21.5 -194t-78.5 -125q-92 -88 -283 -117v-133q0 -259 -24 -373q-23 -107 -88 -184q-142 -164 -455 -164 q-348 0 -490 175q-63 77 -83 162q-29 125 -29 372zM386 1583q0 105 51 161.5t131 56.5q35 0 65 -7.5t109.5 -43t124.5 -35.5q32 0 53.5 20t27.5 67h130q-1 -135 -50.5 -193t-127.5 -58q-34 0 -67 7q-23 6 -115 41t-134 35q-32 0 -50 -19.5t-19 -67.5h-128q-1 23 -1 36z" />
<glyph unicode="&#x1eef;" horiz-adv-x="1483" d="M141 390v672h281v-488q0 -210 16 -274q11 -48 56 -80q41 -30 104 -30q71 0 128.5 39t78.5 98t21 287v448h281v-522q139 28 195 104q34 46 36 137h-136v281h281v-201q0 -124 -21.5 -194t-79.5 -125q-89 -86 -275 -116v-426h-261v159q-125 -183 -352 -183q-235 0 -315 179 q-38 85 -38 235zM272 1241q0 105 51 161.5t131 56.5q35 0 65 -7.5t109.5 -43t124.5 -35.5q32 0 53.5 20t27.5 67h130q-1 -135 -50.5 -193t-127.5 -58q-34 0 -67 7q-23 6 -115 41t-134 35q-32 0 -50 -19.5t-19 -67.5h-128q-1 23 -1 36z" />
<glyph unicode="&#x1ef0;" horiz-adv-x="1699" d="M147 684v782h296v-794q0 -191 11 -245q41 -199 286 -199q236 0 267 178q13 75 13 249v811h296v-523q145 27 202 105q34 46 36 137h-136v281h281v-201q0 -124 -21.5 -194t-78.5 -125q-92 -88 -283 -117v-133q0 -259 -24 -373q-23 -107 -88 -184q-142 -164 -455 -164 q-348 0 -490 175q-63 77 -83 162q-29 125 -29 372zM598 -120h281v-281h-281v281z" />
<glyph unicode="&#x1ef1;" horiz-adv-x="1483" d="M141 390v672h281v-488q0 -210 16 -274q11 -48 56 -80q41 -30 104 -30q71 0 128.5 39t78.5 98t21 287v448h281v-522q139 28 195 104q34 46 36 137h-136v281h281v-201q0 -124 -21.5 -194t-79.5 -125q-89 -86 -275 -116v-426h-261v159q-125 -183 -352 -183q-235 0 -315 179 q-38 85 -38 235zM458 -120h281v-281h-281v281z" />
<glyph unicode="&#x1ef2;" horiz-adv-x="1366" d="M-3 1466h347l345 -580l338 580h341l-539 -851v-615h-295v617zM384 1897h315l138 -299h-177z" />
<glyph unicode="&#x1ef3;" d="M14 1062h299l254 -754l248 754h291l-375 -1022l-67 -185q-37 -93 -70.5 -142t-77 -79.5t-107 -47.5t-143.5 -17q-81 0 -159 17l-25 220q66 -13 119 -13q98 0 145 57.5t72 146.5zM270 1491h315l138 -299h-177z" />
<glyph unicode="&#x1ef4;" horiz-adv-x="1366" d="M-3 1466h347l345 -580l338 580h341l-539 -851v-615h-295v617zM541 -120h281v-281h-281v281z" />
<glyph unicode="&#x1ef5;" d="M14 1062h299l254 -754l248 754h291l-375 -1022l-67 -185q-37 -93 -70.5 -142t-77 -79.5t-107 -47.5t-143.5 -17q-81 0 -159 17l-25 220q66 -13 119 -13q98 0 145 57.5t72 146.5zM788 -120h281v-281h-281v281z" />
<glyph unicode="&#x1ef6;" horiz-adv-x="1366" d="M-3 1466h347l345 -580l338 580h341l-539 -851v-615h-295v617zM487 1847q39 8 144 7q123 -1 201 -40q86 -42 88 -117q4 -104 -182 -127v-50h-112v110q57 6 73 11q53 13 54 46q1 23 -28 39q-42 23 -133 23q-31 0 -94 -4z" />
<glyph unicode="&#x1ef7;" d="M14 1062h299l254 -754l248 754h291l-375 -1022l-67 -185q-37 -93 -70.5 -142t-77 -79.5t-107 -47.5t-143.5 -17q-81 0 -159 17l-25 220q66 -13 119 -13q98 0 145 57.5t72 146.5zM369 1519q39 8 144 7q123 -1 201 -40q86 -42 88 -117q4 -104 -182 -127v-50h-112v110 q57 6 73 11q53 13 54 46q1 23 -28 39q-42 23 -133 23q-31 0 -94 -4z" />
<glyph unicode="&#x1ef8;" horiz-adv-x="1366" d="M-3 1466h347l345 -580l338 580h341l-539 -851v-615h-295v617zM367 1583q0 105 51 161.5t131 56.5q35 0 65 -7.5t109.5 -43t124.5 -35.5q32 0 53.5 20t27.5 67h130q-1 -135 -50.5 -193t-127.5 -58q-34 0 -67 7q-23 6 -115 41t-134 35q-32 0 -50 -19.5t-19 -67.5h-128 q-1 23 -1 36z" />
<glyph unicode="&#x1ef9;" d="M14 1062h299l254 -754l248 754h291l-375 -1022l-67 -185q-37 -93 -70.5 -142t-77 -79.5t-107 -47.5t-143.5 -17q-81 0 -159 17l-25 220q66 -13 119 -13q98 0 145 57.5t72 146.5zM234 1241q0 105 51 161.5t131 56.5q35 0 65 -7.5t109.5 -43t124.5 -35.5q32 0 53.5 20 t27.5 67h130q-1 -135 -50.5 -193t-127.5 -58q-34 0 -67 7q-23 6 -115 41t-134 35q-32 0 -50 -19.5t-19 -67.5h-128q-1 23 -1 36z" />
<glyph unicode="&#x2000;" horiz-adv-x="1028" />
<glyph unicode="&#x2001;" horiz-adv-x="2057" />
<glyph unicode="&#x2002;" horiz-adv-x="1028" />
<glyph unicode="&#x2003;" horiz-adv-x="2057" />
<glyph unicode="&#x2004;" horiz-adv-x="685" />
<glyph unicode="&#x2005;" horiz-adv-x="514" />
<glyph unicode="&#x2006;" horiz-adv-x="342" />
<glyph unicode="&#x2007;" horiz-adv-x="342" />
<glyph unicode="&#x2008;" horiz-adv-x="257" />
<glyph unicode="&#x2009;" horiz-adv-x="411" />
<glyph unicode="&#x200a;" horiz-adv-x="114" />
<glyph unicode="&#x200c;" horiz-adv-x="0" d="M-36 -275v1564h72v-1564h-72z" />
<glyph unicode="&#x200d;" horiz-adv-x="0" d="M-219 1027l171 169l-171 168l49 49l170 -171l170 171l49 -49l-171 -168l171 -169l-49 -49l-134 136v-1389h-72v1389l-134 -136z" />
<glyph unicode="&#x200e;" horiz-adv-x="0" d="M-36 -275v1509h337l-137 130l49 49l217 -215l-217 -214l-49 49l137 130h-266v-1438h-71z" />
<glyph unicode="&#x200f;" horiz-adv-x="0" d="M-431 1198l217 215l49 -49l-137 -130h337v-1509h-71v1438h-266l137 -130l-49 -49z" />
<glyph unicode="&#x2010;" horiz-adv-x="682" d="M115 391v281h552v-281h-552z" />
<glyph unicode="&#x2011;" horiz-adv-x="682" d="M115 391v281h552v-281h-552z" />
<glyph unicode="&#x2012;" horiz-adv-x="682" d="M115 391v281h552v-281h-552z" />
<glyph unicode="&#x2013;" d="M-4 426v210h1139v-210h-1139z" />
<glyph unicode="&#x2014;" horiz-adv-x="2048" d="M0 426v210h2048v-210h-2048z" />
<glyph unicode="&#x2015;" horiz-adv-x="2048" d="M65 426v210h1918v-210h-1918z" />
<glyph unicode="&#x2017;" horiz-adv-x="1131" d="M-19 -223h1168v-182h-1168v182zM-19 -588h1168v-183h-1168v183z" />
<glyph unicode="&#x2018;" horiz-adv-x="569" d="M152 872v201q0 122 21.5 192.5t79.5 126.5t148 88l55 -116q-84 -28 -120.5 -78t-38.5 -133h136v-281h-281z" />
<glyph unicode="&#x2019;" horiz-adv-x="569" d="M117 970q85 28 121 77t38 134h-136v281h281v-201q0 -122 -21 -192.5t-79.5 -126.5t-148.5 -88z" />
<glyph unicode="&#x201a;" horiz-adv-x="569" d="M117 -211q85 28 121 77t38 134h-136v281h281v-201q0 -122 -21 -192.5t-79.5 -126.5t-148.5 -88z" />
<glyph unicode="&#x201b;" horiz-adv-x="569" d="M149 1264v202h281v-281h-136q4 -165 159 -211l-55 -117q-96 35 -155 95.5t-76.5 131t-17.5 180.5z" />
<glyph unicode="&#x201c;" horiz-adv-x="1024" d="M132 872v201q0 122 21.5 192.5t79.5 126.5t148 88l55 -116q-84 -28 -120.5 -78t-38.5 -133h136v-281h-281zM601 872v201q0 123 21.5 193t80 126t147.5 88l55 -116q-84 -28 -120.5 -78t-38.5 -133h136v-281h-281z" />
<glyph unicode="&#x201d;" horiz-adv-x="1024" d="M105 974q85 28 121 78t38 133h-136v281h281v-202q0 -122 -21 -192t-79.5 -126.5t-148.5 -88.5zM577 974q84 28 120.5 78t37.5 133h-135v281h281v-202q0 -122 -21.5 -192t-80 -126.5t-147.5 -88.5z" />
<glyph unicode="&#x201e;" horiz-adv-x="1024" d="M105 -211q85 28 121 78t38 133h-136v281h281v-202q0 -122 -21 -192t-79.5 -126.5t-148.5 -88.5zM577 -211q84 28 120.5 78t37.5 133h-135v281h281v-202q0 -122 -21.5 -192t-80 -126.5t-147.5 -88.5z" />
<glyph unicode="&#x2020;" d="M68 830v232h365v386h263v-386h363v-232h-363v-1180h-263v1180h-365z" />
<glyph unicode="&#x2021;" d="M68 -17v233h368v656h-368v233h368v343h262v-343h361v-233h-361v-656h361v-233h-361v-333h-262v333h-368z" />
<glyph unicode="&#x2022;" horiz-adv-x="717" d="M66 724q0 122 86.5 208.5t209.5 86.5q122 0 208.5 -86t86.5 -209t-86.5 -209.5t-208.5 -86.5q-123 0 -209.5 87t-86.5 209z" />
<glyph unicode="&#x2026;" horiz-adv-x="2048" d="M201 0v281h281v-281h-281zM884 0v281h281v-281h-281zM1566 0v281h282v-281h-282z" />
<glyph unicode="&#x202a;" horiz-adv-x="0" d="M-36 -275v1509h467v-71h-395v-1438h-72z" />
<glyph unicode="&#x202b;" horiz-adv-x="0" d="M-431 1163v71h467v-1509h-72v1438h-395z" />
<glyph unicode="&#x202c;" horiz-adv-x="0" d="M-234 984v429h468v-429h-198v-1259h-72v1259h-198z" />
<glyph unicode="&#x202d;" horiz-adv-x="0" d="M-234 984v429h468v-71h-398v-287h398v-71h-198v-1259h-72v1259h-198z" />
<glyph unicode="&#x202e;" horiz-adv-x="0" d="M-234 984v71h398v287h-398v71h468v-429h-198v-1259h-72v1259h-198z" />
<glyph unicode="&#x202f;" horiz-adv-x="411" />
<glyph unicode="&#x2030;" horiz-adv-x="2048" d="M1 1119q0 186 81 279t209 93q127 0 207.5 -92t80.5 -282q0 -207 -80 -300.5t-210 -93.5q-131 0 -209.5 91t-78.5 305zM196 1107q0 -105 15 -158q11 -38 31.5 -54t45.5 -16q26 0 46 16t32 54q15 53 15 158t-15 158q-12 38 -32 54t-46 16q-25 0 -45 -16t-32 -54 q-15 -53 -15 -158zM280 -52l613 1543h196l-612 -1543h-197zM799 338q0 186 81 279t209 93q127 0 207 -92t80 -281q0 -208 -79.5 -302t-209.5 -94q-132 0 -210 91.5t-78 305.5zM993 326q0 -105 16 -158q11 -38 31.5 -54t45.5 -16t45.5 15.5t31.5 54.5q16 53 16 158 q0 104 -16 158q-11 38 -31.5 54t-45.5 16t-45.5 -16t-31.5 -55q-16 -52 -16 -157zM1469 338q0 186 81 279t209 93q127 0 207.5 -92t80.5 -281q0 -208 -80 -302t-210 -94q-131 0 -209.5 91.5t-78.5 305.5zM1664 326q-1 -101 3 -123q9 -55 33 -80.5t55 -25.5q25 0 46 16.5 t33 53.5q15 54 15 159q0 104 -15 158q-12 38 -32 54t-45 16q-26 0 -46 -16t-32 -55q-15 -52 -15 -157z" />
<glyph unicode="&#x2032;" horiz-adv-x="491" d="M141 945l5 273l53 248h306l-53 -248l-104 -273h-207z" />
<glyph unicode="&#x2033;" horiz-adv-x="981" d="M141 945l5 273l53 248h306l-53 -248l-104 -273h-207zM592 945l5 273l53 248h306l-53 -248l-104 -273h-207z" />
<glyph unicode="&#x2039;" horiz-adv-x="682" d="M75 532l316 451h221l-260 -451l260 -462h-221z" />
<glyph unicode="&#x203a;" horiz-adv-x="682" d="M75 70l260 452l-260 461h221l316 -461l-316 -452h-221z" />
<glyph unicode="&#x203c;" horiz-adv-x="1237" d="M184 1122v344h304v-344l-72 -744h-159zM196 0v281h281v-281h-281zM738 1122v344h304v-344l-72 -744h-159zM750 0v281h281v-281h-281z" />
<glyph unicode="&#x203e;" horiz-adv-x="682" d="M-41 1237v185h765v-185h-765z" />
<glyph unicode="&#x2044;" horiz-adv-x="342" d="M-343 -54l869 1538h159l-869 -1538h-159z" />
<glyph unicode="&#x205f;" horiz-adv-x="514" />
<glyph unicode="&#x206a;" horiz-adv-x="0" d="M-234 984v71h198v287h-198v71h468v-71h-198v-287h198v-71h-198v-1259h-72v1259h-198z" />
<glyph unicode="&#x206b;" horiz-adv-x="0" d="M-234 984v429h468v-429h-198v-1259h-72v1259h-198zM-164 1055h328v287h-328v-287z" />
<glyph unicode="&#x206c;" horiz-adv-x="0" d="M-234 1413h468l-198 -364v-1324h-72v1324z" />
<glyph unicode="&#x206d;" horiz-adv-x="0" d="M-234 984l234 429l234 -429h-198v-1259h-72v1259h-198z" />
<glyph unicode="&#x206e;" horiz-adv-x="0" d="M-234 1198l234 215l234 -215l-198 -182v-1291h-72v1291zM-134 1198l134 -120l134 120l-134 121z" />
<glyph unicode="&#x206f;" horiz-adv-x="0" d="M-234 984v71h198v287h-198v71h270v-358h198v-71h-198v-1259h-72v1259h-198z" />
<glyph unicode="&#x20a3;" d="M0 181v225h152l-1 1060h886v-248h-590v-347h493v-248h-493v-217h251v-225h-251v-181h-295v181h-152z" />
<glyph unicode="&#x20a4;" d="M13 217q144 103 190 233h-190v186h206q-11 60 -24 107h-182v186h133q-17 75 -17 144q0 190 133.5 304t335.5 114q182 0 304 -95t150 -290l-271 -40q-35 201 -193 201q-90 0 -138.5 -58t-48.5 -131q0 -54 24 -149h338v-186h-288q20 -89 21 -107h267v-186h-286 q-24 -72 -130 -195q55 28 136 28q55 0 202 -37q66 -17 110 -17q81 0 204 56l108 -238q-130 -70 -278 -70q-88 0 -235 42q-153 43 -225 43q-126 0 -249 -87z" />
<glyph unicode="&#x20a7;" horiz-adv-x="2240" d="M41 0v1466h421q206 0 326 -104.5t143 -295.5h85v317h288v-317h279q99 28 194 28q127 0 197.5 -32t118 -82.5t69 -106.5t24.5 -128h-264q-7 72 -48 112t-102 40q-51 0 -84.5 -29.5t-33.5 -60.5q0 -46 44 -77t178 -76q208 -71 267 -140q58 -69 58 -183 q0 -156 -110.5 -256.5t-312.5 -100.5q-111 0 -186 30q-58 22 -99 63q-29 27 -63 89v-175q-72 -7 -121 -7q-117 0 -196 41q-58 29 -82 94q-15 40 -15 170v579h-94q-36 -126 -95 -201t-148 -110.5t-236 -35.5h-89v-511h-313zM354 769q121 -2 178 35q93 62 93 189 q0 117 -87 176q-57 38 -184 38v-438zM1304 311q0 -60 7.5 -75t29 -25.5t71.5 -10.5q-19 61 -19 102q0 12 1 33h246q8 -65 31 -94q47 -57 116 -57q58 0 99 36t41 78q0 27 -28 54q-29 27 -129 57q-212 63 -288 148q-76 84 -76 197q0 49 24 104h-126v-547z" />
<glyph unicode="&#x20aa;" horiz-adv-x="1675" d="M135 0v1061h725q137 0 210 -73.5t73 -199.5v-444h-213v369q0 89 -33.5 128.5t-110.5 39.5h-438v-881h-213zM532 0v717h213v-537h439q84 0 113.5 44t29.5 124v713h213v-789q0 -126 -72.5 -199t-210.5 -73h-725z" />
<glyph unicode="&#x20ab;" horiz-adv-x="1051" d="M120 189v131h823v-131h-823zM126 815q0 184 89 287q84 98 224 98q125 0 216 -103v166h-212v130h212v73h196v-73h78v-130h-78v-821h-182v109q-90 -126 -232 -126q-133 0 -219 103q-92 108 -92 287zM327 829q0 -119 33 -172q47 -77 133 -77q71 0 115 58q47 62 47 172 q0 240 -164 240q-73 0 -117 -55q-47 -60 -47 -166z" />
<glyph unicode="&#x20ac;" d="M-32 514l32 155h98q-1 24 -1 51q0 46 2 81h-131l32 155h119q42 199 167 333q189 202 497 202q168 0 292 -61l-59 -277q-85 85 -248 85t-264 -117q-57 -66 -81 -165h550l-32 -155h-538q-1 -23 -1 -59q0 -35 2 -73h509l-32 -155h-456q25 -107 77 -168q100 -118 260 -118 q192 0 306 118v-306q-130 -65 -303 -65q-292 0 -480 200q-128 136 -169 339h-148z" />
<glyph unicode="&#x2122;" horiz-adv-x="2048" d="M216 1324v142h665v-142h-246v-677h-166v677h-253zM980 647v819h259l149 -564l150 564h259v-819h-158v653l-177 -653h-150l-176 653v-653h-156z" />
<glyph unicode="&#x2202;" horiz-adv-x="1012" d="M44 329q0 158 87 303t266 230t429 80q-1 200 -74 296q-54 71 -145 71q-69 0 -120.5 -39.5t-107.5 -146.5l-137 84q52 142 150.5 213t219.5 71q145 0 234 -100q131 -145 131 -448q0 -261 -83 -506t-230 -353.5t-309 -108.5q-138 0 -224.5 92t-86.5 262zM273 338 q0 -78 42 -125.5t99 -47.5q119 0 217 115q141 165 183 478q-29 1 -44 1q-137 0 -255.5 -55.5t-180 -158.5t-61.5 -207z" />
<glyph unicode="&#x2206;" horiz-adv-x="1253" d="M26 0l628 1387l572 -1387h-1200zM151 82h839l-399 967z" />
<glyph unicode="&#x220f;" horiz-adv-x="1686" d="M161 -431v1922h1362v-1922h-191v1748h-978v-1748h-193z" />
<glyph unicode="&#x2211;" horiz-adv-x="1460" d="M122 -244l620 788l-603 772v175h1237v-164h-988l607 -775l-649 -822h1040v-161h-1264v187z" />
<glyph unicode="&#x221a;" horiz-adv-x="1124" d="M84 916l301 151l405 -823l260 1625h74l-312 -1947l-496 1021l-198 -91z" />
<glyph unicode="&#x221e;" horiz-adv-x="1460" d="M152 722q0 136 70.5 214t171.5 78q71 0 149 -44t138 -127q74 121 151 174.5t172 53.5q132 0 219.5 -93.5t87.5 -255.5t-87.5 -255.5t-219.5 -93.5q-94 0 -171 53t-152 175q-60 -84 -138 -128t-149 -44q-101 0 -171.5 78.5t-70.5 214.5zM292 727q0 -68 33 -106t80 -38 q39 0 70 21q54 36 120 122q-100 141 -190 141q-46 0 -79.5 -37t-33.5 -103zM774 724q84 -129 118 -158q53 -45 115 -45q76 0 117 59t41 146q0 94 -45 146t-110 52q-51 0 -102.5 -36t-133.5 -164z" />
<glyph unicode="&#x222b;" horiz-adv-x="561" d="M0 -99q0 45 25.5 72t64.5 27q40 0 69 -32t49 -32q17 0 28 14t11 47q0 42 -9 120q-37 315 -37 831l17 531q9 153 50 254q27 65 74.5 97.5t92.5 32.5q50 0 87.5 -33.5t37.5 -73.5q0 -47 -26.5 -75.5t-65.5 -28.5q-35 0 -76 36q-23 20 -40 20t-28.5 -14.5t-11.5 -49.5 q0 -42 9 -145q37 -410 37 -665q0 -67 -16 -588q-8 -295 -90 -399q-54 -67 -134 -67q-52 0 -85 34t-33 87z" />
<glyph unicode="&#x2248;" horiz-adv-x="1124" d="M31 276v259q127 137 296 137q63 0 116 -12.5t166 -57.5t149 -55t62 -10q56 0 129.5 34.5t143.5 109.5v-270q-46 -48 -128.5 -90.5t-170.5 -42.5q-50 0 -97.5 12.5t-150.5 57.5q-154 67 -242 67q-140 0 -273 -139zM31 761v258q127 138 296 138q63 0 116 -12.5t166 -58 t149 -55.5t62 -10q56 0 129.5 34.5t143.5 110.5v-270q-46 -48 -128.5 -90.5t-170.5 -42.5q-50 0 -97.5 12t-150.5 57q-154 67 -242 67q-140 0 -273 -138z" />
<glyph unicode="&#x2260;" horiz-adv-x="1124" d="M49 372v259h373l68 185h-441v258h537l148 398h211l-148 -398h277v-258h-374l-69 -185h443v-259h-540l-149 -397h-207l148 397h-277z" />
<glyph unicode="&#x2264;" horiz-adv-x="1124" d="M60 0v263h1005v-263h-1005zM60 773v242l1005 435v-285l-701 -268l701 -279v-282z" />
<glyph unicode="&#x2265;" horiz-adv-x="1124" d="M60 0v263h1005v-263h-1005zM60 338v282l702 277l-702 272v281l1005 -434v-241z" />
<glyph unicode="&#x25ca;" horiz-adv-x="1012" d="M47 709l391 713h111l418 -713l-418 -709h-111zM155 709l340 -615l359 615l-359 616z" />
<glyph unicode="&#x25fc;" horiz-adv-x="1060" d="M0 0v1060h1060v-1060h-1060z" />
<glyph unicode="&#xfb01;" horiz-adv-x="1251" d="M31 841v221h156v80q0 134 28.5 200t105 107.5t193.5 41.5q120 0 235 -36l-38 -196q-67 16 -129 16q-61 0 -87.5 -28.5t-26.5 -109.5v-75h210v-221h-210v-841h-281v841h-156zM820 0v1062h281v-1062h-281zM820 1206v260h281v-260h-281z" />
<glyph unicode="&#xfb02;" horiz-adv-x="1251" d="M31 841v221h156v80q0 134 28.5 200t105 107.5t193.5 41.5q120 0 235 -36l-38 -196q-67 16 -129 16q-61 0 -87.5 -28.5t-26.5 -109.5v-75h210v-221h-210v-841h-281v841h-156zM820 0v1466h281v-1466h-281z" />
</font>
</defs>
</svg>
